<?xml version="1.0" encoding="UTF-8"?>
<svg id="Layer_2" data-name="Layer 2" xmlns="http://www.w3.org/2000/svg" width="281.0345" height="353" viewBox="0 0 281.0345 353">
  <g id="Layer_1-2" data-name="Layer 1">
    <g>
      <g>
        <path d="M155.8518,119.825c-1.147-2.0833-2.9077-2.5425-3.1934-4.9232-.2857-2.3807-2.191-3.6675-5.1552-3.8691-2.892-.1967-4.8962-.3581-4.9052-2.0693-.0105-2.0016,1.0848-3.4343,1.085-5.9764.0003-3.0188-1.6765-5.7757-4.6899-5.6152-3.1168.166-4.6037,2.6503-4.1377,6.502.461,3.8104,2.1568,4.1921,2.4043,5.9389.2282,1.6103-3.252,3.1692-4.6497,3.8982-1.3795.7194-3.1511,3.5717-3.1511,7.4413,0,6.5954.5356,11.0112-.2406,12.9162-.9707,2.3826-3.1144,6.3596-3.1388,9.9317-.0227,3.3176.787,9.1041.602,11.4988-.1609,2.0826-1.2383,16.0948-1.4589,19.1768h2.4721c.1197-1.7387.7468-11.6728.88-13.0928.2501-2.6678.515-6.0344,1.807-5.814,1.4164.2416.0672,5.798.9046,9.384.7297,3.1251.7096,5.5592.3582,9.5227h16.1391l-.296-24.6732c0-2.3807,1.5043-2.3807,2.4089-2.3807,4.2726,0,4.0403.6171,4.0403-3.8489,0-8.2585-.5937-12.8279,1.0961-16.0417,1.6015-3.0459,1.9629-5.8227.819-7.906Z"/>
        <path d="M166.5434,215.1575h-4.6902v-29.1853c0-3.9358-3.2029-7.1387-7.1387-7.1387h-27.6409c-3.9358,0-7.1376,3.2029-7.1376,7.1387v29.1853h-4.6902v-29.1853c0-6.5223,5.3055-11.8289,11.8278-11.8289h27.6409c6.5223,0,11.8289,5.3066,11.8289,11.8289v29.1853Z"/>
        <rect x="118.849" y="183.5533" width="44.0912" height="2.7589" transform="translate(-.5772 .4412) rotate(-.179)"/>
      </g>
      <g>
        <g>
          <polygon points="129.1827 306.3352 137.861 312.8224 137.861 279.893 131.8853 271.1873 123.5412 278.4553 119.8645 312.0852 129.1827 306.3352" fill="#ff4000"/>
          <polygon points="114.7185 269.4342 106.0486 275.1331 98.0112 306.5275 108.125 301.7594 114.2903 310.9863 118.484 277.6649 114.7185 269.4342" fill="#ff4000"/>
          <polygon points="99.9108 266.3351 91.0218 269.8847 79.165 298.6936 90.2845 296.1505 93.2605 304.6098 101.6714 273.9439 99.9108 266.3351" fill="#ff4000"/>
          <polygon points="80.0279 264.7414 64.6634 289.1153 74.1664 288.5569 74.5742 295.9528 87.1861 268.6736 87.723 261.1735 80.0279 264.7414" fill="#ff4000"/>
          <polygon points="79.1029 255.5054 71.5156 258.1541 54.6551 280.0543 63.9724 281.6594 76.9164 262.7517 79.1029 255.5054" fill="#ff4000"/>
          <polygon points="64.9397 250.2759 46.4933 269.4085 54.65 271.7066 72.7265 250.4065 64.9397 250.2759" fill="#ff4000"/>
          <polygon points="60.6597 241.2131 40.731 257.225 47.171 261.9141 67.3429 242.9318 60.6597 241.2131" fill="#ff4000"/>
          <polygon points="58.7009 232.889 38.3989 243.2753 42.5498 249.4565 59.3238 237.6924 64.0719 235.5495 58.7009 232.889" fill="#ff4000"/>
          <polygon points="58.575 224.1797 39.6851 229.7817 42.249 236.1487 58.3198 228.8045 63.1549 227.6904 58.575 224.1797" fill="#ff4000"/>
          <polygon points="60.431 216.0161 45.0514 217.3993 45.7129 223.9748 58.9812 220.6327 63.2646 221.0207 60.431 216.0161" fill="#ff4000"/>
          <polygon points="62.4744 212.9866 66.2487 215.2437 64.0822 208.6419 53.1003 208.6419 52.4551 213.4027 62.4744 212.9866" fill="#ff4000"/>
        </g>
        <g>
          <polygon points="152.6059 306.3352 143.9276 312.8224 143.9276 279.893 149.9033 271.1873 158.2474 278.4553 161.9242 312.0852 152.6059 306.3352" fill="#ff4000"/>
          <polygon points="167.0701 269.4342 175.74 275.1331 183.7774 306.5275 173.6636 301.7594 167.4983 310.9863 163.3046 277.6649 167.0701 269.4342" fill="#ff4000"/>
          <polygon points="181.8778 266.3351 190.7668 269.8847 202.6236 298.6936 191.5041 296.1505 188.5281 304.6098 180.1172 273.9439 181.8778 266.3351" fill="#ff4000"/>
          <polygon points="201.7607 264.7414 217.1252 289.1153 207.6222 288.5569 207.2144 295.9528 194.6025 268.6736 194.0656 261.1735 201.7607 264.7414" fill="#ff4000"/>
          <polygon points="202.6857 255.5054 210.273 258.1541 227.1335 280.0543 217.8162 281.6594 204.8722 262.7517 202.6857 255.5054" fill="#ff4000"/>
          <polygon points="216.8489 250.2759 235.2953 269.4085 227.1386 271.7066 209.0621 250.4065 216.8489 250.2759" fill="#ff4000"/>
          <polygon points="221.1289 241.2131 241.0576 257.225 234.6176 261.9141 214.4457 242.9318 221.1289 241.2131" fill="#ff4000"/>
          <polygon points="223.0877 232.889 243.3897 243.2753 239.2388 249.4565 222.4648 237.6924 217.7167 235.5495 223.0877 232.889" fill="#ff4000"/>
          <polygon points="223.2136 224.1797 242.1035 229.7817 239.5396 236.1487 223.4688 228.8045 218.6338 227.6904 223.2136 224.1797" fill="#ff4000"/>
          <polygon points="221.3576 216.0161 236.7372 217.3993 236.0757 223.9748 222.8074 220.6327 218.5241 221.0207 221.3576 216.0161" fill="#ff4000"/>
          <polygon points="219.3143 212.9866 215.5399 215.2437 217.7064 208.6419 228.6883 208.6419 229.3335 213.4027 219.3143 212.9866" fill="#ff4000"/>
        </g>
      </g>
      <g>
        <path d="M3.3312,271.3931c-.5399-1.179-.749-2.2341-.6283-3.1631.1218-.9301.4656-1.7049,1.0314-2.3257l-.0916-.1994-2.3418.5895-1.3008-2.8408,13.7612-6.3003,1.7103,3.7386-6.5783,3.0122c-.9538.4365-1.6877.9031-2.1996,1.3989s-.8234,1.0195-.9344,1.5734c-.1121.5529-.0345,1.1197.2317,1.7017.3201.6984.7727,1.1337,1.3579,1.3083.5863.1735,1.3396.0496,2.2599-.3718l8.1108-3.7127,1.7114,3.7386-8.9395,4.092c-1.0885.4979-2.0864.749-2.996.7533-.9085.0043-1.7168-.2446-2.4216-.7458-.7048-.5011-1.2857-1.2501-1.7426-2.247Z"/>
        <path d="M28.5828,283.9817l-2.4712-3.787-7.2885-.8094-.0593-.0916,4.7408-3.0941-2.2168-3.3969-12.6738,8.2692,2.2168,3.398,3.8625-2.5207,4.086.6253c.2671.5775.3906,1.1135.3509,1.6023-.0582.7027-.4957,1.3213-1.3126,1.8536l-4.1858,2.732,2.2459,3.4433,4.7182-3.079c.8018-.5227,1.4129-1.1456,1.8332-1.8666.4192-.721.6143-1.5088.5852-2.3612-.0193-.5675-.1766-1.1496-.4474-1.7446l5.8995.9029.1164-.0754Z"/>
        <path d="M21.5605,299.1838l7.6668-6.4145c.5938-.4968.9096-.9936.9495-1.4915.0399-.4968-.1983-1.0551-.7145-1.6715-.3869-.4623-.805-.8331-1.2544-1.1122s-.9074-.5098-1.3719-.693l2.5412-2.1263c.3988.1897.9042.5065,1.5142.9495.61.4419,1.2318,1.0411,1.8655,1.7987.6445.7706,1.1036,1.5487,1.3762,2.3332.2716.7846.2867,1.5691.0453,2.3559-.2425.7867-.8223,1.5637-1.7405,2.3321l-8.239,6.893-2.6382-3.1534Z"/>
        <path d="M30.2296,309.145c-.6671-.6509-1.2221-1.3385-1.6629-2.0638-.4419-.7253-.7824-1.4754-1.0238-2.2492l2.8861-1.3913c.1207.4516.3201.9408.597,1.4678s.6121.9818,1.0055,1.3644c.7328.7145,1.5885,1.0012,2.566.8611.9786-.139,2.0131-.7695,3.1049-1.8914,1.0271-1.0551,1.595-2.0692,1.7028-3.0445.1078-.9742-.2974-1.9086-1.2135-2.801-.4322-.4203-.9387-.791-1.5185-1.1122s-1.1111-.5356-1.5918-.6445l2.3699-2.4335c.5863.2112,1.1855.5119,1.7987.9042.6132.3912,1.2081.8676,1.7836,1.429,1.2049,1.1725,1.9679,2.3526,2.2912,3.5403.3222,1.1887.2522,2.3731-.2102,3.5553-.4623,1.1812-1.2652,2.3591-2.4076,3.5327-1.8246,1.873-3.6372,2.8829-5.4381,3.0305-1.8019.1476-3.4821-.5378-5.0393-2.0541Z"/>
        <path d="M37.6465,291.7428l1.0777-1.3658,2.8918.8039,7.6812,6.0619-1.7955,2.2763-9.8552-7.7762Z"/>
        <path d="M39.1152,316.9519l9.181-12.0293,2.3968,1.8289-1.0044,2.2201.1735.1336c.7048-.4117,1.5163-.5852,2.4335-.5227.9171.0636,1.8623.4656,2.8354,1.2092.9301.7091,1.5745,1.4614,1.9334,2.2567.3578.7943.4397,1.6435.2436,2.5488-.1961.9042-.679,1.8612-1.4495,2.871l-5.9144,7.7487-3.2687-2.4938,5.4122-7.0913c.6251-.8191.9117-1.5325.8579-2.1414-.0528-.6078-.3923-1.1499-1.0163-1.6263-.5087-.3891-1.0464-.5787-1.6144-.5733-.569.0065-1.1478.208-1.7362.6035-.5895.3955-1.1919.9958-1.8052,1.8008l-4.3906,5.7517-3.2676-2.4949Z"/>
        <path d="M59.8201,331.7272c-1.4236-.8244-2.4615-1.6554-3.1167-2.4927s-.9969-1.6791-1.0238-2.5251.1951-1.6748.666-2.4863c.4063-.7016.8406-1.2049,1.3029-1.5109.4634-.3061.9311-.4763,1.4053-.5108.4731-.0334.9074.0108,1.3019.1326l.083-.1433c-.2899-.3384-.5367-.7145-.7393-1.1305-.2026-.4149-.2996-.8762-.291-1.3827.0075-.5054.1778-1.0454.5108-1.6187.3416-.5895.7986-1.0583,1.3708-1.4075.5712-.3492,1.2566-.5011,2.053-.4537.7964.0463,1.7006.3632,2.7126.9495.4893.2845.943.5949,1.3601.9333.4171.3373.7145.6423.8934.9171l-1.9442,2.0961c-.1078-.1045-.2576-.2393-.4472-.4031-.1908-.1627-.3966-.3093-.6175-.4375-.4904-.2845-.9204-.3794-1.2911-.2856-.3718.0938-.6628.3233-.8751.6897-.222.3815-.291.7361-.2048,1.0626.0851.3255.2673.6229.5453.8902.277.2673.5906.5022.9387.7037l.4979.2888-1.2889,2.2222-.4979-.2888c-.68-.3944-1.2588-.5701-1.7373-.5281-.4785.041-.874.333-1.1887.8751-.166.2867-.263.6078-.2899.9645s.0722.7231.2985,1.0982c.2252.3761.6466.7425,1.2631,1.0993.5841.3395,1.0939.5184,1.5271.5345.4343.0183.8072-.0798,1.1208-.2921.3125-.2123.5755-.5011.7878-.8676l5.0555-8.7208,3.5575,2.0627-4.9865,8.6011c-.9516,1.6403-2.1317,2.5736-3.5403,2.7999-1.4096.2252-3.1329-.2533-5.1719-1.4355Z"/>
        <path d="M74.1276,338.687l4.1082-9.1141c.3179-.7048.3858-1.29.2048-1.7556-.1811-.4645-.638-.8632-1.3708-1.193-.5496-.2479-1.0885-.3998-1.6144-.4548-.5259-.056-1.0378-.0636-1.5368-.0259l1.3622-3.0219c.4419-.0022,1.0335.0625,1.7761.1951.7415.1326,1.5627.4009,2.4626.8072.916.4128,1.6672.9128,2.2546,1.5002.5873.5884.943,1.2889,1.0669,2.1015.125.8137-.0593,1.7664-.5507,2.857l-4.4143,9.7942-3.7483-1.6898Z"/>
        <path d="M97.9923,334.4128c-.0647-.8083-.3018-1.5206-.7113-2.1349s-.9516-1.137-1.6252-1.5691c-.6746-.4311-1.4527-.7964-2.3354-1.0949-1.2124-.4084-2.3192-.6412-3.3226-.6994-1.0033-.056-1.7965-.0474-2.3806.0269l-1.096,3.245c.7468-.1563,1.595-.2242,2.5423-.2058.9484.0194,1.873.1811,2.7729.485.9354.3158,1.5659.7328,1.8924,1.2512s.3481,1.1963.0657,2.0325l-.1406.4163-2.7725-.6997c-2.2061-.5507-3.9476-.5755-5.2258-.0744-1.2782.5011-2.1533,1.4495-2.6242,2.8451-.4365,1.2911-.3729,2.4291.1908,3.4163s1.5896,1.7319,3.079,2.2352c.4839.1627.9635.2856,1.4377.3686.4731.0819.8956.1175,1.2652.1067l.4936-2.5736c-.1908-.0065-.3977-.0216-.6197-.0485-.2231-.0269-.4375-.0754-.6455-.1455-.5367-.1811-.9301-.4602-1.179-.8352-.2489-.3761-.2856-.8255-.1088-1.3482.1767-.5238.5216-.874,1.0346-1.0497.513-.1767,1.3062-.1423,2.3806.1035l2.3354.538-2.0466,6.0597,3.8172,1.29,3.0919-9.1583c.3535-1.0464.4979-1.9744.4343-2.7826Z"/>
        <path d="M95.7517,327.5891c-.8136-.2753-1.4133-.6131-1.7978-1.0155s-.6125-.8242-.6849-1.2676c-.0726-.4412-.0377-.8721.1043-1.2905.0996-.2967.2515-.6001.4523-.9117.2019-.3104.4395-.5843.7129-.8227l2.7056,1.3241c-.0752.1102-.1486.2259-.2191.3483-.0694.1224-.1232.2349-.1582.3398-.0827.2447-.0719.4569.0303.6374.1033.1806.3281.3291.6735.4466l5.582,1.8881-.8582,2.5384-6.5428-2.2147Z"/>
        <path d="M105.6656,349.4576c-1.6069-.347-2.8516-.818-3.7321-1.4129-.8816-.596-1.4646-1.2911-1.7502-2.0875-.2867-.7964-.3309-1.6532-.1326-2.5714.1714-.7921.43-1.4042.7759-1.8386s.7393-.7393,1.1801-.9182c.4397-.1778.8665-.2683,1.2782-.2737l.0356-.1627c-.3804-.2328-.7296-.5151-1.0508-.8482s-.555-.7415-.7027-1.2253-.152-1.0497-.0119-1.6974c.1433-.666.4332-1.2534.8708-1.762.4365-.5076,1.0421-.8622,1.8138-1.0626.7727-.2005,1.7297-.1778,2.8732.069.5539.1196,1.0809.2759,1.5821.4688.5001.1929.8773.3923,1.1327.5981l-1.2049,2.593c-.1358-.0668-.319-.1487-.5507-.2457-.2306-.097-.472-.1724-.7221-.2263-.5539-.1196-.9926-.0776-1.317.125s-.5313.5119-.6197.9257c-.0938.4311-.0496.79.1326,1.0734.1811.2845.4451.5108.7921.68.3459.1692.7167.2953,1.11.3804l.5626.1218-.5421,2.51-.5636-.1207c-.7673-.166-1.373-.1552-1.8149.0313-.4429.1875-.7296.5873-.8622,1.1984-.0701.3244-.0625.6596.0216,1.0077.083.3481.291.666.6208.9538.3309.2877.8438.5065,1.5411.6574.6606.1423,1.1995.1552,1.6176.0388.4181-.1175.7425-.3244.9753-.6229s.3934-.6542.4828-1.068l2.1285-9.8534,4.0188.8676-2.0983,9.7187c-.4009,1.8536-1.2361,3.1049-2.5078,3.7526-1.2706.6488-3.0585.7242-5.3627.2263Z"/>
        <path d="M121.4151,352.0074c-.8158-.1024-1.4894-.3179-2.0185-.6445s-.9063-.7684-1.1305-1.3256-.2867-1.2286-.1875-2.0142l1.4883-11.7814,4.078.5151-1.4258,11.2889c-.0431.347.0011.6121.1347.7964.1326.1832.3632.2964.6897.3373.1444.0183.3007.0194.4688.0032.1681-.0151.3276-.042.4796-.0787l.0485,2.6792c-.3675.139-.7749.2263-1.221.263-.4472.0366-.915.0237-1.4042-.0388Z"/>
        <path d="M127.8253,352.4859l.5712-15.1234,3.0133.1142.458,2.3936.2188.0086c.3395-.7425.902-1.3525,1.6877-1.8289.7867-.4774,1.7911-.693,3.0143-.6466,1.1682.0442,2.1285.2877,2.8796.7307s1.3073,1.0906,1.6683,1.942c.361.8525.5173,1.9129.4699,3.1825l-.3686,9.7414-4.1082-.1552.3373-8.9137c.0388-1.0303-.139-1.7782-.5324-2.2449-.3944-.4656-.9839-.7145-1.7685-.7436-.6402-.0248-1.1898.1304-1.65.4623-.4602.333-.818.8309-1.0712,1.4937-.2543.6628-.3998,1.5002-.4375,2.5121l-.2737,7.2303-4.1082-.1552Z"/>
        <path d="M146.5461,352.9095l-.6725-8.9503c-.1584-2.1112.2759-3.7633,1.304-4.9585,1.0271-1.1941,2.7449-1.8817,5.1493-2.0627,2.4238-.1821,4.2192.2414,5.3874,1.2706,1.1672,1.0292,1.8299,2.5994,1.9894,4.7106l.6725,8.9503-4.0726.3061-.6768-9.0053c-.0733-.9721-.3546-1.7222-.8428-2.2492-.4882-.5259-1.2426-.7512-2.2632-.6746-1.0023.0754-1.7049.4106-2.1101,1.0033-.4041.5938-.569,1.3773-.4957,2.3505l.18,2.3957.0841.0216c.2921-.7425.6714-1.2458,1.137-1.512.4645-.2651,1.1165-.43,1.955-.4936l.6294-.0474.2317,3.0844-.6283.0474c-.9117.069-1.5928.277-2.0422.6251-.4505.3481-.7436.7803-.8783,1.2976-.1358.5184-.1789,1.0896-.1326,1.7135l.1412,1.873-4.0457.3039Z"/>
        <path d="M171.5973,347.0823c-.1358.0787-.2813.1498-.4375.2123-.1552.0636-.3061.1067-.4505.1315-.3244.0539-.5766.0108-.7565-.1272-.1811-.1379-.2996-.3794-.3567-.7242l-1.4086-8.5009h0l-.1139-.6867-.3377-2.0377h-.0003s-.2077-1.2523-.2077-1.2523c-.1476-.8902-.3794-1.5896-.6951-2.0972-.3158-.5076-.7318-.8676-1.248-1.0799l.0086-.1142,4.5425-.7522-.4871-2.9432-6.8951,1.1434-2.5143,1.7599.2705,1.6349c.7932-.1315,1.4269.0065,1.9021.4128.4742.4063.8029,1.1542.9829,2.2449l.7361,4.4401h0l1.4904,8.9913c.1293.7813.3815,1.4064.7555,1.8763.374.4699.8622.7856,1.4624.9473.6014.1617,1.3073.1746,2.1188.0399.4871-.0798.9387-.2015,1.3568-.3643.4171-.1627.7824-.3632,1.0949-.6014l-.8126-2.5531Z"/>
        <path d="M180.5972,348.3422c-1.0788.2802-2.0401.3061-2.8818.0776-.8428-.2285-1.5637-.7113-2.1608-1.4506-.5981-.7393-1.054-1.7146-1.3687-2.926l-2.4205-9.3297,3.98-1.0324,2.2405,8.6346c.2543.9796.6337,1.6424,1.1381,1.9862.5044.3449,1.1284.4214,1.872.2285.9365-.2436,1.5681-.7921,1.8946-1.6478.3255-.8546.2921-2.039-.1013-3.5543l-1.817-7.0029,3.9789-1.0324,3.8011,14.6481-3.024.7846-1.0077-2.1349-.2382.0614c-.1164.791-.4785,1.5228-1.0874,2.1942-.61.6714-1.5422,1.1704-2.7977,1.4959Z"/>
        <path d="M199.2307,339.117c-.1185.1024-.2489.1983-.3912.2888s-.2824.1606-.4192.2102c-.3093.111-.5658.1153-.7673.0129-.2026-.1035-.3632-.3201-.4817-.6488l-3.4654-9.596-.8304-2.3008c-.3061-.8482-.6606-1.4937-1.0637-1.9356-.402-.4419-.8762-.7199-1.4236-.8363l-.0119-.1132,4.3313-1.5637-1.013-2.8053-6.574,2.3731-2.1533,2.1877.5626,1.5584c.7565-.2737,1.4042-.2533,1.9453.0604.541.3147.999.9904,1.3741,2.0293l.5908,1.637h-.0002s.452,1.2518.452,1.2518l.4856,1.3456h.0002s3.095,8.571,3.095,8.571c.2683.7458.6294,1.3148,1.0831,1.7092.4526.3934.9893.6164,1.6101.666.6197.0496,1.317-.0647,2.0907-.3438.4645-.167.8869-.3697,1.2674-.6046.3815-.236.7037-.499.9678-.79l-1.2609-2.3634Z"/>
        <path d="M206.5924,332.404l2.0614-1.2225,2.6988,5.7995,3.6523-1.6995-4.077-8.7628c-.4666-1.0023-1.0012-1.7728-1.6058-2.3149-.6046-.541-1.2674-.8923-1.9873-1.0551-.721-.1617-1.4743-.167-2.2589-.0151-.7867.153-1.6015.4257-2.4464.8191-1.1596.5389-2.122,1.1348-2.8882,1.7847-.7652.6509-1.3331,1.2049-1.7049,1.6618l1.4441,3.1049c.4332-.6283,1.0001-1.262,1.6995-1.9021.6994-.6402,1.4808-1.1607,2.3418-1.5616.8945-.4171,1.6392-.5496,2.233-.3998s1.0766.6261,1.4495,1.4269l.1852.3979-2.4893,1.4062c-1.9776,1.123-3.2557,2.3063-3.8355,3.55-.5798,1.2447-.5583,2.5348.0625,3.87.5744,1.2361,1.4064,2.0164,2.4949,2.3418,1.0896.3265,2.3462.1573,3.7709-.5054.4634-.2155.8956-.4569,1.2954-.7242s.7296-.5324.9904-.7953l-1.4183-2.2039c-.1423.1272-.3028.2586-.4828.3923-.1789.1347-.3686.2479-.5669.3395-.5141.2393-.9904.3093-1.4301.2091s-.7759-.4009-1.0087-.902c-.2328-.5001-.2252-.9915.0248-1.4732.2489-.4817.8482-1.0033,1.7955-1.5659Z"/>
        <path d="M225.3046,329.7281c-1.3978.8654-2.621,1.3902-3.6685,1.5724-1.0475.1832-1.9506.0873-2.7083-.2877-.7587-.375-1.3848-.9624-1.8795-1.7599-.4257-.6887-.6649-1.3094-.7167-1.8623-.0528-.5529.0183-1.0454.2123-1.4797.1929-.4332.4365-.7953.7307-1.0852l-.0873-.1412c-.4354.097-.8837.1358-1.3461.1185-.4613-.0172-.9139-.1487-1.3558-.3944-.4429-.2468-.8385-.6509-1.1866-1.2146-.3589-.5787-.5572-1.2027-.5949-1.873-.0388-.6682.1509-1.3439.5679-2.0239s1.123-1.3277,2.1177-1.9442c.4807-.2974.9689-.5507,1.4635-.7598.4936-.208.9042-.3265,1.2307-.3556l.9311,2.704c-.1433.0463-.3319.1142-.5658.2048s-.4602.2026-.6779.3373c-.4817.2985-.7684.6337-.8611,1.0044-.0927.3707-.0269.7371.1951,1.0971.2328.375.513.6024.8406.6811s.6757.0582,1.0432-.0604c.3664-.1185.721-.2845,1.0626-.4957l.4893-.3028,1.3514,2.1834-.4893.3028c-.6682.4138-1.096.8417-1.2846,1.2825-.1897.4419-.1185.929.2112,1.4614.1735.2813.4117.5195.7134.7113s.6714.277,1.109.2554c.4375-.0226.9602-.2209,1.5659-.596.5744-.3556.9721-.7199,1.1919-1.0949.2199-.374.3093-.749.2705-1.1251-.0399-.3761-.1703-.7447-.3934-1.1046l-5.3055-8.571,3.4961-2.164,5.2322,8.4535c.998,1.6133,1.2641,3.0941.7997,4.4423-.4656,1.3493-1.7006,2.6436-3.7051,3.884Z"/>
        <polygon points="220.6181 309.0618 220.6185 309.0615 218.9653 306.4142 215.9899 308.2708 216.9987 309.8873 211.674 313.2109 209.9392 315.6605 210.8602 317.1365 221.5097 310.4904 220.6181 309.0618"/>
        <path d="M236.3015,314.0173l1.7088-1.6801,4.0095,4.9832,3.1393-2.5251-6.0588-7.531c-.6811-.846-1.3698-1.4323-2.066-1.7588-.1527-.0714-.3071-.1216-.4623-.1633.074-.1974.1372-.3926.1789-.5836.1379-.6294.1304-1.221-.0205-1.7728-.1509-.5529-.4052-1.0508-.763-1.4959l-2.7977,2.2513c.2974.3988.4106.8449.3395,1.3396-.0069.0481-.0321.1011-.0418.1499-.2626.0273-.5271.0798-.7956.1863-.7555.3007-1.5099.7544-2.2643,1.3611-.9829.791-1.7674,1.5939-2.3548,2.4087s-1.0066,1.4894-1.2577,2.0218l2.1468,2.6684c.2705-.7134.6682-1.4646,1.1941-2.2546.5259-.7889,1.1585-1.4818,1.8989-2.0778.7695-.6175,1.4592-.9257,2.0724-.9225.6121.0043,1.1952.3503,1.7491,1.0378l.2752.342-2.0803,1.9621c-1.65,1.5637-2.607,3.0186-2.8721,4.3658s.0647,2.5951.9883,3.7418c.8535,1.0626,1.8483,1.6209,2.9831,1.6758,1.1359.056,2.3149-.4084,3.5403-1.3935.3977-.3212.7587-.6596,1.0831-1.0141.3244-.3556.5809-.6919.7706-1.0098l-1.9043-1.7998c-.1078.1584-.2328.3233-.375.4968-.1412.1735-.2985.3287-.4688.4656-.4419.3556-.888.5367-1.3385.5453-.4505.0075-.8492-.2026-1.1952-.6337-.3459-.43-.4559-.9085-.3287-1.4366.1261-.527.582-1.1779,1.3676-1.9506Z"/>
        <path d="M247.6236,323.3678l-1.5587-1.9006c-.2923-.3562-.594-.4065-.9051-.1518-.0699.0579-.1349.1236-.1937.196-.0598.0713-.1125.1506-.1591.2378l-1.4101-1.4159c.1395-.2334.3534-.5277.6406-.8829.2883-.3551.6083-.6773.9623-.9676.6921-.5672,1.2928-.8284,1.803-.7824.5103.0449.9637.3102,1.3616.7939l2.1716,2.648-2.7123,2.2254Z"/>
        <path d="M252.9585,307.7332c-.7555.7695-1.6004,1.4581-2.5326,2.066s-1.8515,1.0572-2.7546,1.3461l-1.5379-3.1243c.4009-.1175.8589-.2824,1.3751-.4925s1.0378-.4785,1.5659-.8061c.527-.3265,1.0087-.7124,1.4441-1.1553.5119-.5205.8244-.9893.9354-1.4053.111-.4149.0097-.7781-.3061-1.0874-.236-.2328-.5162-.3352-.8395-.3071-.3244.028-.7221.1433-1.193.3459-.471.2037-1.0152.4623-1.6338.777-.9279.4462-1.7804.7749-2.5552.9861-.7759.2123-1.5056.2446-2.1877.0991-.6833-.1455-1.3396-.5281-1.97-1.1478-.7221-.7091-1.1337-1.4721-1.235-2.289s.0604-1.6704.4828-2.5606c.4235-.8913,1.0702-1.7793,1.9409-2.6662.7178-.7296,1.4236-1.3299,2.1177-1.8008.694-.4699,1.2932-.7781,1.7976-.9236l2.3246,2.2837c-.3233.1196-.7124.3061-1.1704.5615-.4569.2554-.9225.5518-1.3989.8923-.4753.3395-.8988.6984-1.2706,1.0755-.5248.5356-.8492,1.0098-.9742,1.4258-.1239.416-.055.7522.208,1.0109.2102.2058.4796.2856.8104.2382.3298-.0463.7371-.1918,1.22-.4343.4828-.2414,1.0669-.527,1.7502-.8546.902-.4462,1.7286-.7609,2.4776-.9473.7501-.1843,1.4538-.1918,2.1112-.0205.6574.1724,1.2943.5615,1.9118,1.1672.5906.5809,1.0141,1.2598,1.2706,2.0369s.2317,1.6424-.0744,2.5973-1.0087,1.9927-2.1101,3.1135Z"/>
        <path d="M263.3529,295.7718c-.6736.888-1.4129,1.5034-2.2147,1.845-.8029.3438-1.6683.4095-2.5951.1994s-1.8881-.694-2.8861-1.4506l-7.6776-5.8261,2.4852-3.2751,7.1053,5.3917c.8072.6121,1.5153.8977,2.1242.8557.61-.042,1.1467-.3686,1.6112-.9807.5852-.7706.7404-1.5928.4677-2.4658-.2737-.8729-1.0346-1.7825-2.2804-2.7287l-5.7646-4.3733,2.4852-3.2751,12.0563,9.1475-1.8892,2.4895-2.1123-1.0529-.1498.1961c.3988.693.5669,1.4915.5054,2.3957-.0625.9053-.486,1.8741-1.2706,2.9076Z"/>
        <path d="M273.2635,280.6139l-8.6464-5.0178c-.6693-.388-1.2437-.5151-1.7254-.3826s-.9247.5464-1.3277,1.2415c-.3028.5216-.5087,1.0411-.6175,1.5594-.1088.5173-.1692,1.026-.1832,1.5249l-2.8656-1.6629c.042-.4397.167-1.0227.375-1.747s.5593-1.5142,1.054-2.3677c.5044-.8686,1.0799-1.5648,1.7243-2.0886s1.3773-.8061,2.1996-.8471c.8212-.041,1.7502.2393,2.7848.8395l9.292,5.3928-2.0638,3.5553Z"/>
        <path d="M280.1618,267.8281c-.4322.9872-.9775,1.9312-1.6327,2.83-.6552.8999-1.3547,1.6467-2.0961,2.2384l-2.5477-2.3731c.3319-.2533.7016-.5701,1.11-.9505.4074-.3794.7997-.8158,1.1769-1.3094.3772-.4925.6897-1.0238.9398-1.5928.2931-.6693.4181-1.2189.375-1.6467-.0442-.4278-.2683-.7307-.6725-.9085-.3039-.1326-.6014-.1282-.8945.0119-.2931.1412-.624.3901-.9915.7479s-.7846.7932-1.2512,1.3073c-.7091.7468-1.3892,1.3568-2.039,1.8299-.6488.4731-1.3191.763-2.0088.8697-.6897.1067-1.4398-.0172-2.2492-.3729-.9268-.4063-1.5831-.9732-1.9679-1.7006-.3847-.7264-.5378-1.5821-.4591-2.5649.0798-.9829.3675-2.0433.8665-3.1814.4117-.9365.8579-1.7491,1.3396-2.4356s.9322-1.1876,1.3514-1.5023l2.9852,1.3083c-.2597.2252-.5583.5389-.8945.9398s-.6671.8449-.9904,1.331c-.3244.4871-.5927.9732-.805,1.4581-.3007.6865-.4354,1.2458-.4041,1.678.0313.4332.2155.7231.5529.8708.2705.1185.5507.097.8428-.0647.2921-.1606.6208-.4408.9861-.8395.3653-.3977.8094-.8719,1.332-1.4204.6843-.7371,1.345-1.3267,1.9797-1.7664.6348-.4397,1.29-.6962,1.9657-.7695.6746-.0722,1.4086.0647,2.2017.4117.7587.333,1.3956.8169,1.9108,1.4517.5162.6348.8007,1.4538.8546,2.4539.0528,1.0012-.2349,2.2211-.8665,3.661Z"/>
        <polygon points="261.1485 253.8715 259.693 257.0635 261.4274 257.8544 258.8245 263.5659 258.7309 266.5659 260.3145 267.2873 265.5212 255.8645 261.1485 253.8715"/>
      </g>
      <g>
        <g>
          <path d="M138.9562,246.779c0-2.2395-1.5646-4.1052-3.6575-4.5875v-19.6455c0-13.5535-11.0257-24.5813-24.5792-24.5813h-24.2345v10.688h-9.6079v14.8363c0,18.1407,14.7566,32.8973,32.8972,32.8973h29.1819v-4.7172h-29.1819c-15.5392,0-28.18-12.6408-28.18-28.18v-10.1191h4.8907v8.8271c0,13.5535,11.0279,24.5814,24.5813,24.5814l27.8899.0007ZM130.5815,222.546v16.179l-10.632-10.6315v-23.1212c6.3133,3.3304,10.632,9.9536,10.632,17.5737ZM102.0981,216.9111h-10.8958v-10.8953l10.8958,10.8953ZM91.2023,222.1969v-.859h15.3228l8.7032,8.7028h-22.4047c-1.0397-2.4083-1.6213-5.0586-1.6213-7.8438ZM115.2322,203.2189v20.1576l-20.6956-20.6946h16.1829c1.5542,0,3.0603.1977,4.5127.537ZM95.6944,234.758h24.2514l7.3034,7.3031h-16.1829c-6.1903,0-11.7259-2.8496-15.372-7.3031Z" fill="#995309"/>
          <path d="M195.3044,208.6526v-10.688h-24.2344c-13.5535,0-24.5792,11.0279-24.5792,24.5813v19.6444c-2.0949.481-3.661,2.3478-3.661,4.5887h11.4827v-.0007h16.4107c13.5535,0,24.5813-11.0279,24.5813-24.5814v-8.8271h4.8908v10.1191c0,15.5393-12.6408,28.18-28.18,28.18h-29.1853v4.7172h29.1853c18.1406,0,32.8973-14.7566,32.8973-32.8973v-14.8363h-9.608ZM188.9658,230.0407h-22.4046l8.7032-8.7028h15.3228v.859c0,2.7852-.5816,5.4355-1.6213,7.8438ZM179.6914,216.9111l10.8958-10.8952v10.8952h-10.8958ZM187.2528,202.6819l-20.6956,20.6946v-20.1576c1.4524-.3393,2.9584-.537,4.5127-.537h16.1829ZM161.84,204.9723v23.1212l-10.6319,10.6314v-16.1789c0-7.6201,4.3186-14.2433,10.6319-17.5737ZM170.7231,242.061h-16.1828l7.3034-7.3031h24.2513c-3.646,4.4534-9.1816,7.3031-15.372,7.3031Z" fill="#995309"/>
        </g>
        <g>
          <path d="M140.8947,11.6056h-2.7608c.0043-1.3939.0011-2.5418-.0054-3.4111l-.0011-.2916c-.0054-.8135-.0108-1.5067-.0108-2.0725V0h-5.2895v5.8304c0,.6433.0054,1.446.013,2.4014.039,5.605-.0184,22.6773-1.7419,44.2106h-5.5584c.3252-3.6875.5799-7.1691.7533-10.384l.0629-1.221h-5.2982l-.0054.1187c-.6341,12.4212-2.4735,28.8633-5.1801,46.2966-1.6302,10.4973-3.2431,19.3367-4.7335,26.6602h-5.6559c.9387-4.036,1.7711-7.8687,2.4757-11.4164l.0293-.149h-5.3947l-.0206.1003c-1.6053,7.9387-4.6284,21.2357-9.9179,39.4955-1.1771,4.0625-2.3142,7.8411-3.4079,11.3709h-5.7795c1.2118-3.888,2.3478-7.7268,3.3862-11.4782l.0434-.1583h-5.4771l-.0249.091c-1.8047,6.412-10.4349,36.1901-22.9662,60.781h5.9486c3.293-6.6445,8.3159-17.7352,13.5946-32.786h5.8911c-1.614,4.6544-3.0263,8.479-4.1731,11.4663l-.0661.1702h5.6624l.0303-.0818c4.0018-10.6122,8.4123-24.0729,12.4185-37.9032,1.2747-4.4029,2.4898-8.7754,3.629-13.0526h6.0559c-1.511,5.9778-2.6632,9.6811-3.2333,11.4002l-.0553.1648h5.5475l.0271-.0867c.943-2.9586,1.9381-6.5296,2.9613-10.6132,2.9364-11.7335,5.9312-27.0623,8.4329-43.1635,1.6757-10.7959,3.0241-21.2357,3.965-30.5824h5.6061c-.375,4.1758-.8119,8.4871-1.3235,12.8944l-.0163.1398h5.3253l.0119-.1111c2.5635-22.2996,3.2561-42.2291,3.4209-53.7599h2.8052v-5.0392ZM85.5778,164.7245h-5.8467c.1171-.3404.2341-.6758.3501-1.0183.6102-1.7906,1.2042-3.5759,1.7831-5.353h5.7968c-.7197,2.2502-1.4156,4.3704-2.0833,6.3713ZM108.6469,125.3233h-5.9638c.555-2.1597,1.0904-4.288,1.5988-6.3713h5.799c-.4975,2.299-.9766,4.4257-1.434,6.3713Z" fill="#995309"/>
          <path d="M140.8947,16.6447h2.8052c.1648,11.5308.8574,31.4604,3.4209,53.7599l.0119.1111h5.3253s-.0163-.1398-.0163-.1398c-.5116-4.4072-.9484-8.7185-1.3235-12.8944h5.6061c.9408,9.3467,2.2892,19.7865,3.965,30.5824,2.5017,16.1011,5.4966,31.43,8.4329,43.1635,1.0232,4.0837,2.0183,7.6547,2.9613,10.6132l.0271.0867h5.5475s-.0553-.1648-.0553-.1648c-.5701-1.7191-1.7224-5.4223-3.2333-11.4002h6.0559c1.1392,4.2772,2.3543,8.6497,3.629,13.0526,4.0062,13.8303,8.4167,27.291,12.4185,37.9032l.0303.0818h5.6624s-.0661-.1702-.0661-.1702c-1.1468-2.9873-2.5591-6.8119-4.1731-11.4663h5.8911c5.2787,15.0508,10.3016,26.1415,13.5946,32.786h5.9486c-12.5312-24.591-21.1614-54.3691-22.9662-60.781l-.0249-.091h-5.4771s.0434.1583.0434.1583c1.0384,3.7515,2.1744,7.5902,3.3862,11.4782h-5.7795c-1.0937-3.5298-2.2307-7.3084-3.4079-11.3709-5.2895-18.2598-8.3126-31.5568-9.9179-39.4955l-.0206-.1003h-5.3947s.0293.149.0293.149c.7046,3.5477,1.537,7.3804,2.4757,11.4164h-5.6559c-1.4904-7.3235-3.1033-16.1629-4.7335-26.6602-2.7066-17.4333-4.546-33.8753-5.1801-46.2966l-.0054-.1187h-5.2982s.0629,1.221.0629,1.221c.1734,3.2149.4281,6.6965.7533,10.384h-5.5584c-1.7234-21.5332-1.7809-38.6056-1.7419-44.2106.0076-.9555.013-1.7581.013-2.4014V0s-5.2895,0-5.2895,0v5.8304c0,.5658-.0054,1.259-.0108,2.0725l-.0011.2916c-.0065.8693-.0098,2.0172-.0054,3.4111h-2.7608s0,5.0392,0,5.0392ZM194.1284,158.3532h5.7968c.5788,1.7771,1.1728,3.5623,1.7831,5.353.116.3425.233.678.3501,1.0183h-5.8467c-.6677-2.0009-1.3636-4.1211-2.0833-6.3713ZM171.7085,118.952h5.799c.5084,2.0833,1.0438,4.2116,1.5988,6.3713h-5.9638c-.4574-1.9456-.9365-4.0723-1.434-6.3713Z" fill="#995309"/>
        </g>
        <g>
          <path d="M138.9557,201.5673l-8.3767-11.4028v11.4028c4.3338,4.276,7.2658,9.8224,8.3813,15.9756l-.0046-15.9756Z" fill="#995309"/>
          <path d="M142.8338,201.5673l8.3767-11.4028v11.4028c-4.3338,4.276-7.2658,9.8224-8.3813,15.9756l.0046-15.9756Z" fill="#995309"/>
        </g>
      </g>
    </g>
  </g>
</svg>