<?xml version="1.0" encoding="UTF-8"?><svg id="b" xmlns="http://www.w3.org/2000/svg" width="300" height="300" viewBox="0 0 300 300"><defs><style>.d{fill:#636567;}.e{fill:#fff;}.f{fill:#da2129;}.g{fill:#626466;}</style></defs><g id="c"><path class="e" d="m202.56,22.39c-.12-.05-.24-.1-.36-.15.05.03.11.07.16.1.07.01.13.03.2.04Z"/><circle class="e" cx="150" cy="149.82" r="128.83" transform="translate(-3.7 3.79) rotate(-1.43)"/><path class="f" d="m290.69,119.21c-4.5-7.81-8.9-15.12-13.29-21.96-1.74-7.95-3.8-16.23-6.14-24.96-5.87-21.82-16.09-34.27-39.61-42.05-9.62-3.18-19.37-5.79-29.09-7.85-.07-.01-.13-.03-.2-.04-.05-.03-.11-.07-.16-.1-6.68-4.27-13.8-8.55-21.41-12.94-19.57-11.28-35.61-12.85-57.74-1.73-8.98,4.52-17.66,9.52-25.93,14.88-9.62,2.05-19.27,4.64-28.78,7.78-23.51,7.78-33.74,20.23-39.61,42.05-2.3,8.54-4.32,16.67-6.03,24.46-5.46,8.38-10.54,17.19-15.13,26.3-11.13,22.13-9.55,38.16,1.73,57.74,4.51,7.83,8.91,15.14,13.3,21.99,1.74,7.95,3.79,16.22,6.13,24.93,5.87,21.82,16.09,34.27,39.61,42.05,9.68,3.2,19.5,5.82,29.29,7.89,6.73,4.31,13.91,8.63,21.57,13.04,19.57,11.28,35.61,12.86,57.74,1.73,8.97-4.51,17.64-9.51,25.91-14.87,9.62-2.05,19.27-4.64,28.79-7.79,23.52-7.78,33.74-20.23,39.61-42.05,2.29-8.53,4.31-16.64,6.02-24.44,5.46-8.39,10.55-17.2,15.14-26.33,11.13-22.13,9.55-38.16-1.73-57.74Zm-11.86,30.61c0,71.15-57.68,128.83-128.83,128.83S21.17,220.97,21.17,149.82,78.85,20.99,150,20.99s128.83,57.68,128.83,128.83Z"/><path class="d" d="m153.14,31.25c0,1.7-1.38,3.08-3.08,3.08s-3.08-1.38-3.08-3.08,1.38-3.08,3.08-3.08,3.08,1.38,3.08,3.08"/><path class="d" d="m141.3,31.53c.17,1.69-1.07,3.2-2.76,3.37-1.69.17-3.2-1.07-3.37-2.76-.17-1.69,1.07-3.2,2.76-3.37,1.69-.17,3.2,1.07,3.37,2.76"/><path class="d" d="m129.55,32.98c.34,1.67-.74,3.3-2.41,3.63-1.67.34-3.3-.74-3.63-2.41-.34-1.67.74-3.3,2.41-3.63s3.3.74,3.63,2.41"/><path class="d" d="m118,35.6c.5,1.63-.41,3.35-2.04,3.85-1.63.5-3.35-.41-3.85-2.04-.5-1.63.41-3.35,2.04-3.85,1.63-.5,3.35.41,3.85,2.04"/><path class="d" d="m106.77,39.36c.66,1.57-.07,3.38-1.64,4.04-1.57.66-3.38-.07-4.04-1.64s.07-3.38,1.64-4.04c1.57-.66,3.38.08,4.04,1.64"/><path class="d" d="m95.97,44.21c.81,1.49.26,3.37-1.23,4.18s-3.37.26-4.18-1.23-.26-3.37,1.23-4.18c1.49-.81,3.37-.26,4.18,1.23"/><path class="d" d="m85.7,50.12c.96,1.41.6,3.32-.81,4.28-1.41.96-3.32.6-4.28-.81-.96-1.41-.6-3.32.81-4.28,1.41-.96,3.32-.6,4.28.81"/><path class="d" d="m76.08,57.02c1.09,1.3.92,3.25-.38,4.34-1.3,1.09-3.25.92-4.34-.38-1.09-1.3-.92-3.25.38-4.34,1.3-1.09,3.25-.92,4.34.38"/><path class="d" d="m67.18,64.84c1.22,1.19,1.24,3.14.05,4.36-1.19,1.22-3.14,1.24-4.36.05s-1.24-3.14-.05-4.36c1.19-1.22,3.14-1.24,4.36-.05"/><path class="d" d="m59.12,73.51c1.33,1.06,1.55,3,.49,4.33-1.06,1.33-3,1.55-4.33.49-1.33-1.06-1.55-3-.49-4.33,1.06-1.33,3-1.55,4.33-.49"/><path class="d" d="m51.95,82.94c1.43.92,1.84,2.83.92,4.26-.92,1.43-2.83,1.84-4.26.92-1.43-.92-1.84-2.83-.92-4.26.92-1.43,2.83-1.84,4.26-.92"/><path class="d" d="m45.76,93.03c1.52.78,2.11,2.63,1.34,4.15-.78,1.52-2.63,2.11-4.15,1.34-1.52-.78-2.11-2.63-1.34-4.15.78-1.52,2.63-2.11,4.15-1.34"/><path class="d" d="m40.61,103.69c1.58.62,2.37,2.41,1.74,4-.62,1.58-2.41,2.36-3.99,1.74-1.58-.62-2.37-2.41-1.74-4,.62-1.58,2.41-2.37,4-1.74"/><path class="d" d="m36.54,114.81c1.64.46,2.59,2.16,2.13,3.8-.46,1.64-2.16,2.59-3.8,2.13-1.64-.46-2.59-2.16-2.13-3.8.46-1.64,2.16-2.59,3.8-2.13"/><path class="d" d="m33.6,126.28c1.68.3,2.8,1.89,2.5,3.57-.29,1.68-1.89,2.79-3.57,2.5-1.68-.3-2.79-1.89-2.5-3.57.3-1.68,1.89-2.8,3.57-2.5"/><path class="d" d="m31.82,137.99c1.7.13,2.97,1.61,2.84,3.3-.13,1.7-1.61,2.97-3.3,2.84-1.7-.13-2.97-1.61-2.84-3.3.13-1.7,1.61-2.97,3.3-2.84"/><path class="d" d="m31.21,149.82c1.7-.04,3.12,1.3,3.16,3,.04,1.7-1.3,3.11-3,3.16-1.7.04-3.12-1.3-3.16-3-.04-1.7,1.3-3.11,3-3.16"/><path class="d" d="m31.78,161.65c1.69-.21,3.23.99,3.44,2.68.21,1.69-.99,3.23-2.68,3.44-1.69.21-3.23-.99-3.44-2.68-.21-1.69.99-3.23,2.68-3.44"/><path class="d" d="m33.53,173.36c1.66-.38,3.31.66,3.69,2.32.38,1.66-.66,3.31-2.32,3.69-1.66.38-3.31-.66-3.69-2.32-.38-1.66.66-3.31,2.32-3.69"/><path class="d" d="m36.43,184.84c1.61-.54,3.36.33,3.9,1.94.54,1.61-.33,3.36-1.94,3.9-1.61.54-3.36-.33-3.9-1.94-.54-1.61.33-3.36,1.94-3.9"/><path class="d" d="m40.46,195.97c1.55-.7,3.38,0,4.08,1.54.7,1.55,0,3.38-1.54,4.08-1.55.7-3.38,0-4.08-1.54-.7-1.55,0-3.38,1.54-4.08"/><path class="d" d="m45.59,206.65c1.47-.85,3.36-.34,4.21,1.13.85,1.47.35,3.36-1.13,4.21-1.47.85-3.36.35-4.21-1.13-.85-1.48-.35-3.36,1.13-4.21"/><path class="d" d="m51.75,216.77c1.38-.99,3.31-.68,4.3.7.99,1.38.68,3.31-.7,4.3-1.38.99-3.31.68-4.3-.7-.99-1.38-.68-3.31.7-4.3"/><path class="d" d="m58.88,226.22c1.28-1.13,3.22-1.01,4.35.27,1.13,1.28,1,3.22-.27,4.35-1.28,1.13-3.22,1.01-4.35-.27-1.13-1.28-1.01-3.22.27-4.35"/><path class="d" d="m66.92,234.91c1.16-1.25,3.11-1.32,4.36-.16,1.25,1.16,1.32,3.11.16,4.36-1.16,1.25-3.11,1.32-4.36.16-1.25-1.16-1.32-3.11-.16-4.36"/><path class="d" d="m75.79,242.76c1.03-1.36,2.96-1.62,4.32-.59,1.36,1.03,1.62,2.96.6,4.32-1.03,1.36-2.96,1.62-4.32.59-1.36-1.03-1.62-2.96-.6-4.32"/><path class="d" d="m85.39,249.69c.89-1.45,2.79-1.91,4.24-1.02,1.45.89,1.91,2.79,1.02,4.24-.89,1.45-2.79,1.91-4.24,1.02-1.45-.89-1.91-2.79-1.02-4.24"/><path class="d" d="m95.64,255.63c.74-1.53,2.58-2.18,4.12-1.44,1.53.74,2.18,2.58,1.44,4.12-.74,1.53-2.58,2.18-4.11,1.44-1.53-.74-2.18-2.58-1.44-4.11"/><path class="d" d="m106.42,260.51c.58-1.6,2.35-2.42,3.95-1.84,1.6.58,2.42,2.35,1.84,3.95-.58,1.6-2.35,2.42-3.95,1.84-1.6-.58-2.42-2.35-1.84-3.95"/><path class="d" d="m117.64,264.3c.42-1.65,2.1-2.65,3.75-2.23,1.65.42,2.65,2.1,2.23,3.75-.42,1.65-2.1,2.65-3.75,2.23s-2.65-2.1-2.23-3.75"/><path class="d" d="m129.18,266.96c.25-1.68,1.82-2.84,3.51-2.59,1.68.25,2.84,1.82,2.59,3.51-.25,1.68-1.83,2.84-3.51,2.59-1.68-.26-2.84-1.83-2.59-3.51"/><path class="d" d="m140.93,268.45c.08-1.7,1.53-3.01,3.23-2.92,1.7.09,3.01,1.53,2.92,3.23-.09,1.7-1.53,3.01-3.23,2.92-1.7-.08-3.01-1.53-2.92-3.23"/><path class="d" d="m152.77,268.76c-.08-1.7,1.22-3.15,2.92-3.23,1.7-.08,3.15,1.23,3.23,2.93.08,1.7-1.22,3.15-2.93,3.23-1.7.08-3.15-1.22-3.23-2.92"/><path class="d" d="m164.58,267.9c-.25-1.68.91-3.25,2.59-3.51,1.68-.25,3.25.9,3.51,2.59.25,1.68-.91,3.25-2.59,3.51-1.68.25-3.25-.91-3.51-2.59"/><path class="d" d="m176.25,265.86c-.42-1.65.58-3.33,2.23-3.75,1.65-.42,3.33.58,3.75,2.23.42,1.65-.58,3.33-2.23,3.75s-3.33-.58-3.75-2.23"/><path class="d" d="m187.65,262.67c-.58-1.6.24-3.37,1.84-3.95,1.6-.58,3.37.24,3.95,1.84.58,1.6-.24,3.37-1.84,3.95-1.6.58-3.37-.24-3.95-1.84"/><path class="d" d="m198.68,258.36c-.74-1.53-.09-3.38,1.44-4.11,1.53-.74,3.38-.09,4.12,1.44s.09,3.38-1.44,4.11c-1.53.74-3.38.09-4.11-1.44"/><path class="d" d="m209.23,252.98c-.89-1.45-.43-3.35,1.02-4.24,1.45-.89,3.35-.43,4.24,1.02.89,1.45.43,3.35-1.02,4.24-1.45.89-3.35.43-4.24-1.02"/><path class="d" d="m219.19,246.57c-1.03-1.36-.76-3.29.6-4.32,1.36-1.03,3.29-.76,4.32.6,1.03,1.36.76,3.29-.6,4.32-1.36,1.03-3.29.76-4.32-.6"/><path class="d" d="m228.46,239.2c-1.16-1.25-1.08-3.2.16-4.36,1.25-1.16,3.2-1.09,4.36.16,1.16,1.25,1.08,3.2-.16,4.36-1.25,1.16-3.2,1.09-4.36-.16"/><path class="d" d="m236.95,230.95c-1.28-1.13-1.4-3.07-.27-4.35,1.13-1.28,3.08-1.4,4.35-.27,1.28,1.13,1.4,3.08.27,4.35-1.13,1.28-3.07,1.4-4.35.27"/><path class="d" d="m244.58,221.89c-1.38-.99-1.7-2.92-.7-4.3.99-1.38,2.92-1.7,4.3-.7,1.38.99,1.7,2.92.7,4.3-.99,1.38-2.92,1.7-4.3.7"/><path class="d" d="m251.26,212.11c-1.47-.85-1.98-2.74-1.13-4.21s2.74-1.98,4.21-1.13,1.98,2.74,1.13,4.21-2.74,1.98-4.21,1.13"/><path class="d" d="m256.94,201.72c-1.55-.7-2.24-2.53-1.54-4.08.7-1.55,2.53-2.24,4.08-1.54,1.55.7,2.24,2.52,1.54,4.08-.7,1.55-2.53,2.24-4.08,1.54"/><path class="d" d="m261.56,190.82c-1.61-.54-2.48-2.29-1.94-3.9.54-1.61,2.29-2.48,3.91-1.94,1.61.54,2.48,2.29,1.94,3.9-.54,1.61-2.29,2.48-3.9,1.94"/><path class="d" d="m265.07,179.51c-1.66-.38-2.7-2.03-2.32-3.69.38-1.66,2.03-2.7,3.69-2.32,1.66.38,2.7,2.03,2.32,3.69-.38,1.66-2.03,2.7-3.69,2.32"/><path class="d" d="m267.44,167.91c-1.69-.21-2.89-1.75-2.67-3.44s1.75-2.89,3.44-2.67c1.69.21,2.89,1.75,2.67,3.44-.21,1.69-1.75,2.89-3.44,2.67"/><path class="d" d="m268.64,156.13c-1.7-.04-3.05-1.46-3-3.16.04-1.7,1.46-3.05,3.16-3,1.7.04,3.05,1.46,3,3.16-.04,1.7-1.46,3.05-3.16,3"/><path class="d" d="m268.66,144.28c-1.7.13-3.18-1.15-3.3-2.84-.13-1.7,1.15-3.18,2.84-3.3,1.7-.13,3.18,1.15,3.3,2.84.13,1.7-1.15,3.18-2.84,3.3"/><path class="d" d="m267.5,132.5c-1.68.29-3.27-.82-3.57-2.5-.3-1.68.82-3.27,2.5-3.57,1.68-.29,3.27.82,3.57,2.5.29,1.68-.82,3.27-2.5,3.57"/><path class="d" d="m265.17,120.89c-1.64.46-3.34-.49-3.8-2.13-.46-1.64.5-3.34,2.13-3.8,1.64-.46,3.34.49,3.8,2.13.46,1.64-.49,3.34-2.13,3.8"/><path class="d" d="m261.7,109.56c-1.58.62-3.37-.16-3.99-1.74-.62-1.59.16-3.37,1.74-3.99,1.58-.62,3.37.16,3.99,1.74.62,1.58-.16,3.37-1.74,3.99"/><path class="d" d="m257.12,98.64c-1.52.78-3.37.18-4.15-1.34-.78-1.51-.18-3.37,1.34-4.15s3.37-.18,4.15,1.34c.78,1.52.18,3.37-1.34,4.15"/><path class="d" d="m251.47,88.23c-1.43.92-3.34.51-4.26-.92-.92-1.43-.51-3.34.92-4.26,1.43-.92,3.34-.51,4.26.92.92,1.43.51,3.34-.92,4.26"/><path class="d" d="m244.82,78.44c-1.33,1.06-3.27.84-4.33-.49-1.06-1.33-.84-3.27.49-4.33,1.33-1.06,3.27-.84,4.33.49,1.06,1.33.84,3.27-.49,4.33"/><path class="d" d="m237.22,69.35c-1.22,1.19-3.17,1.16-4.36-.06-1.19-1.22-1.16-3.17.05-4.36,1.22-1.19,3.17-1.16,4.36.06,1.19,1.22,1.16,3.17-.06,4.36"/><path class="d" d="m228.76,61.07c-1.09,1.3-3.04,1.47-4.34.38-1.3-1.09-1.47-3.04-.38-4.34,1.09-1.3,3.04-1.47,4.34-.38,1.3,1.09,1.47,3.04.38,4.34"/><path class="d" d="m219.52,53.67c-.96,1.41-2.88,1.77-4.28.81-1.41-.96-1.77-2.88-.81-4.28s2.88-1.77,4.28-.81,1.77,2.88.81,4.28"/><path class="d" d="m209.58,47.23c-.81,1.49-2.69,2.05-4.18,1.23-1.49-.81-2.05-2.69-1.23-4.18.81-1.49,2.69-2.05,4.18-1.23s2.05,2.69,1.23,4.18"/><path class="d" d="m199.05,41.81c-.66,1.57-2.47,2.3-4.04,1.64-1.57-.66-2.3-2.47-1.64-4.04.66-1.57,2.47-2.3,4.04-1.64s2.3,2.47,1.64,4.04"/><path class="d" d="m188.03,37.46c-.5,1.63-2.23,2.54-3.85,2.04-1.63-.5-2.54-2.23-2.04-3.85.5-1.63,2.23-2.54,3.85-2.04s2.54,2.23,2.04,3.85"/><path class="d" d="m176.64,34.23c-.34,1.67-1.96,2.75-3.63,2.41-1.67-.34-2.75-1.96-2.41-3.63.34-1.67,1.96-2.75,3.63-2.41,1.67.34,2.75,1.96,2.41,3.63"/><path class="d" d="m164.98,32.16c-.17,1.69-1.68,2.93-3.38,2.76-1.69-.17-2.93-1.68-2.76-3.38.17-1.69,1.68-2.93,3.38-2.76s2.93,1.68,2.76,3.38"/><path class="g" d="m75.68,100.94l-.1.14c1.01.78,1.72,1.58,2.11,2.47l-3.89,3.56-.12-.08c-.39-1-1.08-2.01-2.26-2.87l-10.95-7.99,3.01-4.13,8.95,6.54c2.43-.03,4.4-1.06,5.5-2.56,1.39-1.9.82-3.78-1.83-5.72l-7.41-5.41,3.01-4.13,8.16,5.95c4.13,3.01,5.02,7.15,2.39,10.76-1.62,2.23-3.87,3.39-6.58,3.46"/><path class="g" d="m77.77,74.55l3.98-3.21,3.39,4.2,1.24-1c2.48-2.75,3.01-5.33,2.42-9.3l4.75-2.52.04.05c.68,2.36.56,4.62-.78,7.64,2.88-1.61,5.07-.88,7.04,1.56l3.88,4.81-3.98,3.21-3.59-4.45c-1.15-1.42-2.58-1.58-4-.43l-4.47,3.61,5.37,6.67-3.98,3.21-11.31-14.03Z"/><path class="g" d="m108.7,62.16c-.88-1.8-2.36-2.34-4.48-1.31-1.23.6-2.26,1.52-2.94,2.85l-3.21-2.41c.99-2,2.59-3.49,4.92-4.62,4.59-2.23,8.15-1.16,10.15,2.94l4.95,10.18-4.59,2.23-4.8-9.86Z"/><path class="g" d="m120.09,66.55l1.79-3.93c1.66.58,3.52.69,5.07.32,3.02-.74,4.4-3.14,3.67-6.13-.73-2.99-3.07-4.48-6.08-3.74-1.55.38-3.14,1.33-4.35,2.62l-3.4-2.66c1.53-1.93,3.88-3.43,6.87-4.16,6.01-1.47,10.68,1.15,12.04,6.71,1.36,5.56-1.58,10.04-7.58,11.51-2.99.73-5.77.48-8.02-.52"/><rect class="g" x="118.01" y="41.68" width="15" height="3.6" transform="translate(-4.55 16.51) rotate(-7.39)"/><path class="g" d="m141.5,45.74l4.93.08-.05,2.93h.17c1.69-2.06,3.97-3.21,6.73-3.17,4.47.07,7.35,3.28,7.26,8.39l-.16,10.1-5.11-.08.15-9.17c.05-3.28-1.23-4.87-3.58-4.91-1.86-.03-3.88.92-5.36,2.84l-.18,11.08-5.11-.08.29-18.02Z"/><path class="g" d="m186.97,52.22l-3.22,11.54c-1.12,4-4.97,5.3-10.85,3.66-5.79-1.61-8.48-4.38-7.53-7.77.41-1.45,1.33-2.4,2.68-2.81-1.14-1.31-1.48-2.91-.96-4.76.95-3.41,3.98-4.55,8.57-3.27,1.26.35,2.31.8,3.22,1.29l-.98,3.52c-.74-.39-1.47-.68-2.25-.9-2.04-.57-3.29-.32-3.59.77-.3,1.09.61,2.04,2.65,2.61.75.21,1.56.35,2.39.4l-.96,3.44c-1.01-.04-2.18-.19-3.52-.56-.36-.1-.73-.2-1.08-.33-.49.25-.8.59-.91,1.01-.41,1.45.79,2.66,3.39,3.39,2.51.7,4.46.22,4.93-1.49l3.1-11.13,4.92,1.37Z"/><path class="g" d="m197.47,65.34c.96-1.76.54-3.28-1.53-4.41-1.2-.66-2.55-.96-4.02-.75l.11-4.01c2.21-.35,4.35.09,6.61,1.33,4.48,2.45,5.66,5.98,3.48,9.97l-5.43,9.93-4.48-2.45,5.26-9.62Z"/><path class="g" d="m221.35,82.3l-7.87,8.92-3.83-3.38,4.63-5.25c-.69-1.11-1.58-2.16-2.62-3.08-1.98-1.75-3.61-2.22-4.48-1.24-.79.89-.29,2.22,1.32,3.64.59.52,1.19.93,1.93,1.32l-2.55,2.9c-1.06-.55-2.03-1.21-2.99-2.05-3.61-3.19-4.29-6.49-1.89-9.21,2.55-2.9,6.28-2.47,10.46,1.21,1.35,1.19,2.46,2.48,3.24,3.78l.33-.37c1.3-1.48.62-3.59-1.75-5.69-1.57-1.38-3.31-2.26-4.98-2.73l1.3-3.76c2.26.56,4.77,1.96,7.03,3.96,4.55,4.01,5.47,7.92,2.73,11.03"/><path class="g" d="m224.81,67.05c.45-.41.99-.77,1.66-1.06l2.95,3.31c-.29.11-.55.3-.79.51-.74.66-.7,1.52.13,2.45l3.67,4.12-2.68,2.39-4.77-5.35c-2.09-2.34-2.27-4.51-.17-6.38"/><path class="g" d="m241.41,99.48l-9.94,6.7c-3.44,2.32-7.23.81-10.63-4.24-3.36-4.98-3.61-8.83-.7-10.8,1.25-.84,2.57-.96,3.86-.4-.02-1.74.76-3.18,2.35-4.25,2.94-1.98,5.98-.89,8.65,3.06.73,1.08,1.24,2.1,1.62,3.07l-3.03,2.05c-.31-.77-.68-1.47-1.13-2.14-1.19-1.76-2.3-2.37-3.24-1.74-.94.63-.86,1.94.32,3.7.44.65.97,1.28,1.56,1.85l-2.96,2c-.74-.69-1.54-1.55-2.32-2.71-.21-.31-.42-.63-.61-.96-.54-.13-.99-.07-1.35.18-1.25.84-1.12,2.54.39,4.78,1.46,2.17,3.25,3.06,4.72,2.07l9.58-6.46,2.86,4.23Z"/><rect class="g" x="127.4" y="93.49" width="2.09" height="111.83"/><rect class="g" x="149.1" y="89.31" width="2.09" height="121.01"/><rect class="g" x="170.79" y="93.49" width="2.1" height="111.83"/><rect class="g" x="192.5" y="101" width="2.08" height="96.81"/><rect class="g" x="105.7" y="101" width="2.1" height="96.81"/><rect class="g" x="101.95" y="105.59" width="96.81" height="2.08"/><rect class="g" x="94.44" y="127.29" width="112.25" height="2.09"/><rect class="g" x="88.17" y="148.99" width="123.52" height="2.08"/><rect class="g" x="94.44" y="170.68" width="112.25" height="2.08"/><rect class="g" x="101.95" y="192.38" width="96.81" height="2.09"/><rect class="f" x="145.57" y="100.35" width="9.07" height="98.58"/><rect class="f" x="99.87" y="145.1" width="99.83" height="9.07"/><path class="f" d="m99.79,131.17v9.07s70.11,5.74,86.98-34.76l-8.11-4.05s-9.81,34.64-78.87,29.74"/><path class="d" d="m67.52,181.64l-.08.02c-1.51-.33-2.89-1.14-4.17-2.54-.75.98-1.89,1.61-3.27,1.93l-10.85,2.55-1.17-4.97,10-2.35c2.43-.57,3.35-2.49,2.65-5.45-.69-2.94-2.38-4.27-4.81-3.7l-2.6.61.04.17c1.89.45,3.02,1.68,3.51,3.8.13.54.17.97.13,1.43l-4.27,1c-.02-.47-.09-.87-.19-1.3-.66-2.82-1.98-3.98-4.46-3.87l-2.18.51-1.17-4.97,10.85-2.55c4.52-1.06,7.87,1.76,9.31,7.89.51,2.15.62,4.03.22,5.52.79.71,1.61,1.14,2.51,1.41l-.02,4.86Z"/><path class="d" d="m53.64,191.18l3.99.14c.01,1.93.53,4.32,1.76,6.63,1.04,1.95,2.17,3.02,3.07,2.54.9-.48.67-2.07-.36-5.73-1.32-4.63-.32-7.07,2.01-8.31,2.97-1.59,6.16-.16,8.51,4.24,1.41,2.64,2.22,5.53,2.33,8.13l-4-.04c.02-1.88-.38-3.98-1.43-5.95-.85-1.59-1.86-2.63-2.71-2.17-.92.49-.71,2.12.34,5.81,1.33,4.65.29,7.15-2.09,8.42-3.28,1.75-6.26-.15-8.88-5.06-1.57-2.95-2.42-5.95-2.54-8.64"/><polygon class="d" points="80.49 188.66 82.7 191.89 78 195.1 69.55 182.69 72.53 180.66 78.77 189.83 80.49 188.66"/><path class="d" d="m70.64,208.08l7.51-6.75,3.41,3.8-6.91,6.21c-2.44,2.19-2.81,4.13-1.24,5.87,1.24,1.38,3.32,2.21,5.73,1.99l8.33-7.49,3.42,3.8-10.08,9.06c-1.08.97-1.67,2.05-1.95,3.08l-.11.1-4.23-3.14c.3-.93.92-1.8,1.85-2.68l-.12-.13c-2.66.17-5.06-.72-6.9-2.77-2.99-3.32-2.52-7.53,1.28-10.95"/><path class="d" d="m106.64,234.65l-6.08,9.34-4.28-2.78,5.6-8.61c1.36-2.09.68-4.13-1.85-5.78-2.53-1.65-4.67-1.44-6.03.65l-1.46,2.24.15.1c1.68-.98,3.34-.88,5.16.31.46.3.8.59,1.08.95l-2.39,3.67c-.34-.33-.67-.57-1.03-.81-2.43-1.58-4.18-1.51-5.9.28l-1.22,1.87-4.28-2.78,6.08-9.34c2.53-3.89,6.9-4.17,12.18-.73,5.28,3.43,6.8,7.54,4.27,11.43"/><path class="d" d="m107.65,245.75l3.02-2.61c1.33,1.41,3.33,2.81,5.8,3.66,2.08.72,3.64.73,3.98-.23s-.92-1.97-4.16-3.95c-4.12-2.49-5.04-4.96-4.18-7.46,1.1-3.18,4.4-4.32,9.12-2.69,2.83.97,5.39,2.53,7.25,4.37l-2.96,2.7c-1.27-1.39-2.98-2.66-5.1-3.38-1.7-.59-3.15-.66-3.46.25-.34.99.93,2.04,4.2,4.03,4.14,2.5,5.08,5.04,4.2,7.59-1.21,3.51-4.69,4.16-9.96,2.34-3.16-1.09-5.82-2.71-7.75-4.6"/><rect class="d" x="119.45" y="221.12" width="3.6" height="15" transform="translate(-128.56 296.22) rotate(-77.2)"/><path class="d" d="m131.63,246.55l.89-10.06,5.09.45-.82,9.25c-.29,3.27.76,4.93,3.1,5.14,1.85.16,3.93-.64,5.55-2.45l.98-11.16,5.09.45-1.19,13.5c-.13,1.45.18,2.64.67,3.59v.14s-5.25.59-5.25.59c-.42-.88-.56-1.94-.48-3.22h-.17c-1.83,1.92-4.19,2.91-6.94,2.67-4.45-.39-6.98-3.79-6.53-8.88"/><path class="d" d="m155.72,238.02l4.86-.84.5,2.89.17-.03c1.28-2.34,3.3-3.9,6.02-4.37,4.4-.76,7.83,1.86,8.7,6.89l1.72,9.95-5.03.87-1.56-9.04c-.56-3.23-2.11-4.55-4.43-4.15-1.83.32-3.64,1.63-4.73,3.79l1.89,10.93-5.03.87-3.07-17.76Z"/><path class="d" d="m184.07,249l.44-3.97c1.93.13,4.35-.21,6.74-1.26,2.02-.89,3.17-1.94,2.76-2.87-.41-.93-2.01-.82-5.74-.07-4.71.97-7.07-.21-8.14-2.63-1.36-3.08.3-6.16,4.86-8.17,2.74-1.21,5.68-1.81,8.28-1.72l-.34,3.99c-1.88-.16-3.99.08-6.04.98-1.65.73-2.76,1.66-2.37,2.54.42.96,2.06.87,5.82.1,4.74-.98,7.15.24,8.24,2.71,1.5,3.4-.61,6.23-5.71,8.48-3.05,1.35-6.11,1.97-8.81,1.89"/><path class="d" d="m204.51,238.68l.12-4.32c1.76-.12,3.51-.73,4.79-1.68,2.49-1.85,2.83-4.6,1-7.07-1.83-2.47-4.57-2.93-7.06-1.08-1.28.95-2.37,2.45-2.99,4.1l-4.17-1.13c.66-2.37,2.24-4.67,4.71-6.51,4.96-3.69,10.29-3.09,13.7,1.49,3.41,4.59,2.45,9.86-2.51,13.55-2.47,1.84-5.13,2.69-7.59,2.64"/><rect class="d" x="191.28" y="216.23" width="15.01" height="3.6" transform="translate(-95.2 193.04) rotate(-42.78)"/><path class="d" d="m220.78,221.01l-8.1-7.65c-1.71-1.62-3.6-2.32-4.89-.95l-.56.59-2.61-2.47,9.19-9.72,2.53,2.39-5.14,5.44c1.64-.97,3.79-.13,5.18,1.19l7.36,6.96c1.16,1.1,2.04,1.05,2.9.14.24-.25.48-.59.69-1.11l3.02,2.85c-.43.87-.98,1.63-1.68,2.37-2.53,2.68-5.16,2.55-7.88-.03"/><path class="d" d="m232.38,214.66l-1.78-3.57c1.7-.93,3.55-2.53,4.99-4.71,1.22-1.84,1.62-3.35.77-3.91-.85-.56-2.14.4-4.86,3.05-3.44,3.36-6.06,3.65-8.27,2.19-2.81-1.86-3.08-5.34-.33-9.5,1.65-2.5,3.8-4.59,6.04-5.93l1.87,3.53c-1.66.88-3.32,2.23-4.55,4.09-.99,1.5-1.42,2.89-.62,3.42.87.58,2.2-.39,4.94-3.06,3.46-3.39,6.14-3.67,8.39-2.18,3.1,2.05,2.86,5.57-.21,10.22-1.84,2.79-4.08,4.96-6.39,6.35"/><path class="d" d="m250.02,174.57l-.05.17c1.22.38,2.17.85,2.85,1.56l-2.41,4.69-.14-.04c-.71-.8-1.71-1.51-3.11-1.91l-6.28-1.78c-1.51-.43-2.81.11-3.53,1.17l.85,2.2-.29,1.03-1.87,1.4c.24,2.12,1.9,3.74,4.49,4.47,2.51.71,4.76-.4,5.58-3.31.18-.64.28-1.31.26-1.98l3.99,1.13c-.02,1.14-.2,2.3-.51,3.39-1.49,5.25-5.33,7.33-10.75,5.79-5.19-1.47-7.75-5.24-7.14-10.59l2.52-1.76.03-.08-1.19-2.93c1.8-4.32,4.92-6,8.83-4.89l4.39,1.24c1.93-.75,3.2-2.14,3.63-3.68.55-1.93-.46-3.27-3.17-4.03l-9.44-2.67,1.39-4.91,10.39,2.94c4.47,1.26,6.54,4.5,5.43,8.41-.68,2.4-2.22,4.11-4.75,4.96"/><path class="g" d="m148.04,79.28h-.07s-4.22,0-4.22,0l4.2-2.71.08.13-3.77,2.43h3.71s1.59.06,2.42-1.02c.62-.8,1.14-1.34,2.66-1.46v.15c-1.45.12-1.94.63-2.54,1.4-.79,1.02-2.15,1.09-2.48,1.09"/><path class="g" d="m147.98,76.56l4.23.07c-1.02-.27-1.32-.69-1.64-1.12-.06-.08-.12-.17-.19-.25-.56-.7-1.37-1.08-2.4-1.13l-3.72-.15,3.71,2.58Zm5.08.24l-5.13-.08h-.02s-4.16-2.9-4.16-2.9l4.24.18c1.08.05,1.93.44,2.52,1.18.07.08.13.17.19.25.38.53.72.98,2.37,1.22v.15Z"/><path class="g" d="m136.76,80.25l3.91-3.11.1.12-3.51,2.79,3.69-.36s1.59-.11,2.31-1.26c.54-.86,1-1.44,2.5-1.72l.03.15c-1.44.26-1.88.82-2.4,1.65-.76,1.22-2.36,1.33-2.43,1.33l-4.2.41Z"/><path class="g" d="m136.75,74.93l3.95,2.2,4.22-.35c-1.04-.17-1.38-.55-1.74-.95-.07-.08-.14-.15-.21-.23-.63-.64-1.47-.94-2.5-.88l-3.71.22Zm3.92,2.35h-.02s-4.43-2.47-4.43-2.47l4.24-.25c1.08-.06,1.97.25,2.62.93.08.08.15.16.21.24.43.49.81.91,2.48.98v.15s-5.11.43-5.11.43Z"/><path class="g" d="m129.9,81.91l3.58-3.49.11.11-3.21,3.13,3.64-.73s1.57-.26,2.17-1.49c.45-.91.85-1.54,2.32-1.96l.04.15c-1.41.4-1.79,1.01-2.22,1.88-.64,1.29-2.22,1.56-2.28,1.57l-4.14.83Z"/><path class="g" d="m129.36,76.62l4.15,1.79,4.16-.77c-1.06-.06-1.43-.41-1.83-.77-.07-.07-.15-.14-.23-.21-.69-.58-1.56-.79-2.58-.63l-3.67.58Zm4.13,1.95l-4.67-2.02,4.19-.67c1.07-.17,1.98.05,2.7.66.08.07.16.14.24.21.48.44.89.82,2.57.73l.02.15-5.04.93Z"/><path class="g" d="m123.24,84.25l3.22-3.83.12.1-2.88,3.43,3.55-1.09s1.54-.42,2.02-1.69c.35-.95.69-1.61,2.11-2.18l.06.14c-1.36.54-1.68,1.18-2.02,2.09-.51,1.35-2.05,1.77-2.12,1.79l-4.04,1.24Z"/><path class="g" d="m122.18,79.04l4.31,1.37,4.07-1.18c-1.06.04-1.47-.27-1.89-.59-.08-.06-.16-.12-.25-.18-.74-.51-1.63-.63-2.63-.37l-3.6.95Zm4.31,1.53l-4.85-1.54,4.1-1.08c1.05-.27,1.97-.14,2.75.39.09.06.17.13.26.19.52.39.97.73,2.63.47l.03.15-4.92,1.43Z"/><path class="g" d="m116.85,87.23l2.82-4.13.13.09-2.53,3.7,3.42-1.43s1.49-.57,1.84-1.89c.26-.98.53-1.68,1.88-2.38l.07.14c-1.3.67-1.56,1.34-1.81,2.28-.37,1.39-1.86,1.96-1.93,1.99l-3.89,1.63Z"/><path class="g" d="m115.28,82.16l4.42.94,3.93-1.58c-1.05.15-1.49-.12-1.94-.4-.09-.05-.18-.11-.27-.16-.79-.43-1.68-.47-2.65-.1l-3.48,1.3Zm4.44,1.09h-.02s-4.96-1.05-4.96-1.05l3.97-1.48c1.02-.38,1.95-.34,2.78.11.1.05.19.11.27.16.56.34,1.04.63,2.66.21l.05.14-4.76,1.91Z"/><path class="g" d="m110.79,90.84l2.39-4.39.13.07-2.15,3.93,3.26-1.77s1.42-.72,1.64-2.06c.16-1,.36-1.72,1.64-2.55l.08.13c-1.22.8-1.42,1.49-1.57,2.45-.23,1.42-1.66,2.14-1.72,2.17l-3.71,2.01Z"/><path class="g" d="m108.72,85.95l4.49.49,3.75-1.96c-1.03.25-1.49.03-1.97-.2-.09-.04-.19-.09-.28-.13-.83-.35-1.72-.3-2.65.16l-3.34,1.64Zm4.52.65h-.02s-5.04-.55-5.04-.55l3.81-1.87c.97-.48,1.91-.53,2.78-.16.1.04.2.09.29.13.59.28,1.1.52,2.67-.06l.06.14-4.54,2.38Z"/><path class="g" d="m105.12,95.04l1.95-4.6.14.06-1.75,4.13,3.07-2.08s1.35-.85,1.43-2.21c.06-1.01.19-1.75,1.38-2.7l.1.12c-1.14.92-1.26,1.62-1.32,2.59-.08,1.44-1.44,2.29-1.49,2.33l-3.5,2.37Z"/><path class="g" d="m102.57,90.37l4.52.04,3.54-2.33c-1,.35-1.48.18-1.98,0-.1-.03-.19-.07-.29-.1-.86-.27-1.74-.12-2.62.43l-3.16,1.96Zm4.57.19l-5.09-.05,3.6-2.24c.92-.57,1.84-.72,2.75-.44.11.03.2.07.3.1.61.22,1.14.41,2.65-.32l.08.13-4.28,2.82Z"/><path class="g" d="m99.89,99.77l1.48-4.77.15.04-1.33,4.28,2.85-2.38s1.25-.98,1.2-2.34c-.04-1.01.01-1.75,1.1-2.83l.11.11c-1.04,1.03-1.09,1.74-1.05,2.71.06,1.44-1.2,2.43-1.26,2.47l-3.24,2.71Z"/><path class="g" d="m101.82,92.37c-.68,0-1.35.25-1.99.74l-2.95,2.27,4.5-.41,3.29-2.67c-.96.45-1.45.32-1.97.19-.1-.03-.2-.05-.3-.07-.19-.04-.39-.06-.58-.06m-5.44,3.21l3.36-2.59c.86-.66,1.76-.9,2.69-.71.11.02.21.05.31.07.63.16,1.18.3,2.6-.59l.09.12-3.98,3.23-5.07.46Z"/><path class="g" d="m95.16,105.01l1-4.9.15.03-.89,4.39,2.6-2.65s1.15-1.1.96-2.45c-.14-1-.16-1.75.81-2.92l.12.1c-.93,1.13-.92,1.84-.78,2.8.2,1.43-.96,2.53-1.01,2.58l-2.96,3.02Z"/><path class="g" d="m96.63,97.44c-.78,0-1.52.32-2.18.95l-2.71,2.55,4.44-.85,3.01-2.98c-.91.54-1.42.47-1.94.39-.1-.02-.2-.03-.31-.04-.1-.01-.2-.02-.3-.02m-5.38,3.75l3.09-2.91c.79-.74,1.66-1.07,2.6-.97.11.01.21.03.32.04.64.1,1.2.18,2.53-.84l.1.11-3.64,3.61h-.02s-4.98.96-4.98.96Z"/><path class="g" d="m90.97,110.69l.5-4.97.15.02-.45,4.46,2.32-2.9s1.04-1.21.71-2.53c-.24-.98-.33-1.72.52-2.99l.13.08c-.82,1.21-.73,1.92-.5,2.87.34,1.4-.7,2.62-.74,2.67l-2.64,3.3Z"/><path class="g" d="m91.98,102.99c-.9,0-1.7.4-2.37,1.18l-2.44,2.81,4.33-1.29,2.69-3.26c-.85.63-1.36.61-1.89.58-.1,0-.21-.01-.32,0m-5.27,4.28l2.78-3.2c.71-.82,1.54-1.23,2.49-1.23h0c.11,0,.21,0,.32,0,.65.03,1.22.06,2.44-1.09l.11.1-3.27,3.96-4.88,1.45Z"/><path class="g" d="m87.37,116.75v-5h.16v4.48s2.02-3.11,2.02-3.11c.01-.02.91-1.31.46-2.59-.34-.96-.5-1.68.22-3.03l.13.07c-.69,1.29-.53,1.99-.21,2.9.48,1.36-.43,2.67-.47,2.73l-2.3,3.54Z"/><path class="g" d="m87.61,109c-.89.09-1.65.56-2.25,1.41l-2.15,3.04,4.18-1.72,2.36-3.51c-.78.71-1.29.74-1.83.77-.1,0-.21.01-.31.02m-4.83,4.78l2.45-3.46c.63-.88,1.42-1.38,2.36-1.47.11-.01.21-.02.32-.02.65-.03,1.22-.06,2.31-1.33l.12.09-2.85,4.26h-.02s-4.69,1.93-4.69,1.93Z"/><path class="g" d="m84.39,123.15l-.49-4.97.15-.02.44,4.46,1.7-3.3s.77-1.39.2-2.62c-.43-.92-.67-1.62-.08-3.03l.14.06c-.56,1.35-.33,2.03.08,2.91.61,1.3-.17,2.7-.2,2.76l-1.94,3.75Z"/><path class="g" d="m83.86,115.41c-.88.18-1.59.72-2.1,1.62l-1.83,3.24,3.99-2.12,1.99-3.73c-.71.78-1.21.86-1.74.94-.1.01-.2.03-.31.05m-4.33,5.24l2.09-3.69c.53-.94,1.28-1.51,2.2-1.7.11-.02.21-.04.31-.05.64-.1,1.2-.19,2.17-1.55l.13.08-2.42,4.52h-.02s-4.47,2.39-4.47,2.39Z"/><path class="g" d="m82.06,129.81l-.98-4.9.15-.03.88,4.4,1.37-3.45s.63-1.46-.07-2.63c-.52-.87-.83-1.55-.39-3.01l.15.04c-.42,1.4-.13,2.05.37,2.89.74,1.24.1,2.71.08,2.77l-1.55,3.93Z"/><path class="g" d="m80.76,122.16c-.86.26-1.51.88-1.93,1.83l-1.5,3.4,3.76-2.51,1.61-3.91c-.63.85-1.12.98-1.64,1.11-.1.03-.2.05-.3.08m-3.78,5.64l1.72-3.88c.44-.99,1.12-1.63,2.02-1.91.11-.03.21-.06.31-.08.63-.16,1.18-.3,2.01-1.76l.14.07-1.96,4.74h-.02s-4.21,2.83-4.21,2.83Z"/><path class="g" d="m80.41,136.67l-1.46-4.78.15-.05,1.31,4.29,1.01-3.57s.48-1.52-.33-2.61c-.6-.81-.98-1.46-.68-2.96l.15.03c-.28,1.44.08,2.05.66,2.84.86,1.16.37,2.68.35,2.75l-1.16,4.06Z"/><path class="g" d="m80.17,127.8c-.54.91-1.02,1.09-1.52,1.27-.1.03-.19.07-.29.11h0c-.83.35-1.41,1.02-1.74,2.01l-1.16,3.54,3.49-2.87,1.22-4.05Zm-5.02,7.38l1.32-4.03c.34-1.03.95-1.74,1.82-2.1.1-.04.2-.08.3-.11.61-.22,1.14-.42,1.82-1.95l.14.05-1.47,4.91-.02.02-3.91,3.22Z"/><path class="g" d="m79.45,143.66l-1.93-4.61.14-.06,1.73,4.14.66-3.65s.33-1.56-.59-2.57c-.68-.75-1.12-1.36-.97-2.87h.15c-.14,1.47.28,2.05.93,2.77.97,1.07.64,2.63.62,2.7l-.75,4.16Z"/><path class="g" d="m76.66,136.41c-.79.43-1.3,1.16-1.53,2.17l-.8,3.63,3.19-3.2.81-4.16c-.45.96-.91,1.18-1.39,1.42-.09.04-.19.09-.28.14m-2.59,6.28l.91-4.14c.23-1.06.77-1.82,1.6-2.27.1-.05.19-.1.28-.14.59-.29,1.09-.53,1.62-2.12l.15.04-.98,5.03-.02.02-3.57,3.59Z"/><path class="g" d="m79.18,150.71l-2.38-4.39.13-.07,2.14,3.94.29-3.7s.17-1.58-.84-2.49c-.75-.68-1.25-1.24-1.25-2.76h.15c0,1.46.48,2,1.2,2.65,1.07.96.9,2.56.89,2.62l-.33,4.21Z"/><path class="g" d="m75.69,143.78h0c-.74.51-1.18,1.28-1.3,2.31l-.44,3.69,2.85-3.51.39-4.21c-.35,1-.78,1.27-1.24,1.55-.09.05-.17.11-.26.17m-1.95,6.51l.5-4.21c.13-1.07.59-1.89,1.37-2.42.09-.06.18-.12.27-.17.56-.34,1.04-.64,1.4-2.27l.15.03-.47,5.11-3.21,3.95Z"/><path class="g" d="m79.62,157.75l-2.81-4.14.13-.08,2.52,3.71-.08-3.71s.01-1.59-1.08-2.4c-.82-.6-1.36-1.11-1.52-2.62l.15-.02c.15,1.45.68,1.94,1.46,2.52,1.16.85,1.14,2.45,1.14,2.52l.09,4.22Z"/><path class="g" d="m75.46,151.2c-.69.58-1.05,1.39-1.07,2.43l-.07,3.72,2.49-3.77-.03-4.23c-.25,1.03-.65,1.34-1.08,1.66-.08.06-.16.12-.25.19m-1.3,6.67l.08-4.24c.02-1.08.4-1.94,1.12-2.55.08-.07.17-.13.25-.2.52-.4.97-.74,1.17-2.4h.15s.04,5.14.04,5.14l-2.8,4.25Z"/><path class="g" d="m80.76,164.71l-3.21-3.83.12-.1,2.87,3.44-.45-3.68s-.14-1.59-1.31-2.28c-.87-.52-1.47-.97-1.78-2.46l.15-.03c.3,1.43.87,1.86,1.7,2.36,1.24.73,1.38,2.33,1.39,2.39l.51,4.19Z"/><path class="g" d="m77.1,156.63c-.14,1.05-.52,1.4-.91,1.76-.07.07-.15.14-.22.22-.63.64-.9,1.49-.82,2.53l.3,3.71,2.1-4-.45-4.21Zm-1.76,8.74l-.35-4.23c-.09-1.08.2-1.97.86-2.64.08-.08.15-.15.23-.22.48-.45.89-.83.92-2.5h.15s.55,5.09.55,5.09v.02s-2.37,4.49-2.37,4.49Z"/><path class="g" d="m82.59,171.52l-3.57-3.5.11-.11,3.2,3.14-.81-3.62s-.3-1.56-1.54-2.14c-.92-.43-1.56-.82-2.01-2.27l.14-.05c.44,1.4,1.05,1.77,1.93,2.18,1.31.61,1.61,2.18,1.62,2.24l.93,4.12Z"/><path class="g" d="m77.21,165.93c-.56.7-.75,1.57-.57,2.59l.67,3.66,1.69-4.19-.87-4.14c-.04,1.06-.37,1.44-.73,1.84-.07.08-.13.15-.2.24m.05,6.8l-.77-4.17c-.2-1.06,0-1.98.6-2.72.07-.08.14-.16.21-.24.43-.49.8-.91.67-2.58l.15-.02,1.05,5.02-1.91,4.72Z"/><path class="g" d="m85.08,178.12l-3.9-3.12.09-.12,3.5,2.8-1.17-3.52s-.45-1.53-1.74-1.97c-.96-.33-1.63-.66-2.23-2.06l.14-.06c.58,1.35,1.22,1.66,2.14,1.97,1.36.47,1.82,2.01,1.83,2.07l1.33,4.01Z"/><path class="g" d="m79.89,170.93c.07,1.06-.23,1.47-.54,1.91-.06.08-.12.17-.18.26-.49.75-.59,1.64-.3,2.64l1.03,3.57,1.27-4.34-1.28-4.04Zm0,8.92l-1.18-4.08c-.3-1.04-.19-1.97.32-2.76.06-.09.12-.18.18-.26.38-.53.71-.99.41-2.64l.15-.04,1.55,4.89v.02s-1.43,4.86-1.43,4.86Z"/><path class="g" d="m88.22,184.44l-4.19-2.72.08-.13,3.76,2.44-1.51-3.39s-.61-1.47-1.93-1.79c-.98-.24-1.69-.49-2.42-1.83l.13-.07c.71,1.28,1.38,1.53,2.32,1.75,1.4.34,2.01,1.82,2.03,1.88l1.72,3.85Z"/><path class="g" d="m82.34,177.8c.17,1.04-.08,1.49-.35,1.95-.05.09-.1.18-.15.27-.41.8-.43,1.69-.04,2.65l1.38,3.45.83-4.44-1.67-3.89Zm.89,8.87l-1.58-3.94c-.4-1.01-.39-1.94.05-2.78.05-.1.1-.19.16-.28.32-.57.61-1.06.14-2.66l.14-.05,2.03,4.71-.94,5Z"/><path class="g" d="m91.97,190.42l-4.44-2.29.07-.14,3.99,2.05-1.84-3.22s-.75-1.41-2.1-1.59c-1-.14-1.73-.32-2.59-1.58l.12-.09c.83,1.2,1.52,1.38,2.49,1.51,1.43.19,2.18,1.61,2.21,1.67l2.1,3.67Z"/><path class="g" d="m85.11,186.63l.07.03c-.33.84-.26,1.73.22,2.65l1.72,3.3.38-4.5-2.05-3.7c.27,1.02.07,1.49-.15,1.98-.04.09-.08.19-.12.29l-.07-.03Zm2.12,6.51l-1.96-3.76c-.5-.96-.58-1.89-.23-2.77.04-.1.08-.2.13-.29.27-.6.5-1.11-.12-2.67l.14-.07,2.48,4.49v.02s-.43,5.05-.43,5.05Z"/><path class="g" d="m96.3,195.99l-4.65-1.84.06-.14,4.17,1.65-2.15-3.02s-.88-1.33-2.24-1.37c-1.01-.04-1.75-.15-2.74-1.31l.12-.1c.95,1.12,1.65,1.22,2.63,1.26,1.44.05,2.33,1.38,2.36,1.44l2.45,3.44Z"/><path class="g" d="m89.22,190.65c.37.99.21,1.47.04,1.98-.03.1-.07.19-.09.3-.25.86-.08,1.74.48,2.61l2.04,3.11-.06-4.52-2.41-3.48Zm2.63,8.52l-2.33-3.55c-.59-.9-.76-1.83-.51-2.74l.07.02-.07-.02c.03-.11.06-.21.1-.3.21-.62.38-1.15-.39-2.64l.13-.08,2.92,4.22v.02l.07,5.07Z"/><path class="g" d="m101.16,201.1l-4.81-1.37.04-.15,4.31,1.22-2.45-2.79s-1.01-1.23-2.37-1.14c-1.01.06-1.75.03-2.85-1.03l.11-.11c1.05,1.02,1.77,1.05,2.74.99,1.44-.09,2.45,1.14,2.5,1.2l2.78,3.18Z"/><path class="g" d="m93.58,196.49c.47.95.36,1.44.24,1.97-.02.1-.05.2-.06.31-.16.88.09,1.74.74,2.55l2.34,2.89-.51-4.49-2.74-3.22Zm3.47,8.22l-2.67-3.3c-.68-.84-.94-1.74-.77-2.67h.07s-.07,0-.07,0c.02-.11.04-.21.06-.31.14-.64.27-1.19-.65-2.59l.12-.09,3.32,3.91.58,5.06Z"/><path class="g" d="m106.5,205.71l-4.92-.88.03-.15,4.41.79-2.71-2.54s-1.13-1.12-2.47-.9c-1,.17-1.74.2-2.94-.74l.09-.12c1.15.91,1.86.87,2.82.71,1.42-.24,2.56.89,2.6.94l3.08,2.88Z"/><path class="g" d="m98.91,204.12c-.07.9.27,1.73.99,2.46l2.61,2.65-.96-4.42-3.05-2.93c.56.9.5,1.4.43,1.93-.01.1-.02.2-.03.31m3.87,5.59l-2.98-3.02c-.76-.77-1.11-1.64-1.04-2.58,0-.11.02-.21.03-.32.08-.65.15-1.21-.9-2.51l.11-.1,3.69,3.56,1.08,4.97Z"/><path class="g" d="m112.28,209.76l-4.98-.39v-.15s4.48.35,4.48.35l-2.95-2.25s-1.24-1.01-2.55-.65c-.98.26-1.72.37-3-.45l.08-.13c1.23.79,1.94.68,2.88.43,1.39-.37,2.63.64,2.68.68l3.36,2.56Z"/><path class="g" d="m104.56,208.93c.02.9.43,1.69,1.23,2.35l2.87,2.37-1.39-4.3-3.33-2.62c.65.84.64,1.35.63,1.88,0,.1,0,.2,0,.31m4.4,5.18l-3.27-2.71c-.83-.69-1.27-1.52-1.29-2.47,0-.11,0-.21,0-.32.01-.65.03-1.22-1.15-2.41l.1-.11,4.03,3.17v.02s1.57,4.82,1.57,4.82Z"/><path class="g" d="m113.43,213.33v-.15s4.48-.1,4.48-.1l-3.16-1.95s-1.33-.88-2.6-.39c-.95.36-1.67.54-3.03-.15l.07-.13c1.3.66,2,.48,2.91.14,1.35-.51,2.68.37,2.74.41l3.59,2.22-5,.11Z"/><path class="g" d="m110.67,213.16c.11.89.6,1.64,1.46,2.22l3.09,2.07-1.81-4.14-3.57-2.27c.73.77.77,1.28.81,1.81,0,.1.02.2.03.31m4.9,4.71l-3.52-2.37c-.9-.6-1.41-1.39-1.53-2.32-.01-.11-.02-.21-.03-.32-.05-.65-.09-1.21-1.38-2.28l.09-.12,4.33,2.75v.02s2.04,4.64,2.04,4.64Z"/><path class="g" d="m119.93,216.65l-.02-.15,4.45-.55-3.34-1.62s-1.41-.74-2.63-.13c-.91.45-1.61.71-3.03.16l.05-.14c1.36.53,2.04.28,2.91-.15,1.29-.64,2.71.1,2.76.13l3.8,1.85-4.96.61Z"/><path class="g" d="m116.12,214.73c.8.69.89,1.19.98,1.72.02.1.04.2.06.31.2.88.76,1.57,1.67,2.06l3.28,1.76-2.22-3.94-3.78-1.91Zm6.39,6.23l-3.74-2.01c-.96-.51-1.54-1.24-1.75-2.16-.03-.11-.04-.21-.06-.31-.12-.64-.21-1.2-1.6-2.13l.08-.13,4.58,2.31v.02s2.5,4.41,2.5,4.41Z"/><path class="g" d="m126.73,219.31l-.03-.15,4.37-.98-3.48-1.28s-1.48-.6-2.63.13c-.86.54-1.53.86-3,.46l.04-.15c1.41.39,2.05.08,2.88-.44,1.22-.77,2.7-.17,2.76-.14l3.96,1.46-4.88,1.1Z"/><path class="g" d="m123.99,219.69c.28.85.91,1.49,1.87,1.88l3.44,1.42-2.6-3.7-3.95-1.52c.87.61,1.01,1.1,1.15,1.61.03.1.06.2.09.3m5.73,3.65l-3.92-1.62c-1-.41-1.66-1.08-1.96-1.98-.03-.1-.06-.21-.09-.3-.18-.63-.33-1.17-1.81-1.96l.06-.14,4.79,1.84,2.93,4.17Z"/><path class="g" d="m133.76,221.28l-.05-.14,4.25-1.42-3.59-.93s-1.53-.45-2.6.39c-.8.62-1.44,1.01-2.94.75l.03-.15c1.44.25,2.05-.13,2.82-.72,1.14-.88,2.67-.43,2.74-.42l4.09,1.06-4.74,1.58Z"/><path class="g" d="m129.65,220.15c.92.52,1.11.99,1.31,1.49.04.1.08.19.12.29.37.82,1.06,1.39,2.05,1.69l3.56,1.07-2.95-3.42-4.08-1.12Zm7.49,4.84l-4.06-1.22c-1.04-.31-1.76-.91-2.14-1.77-.05-.1-.08-.2-.12-.29-.24-.61-.45-1.13-1.99-1.77l.05-.14,4.94,1.36,3.33,3.85Z"/><path class="g" d="m140.95,222.54l-.06-.14,4.09-1.83-3.67-.57s-1.57-.29-2.55.65c-.73.7-1.33,1.15-2.85,1.04v-.15c1.47.1,2.04-.33,2.74-1,1.04-.99,2.62-.7,2.68-.69l4.17.65-4.56,2.04Z"/><path class="g" d="m138.34,223.46c.45.78,1.19,1.28,2.21,1.48l3.65.72-3.28-3.11-4.17-.71c.97.42,1.2.88,1.45,1.35.05.09.09.18.15.28m6.34,2.44l-4.16-.82c-1.06-.21-1.84-.73-2.31-1.55-.05-.1-.1-.19-.15-.28-.3-.58-.56-1.08-2.16-1.57l.03-.15,5.06.86.02.02,3.68,3.49Z"/><path class="g" d="m148.23,223.08l-.08-.13,3.89-2.23-3.71-.2s-1.59-.14-2.47.9c-.66.77-1.21,1.28-2.73,1.32v-.15c1.46-.04,1.98-.53,2.62-1.27.94-1.09,2.53-.96,2.6-.95l4.22.23-4.34,2.49Z"/><path class="g" d="m145.72,224.25c.52.73,1.31,1.15,2.34,1.25l3.7.35-3.57-2.77-4.22-.29c1.01.32,1.28.75,1.58,1.2.05.09.11.17.17.26m6.55,1.8l-4.23-.4c-1.08-.1-1.9-.54-2.45-1.31-.06-.09-.12-.18-.18-.27-.35-.55-.66-1.02-2.3-1.34l.02-.15,5.12.35h.02s4.01,3.12,4.01,3.12Z"/><path class="g" d="m150.42,223.05l-.02-.15c1.45-.19,1.92-.72,2.48-1.52.82-1.18,2.42-1.2,2.49-1.2l4.22-.19-4.07,2.91-.09-.12,3.65-2.61-3.71.17s-1.59.02-2.37,1.14c-.58.83-1.07,1.39-2.59,1.59"/><path class="g" d="m151.26,223.03c1.03.22,1.35.62,1.69,1.04.06.08.13.16.2.24.59.67,1.4,1.01,2.43,1.01h.03l3.72-.02-3.83-2.4-4.23.13Zm4.31,2.44c-1.07,0-1.93-.36-2.54-1.06-.07-.08-.14-.16-.2-.25-.41-.51-.76-.95-2.43-1.11v-.15s5.13-.16,5.13-.16l4.31,2.7-4.24.03h-.03Z"/><path class="g" d="m157.71,222.65l-.03-.15c1.43-.33,1.84-.91,2.32-1.76.7-1.26,2.29-1.44,2.36-1.45l4.18-.61-3.76,3.3-.1-.11,3.37-2.96-3.67.54s-1.58.18-2.25,1.37c-.49.88-.93,1.49-2.42,1.83"/><path class="g" d="m158.54,222.54c1.05.12,1.41.48,1.78.87.07.07.14.15.22.22.66.61,1.52.87,2.54.76l3.7-.39-4.05-2.01-4.2.55Zm4.09,2.02c-.87,0-1.61-.28-2.19-.83-.08-.08-.15-.15-.23-.22-.45-.46-.84-.86-2.47-.86h-.05v-.15s5.08-.67,5.08-.67h.02s4.54,2.26,4.54,2.26l-4.22.45c-.16.02-.32.03-.47.03"/><path class="g" d="m164.92,221.52l-.05-.14c1.38-.47,1.74-1.09,2.13-1.98.57-1.32,2.14-1.66,2.21-1.67l4.1-1.02-3.41,3.65-.11-.1,3.06-3.28-3.6.9s-1.56.34-2.1,1.59c-.4.93-.78,1.57-2.22,2.07"/><path class="g" d="m165.74,221.33c1.06.01,1.45.34,1.86.68.08.07.16.13.24.2.72.55,1.59.72,2.61.5l3.64-.76-4.23-1.59-4.12.97Zm3.89,1.62c-.71,0-1.34-.21-1.88-.62-.09-.07-.17-.13-.25-.2-.5-.42-.93-.78-2.6-.61l-.03-.15,4.99-1.17h.02s4.74,1.8,4.74,1.8l-4.15.87c-.29.06-.58.09-.85.09"/><path class="g" d="m171.98,219.68l-.06-.14c1.33-.61,1.62-1.26,1.92-2.18.44-1.37,1.96-1.86,2.03-1.89l3.98-1.43-3.03,3.97-.12-.09,2.72-3.57-3.49,1.25s-1.52.49-1.93,1.79c-.31.96-.62,1.64-2,2.28"/><path class="g" d="m174.95,220.07c.76.47,1.65.55,2.64.24l3.55-1.12-4.37-1.17-4,1.37c1.05-.09,1.48.2,1.92.5.08.06.17.11.26.17m1.51.58c-.57,0-1.11-.15-1.59-.45-.09-.06-.18-.12-.27-.18-.54-.37-1.01-.68-2.65-.34l-.04-.15,4.85-1.66h.02s4.89,1.31,4.89,1.31l-4.05,1.27c-.41.13-.8.19-1.18.19"/><path class="g" d="m178.82,217.15l-.08-.13c1.26-.74,1.49-1.41,1.7-2.37.3-1.41,1.77-2.05,1.83-2.08l3.81-1.81-2.62,4.26-.13-.08,2.35-3.82-3.35,1.59s-1.46.64-1.74,1.97c-.21.99-.45,1.7-1.77,2.46"/><path class="g" d="m181.82,217.24c.81.39,1.7.39,2.66-.02l3.42-1.46-4.46-.72-3.85,1.76c1.04-.2,1.49.05,1.96.3.09.05.18.1.28.14m1.25.44c-.46,0-.9-.1-1.31-.31-.1-.05-.19-.1-.28-.15-.57-.31-1.07-.58-2.67-.08l-.05-.14,4.66-2.14h.02s5,.82,5,.82l-3.9,1.67c-.51.22-1,.32-1.47.32"/><path class="g" d="m185.37,213.95l-.09-.12c1.19-.86,1.34-1.55,1.45-2.52.16-1.43,1.56-2.22,1.62-2.25l3.62-2.18-2.18,4.49-.14-.07,1.96-4.03-3.18,1.92s-1.39.78-1.54,2.13c-.11,1.01-.28,1.73-1.51,2.63"/><path class="g" d="m188.37,213.74c.84.31,1.73.21,2.64-.29l3.26-1.8-4.51-.28-3.65,2.14c1.01-.3,1.49-.1,1.98.11.09.04.19.08.29.12m.99.33c-.35,0-.7-.06-1.04-.19-.1-.04-.2-.08-.3-.12-.6-.25-1.12-.47-2.66.19l-.07-.13,4.43-2.59,5.08.31-3.72,2.05c-.58.32-1.16.48-1.73.48"/><path class="g" d="m191.58,210.11l-.1-.11c1.09-.97,1.18-1.68,1.19-2.65.02-1.44,1.33-2.36,1.38-2.4l3.38-2.53-1.73,4.69-.14-.05,1.55-4.21-2.97,2.23s-1.3.92-1.32,2.28c-.01,1.01-.11,1.75-1.25,2.77"/><path class="g" d="m194.54,209.61c.87.23,1.75.04,2.6-.55l3.06-2.11-4.52.17-3.42,2.49c.98-.4,1.47-.25,1.98-.09.1.03.19.06.3.09m-2.97.51l-.08-.13,4.15-3.02h.02s5.06-.19,5.06-.19l-3.49,2.41c-.89.61-1.81.81-2.72.57-.11-.03-.21-.06-.31-.09-.62-.19-1.16-.36-2.63.45"/><path class="g" d="m197.37,205.67l-.11-.1c.99-1.07,1.01-1.79.92-2.76-.13-1.44,1.09-2.48,1.14-2.53l3.11-2.86-1.25,4.84-.15-.04,1.12-4.34-2.73,2.51s-1.21,1.04-1.09,2.4c.09,1.01.07,1.75-.96,2.88"/><path class="g" d="m201.16,202.29l-3.16,2.82c.94-.49,1.44-.39,1.96-.29.1.02.2.04.31.06.89.14,1.74-.13,2.53-.8l2.84-2.41-4.48.62Zm-3.8,3.39l-.09-.12,3.83-3.42h.02s5.02-.7,5.02-.7l-3.24,2.74c-.82.7-1.72.98-2.65.84-.11-.02-.21-.04-.31-.06-.64-.13-1.19-.24-2.57.71"/><path class="g" d="m202.69,200.68l-.12-.09c.88-1.17.83-1.88.65-2.84-.27-1.42.83-2.58.88-2.63l2.81-3.15-.76,4.94-.15-.02.68-4.43-2.47,2.77s-1.1,1.16-.84,2.49c.19,1,.24,1.74-.67,2.96"/><path class="g" d="m206.12,196.94l-2.86,3.12c.88-.58,1.39-.53,1.92-.48.1,0,.2.02.31.03.9.05,1.72-.3,2.44-1.05l2.58-2.68-4.39,1.06Zm-3.44,3.75l-.11-.11,3.47-3.78,4.95-1.2-2.95,3.05c-.75.78-1.61,1.15-2.56,1.1-.11,0-.21-.02-.32-.03-.65-.06-1.21-.12-2.49.96"/><path class="g" d="m207.49,195.19l-.13-.08c.76-1.25.64-1.96.36-2.89-.41-1.38.57-2.65.62-2.7l2.48-3.42-.27,4.99h-.15s.24-4.49.24-4.49l-2.18,3s-.98,1.26-.59,2.56c.29.97.42,1.7-.37,3.01"/><path class="g" d="m210.53,191.12l-2.54,3.39c.82-.67,1.33-.67,1.86-.67.1,0,.2,0,.31,0,.9-.04,1.68-.47,2.32-1.29l2.3-2.92-4.27,1.49Zm-3.05,4.08l-.12-.1,3.07-4.11h.02s4.78-1.68,4.78-1.68l-2.63,3.33c-.67.85-1.49,1.3-2.43,1.35-.11,0-.21,0-.32,0-.65,0-1.22,0-2.38,1.2"/><path class="g" d="m211.72,189.24l-.14-.07c.63-1.32.44-2.01.07-2.91-.54-1.33.31-2.69.34-2.75l2.13-3.65.23,4.99h-.15s-.21-4.47-.21-4.47l-1.87,3.2s-.85,1.35-.33,2.61c.38.94.58,1.66-.07,3.03"/><path class="g" d="m214.34,184.9l-2.19,3.62c.75-.75,1.26-.8,1.79-.85.1-.01.2-.02.31-.04.89-.13,1.62-.64,2.18-1.51l2-3.14-4.1,1.91Zm-2.63,4.36l-.13-.09,2.65-4.39h.02s4.59-2.15,4.59-2.15l-2.28,3.58c-.58.91-1.35,1.44-2.29,1.58-.11.02-.21.03-.32.04-.65.07-1.21.12-2.25,1.44"/><path class="g" d="m215.34,182.91l-.14-.05c.5-1.38.24-2.04-.22-2.9-.67-1.28.04-2.71.07-2.77l1.76-3.84.73,4.95-.15.02-.65-4.44-1.54,3.38s-.71,1.43-.07,2.63c.47.9.74,1.59.23,3.03"/><path class="g" d="m217.51,178.32l-1.81,3.82c.67-.82,1.17-.92,1.7-1.03.1-.02.2-.04.3-.07.87-.22,1.55-.8,2.02-1.72l1.68-3.32-3.88,2.31Zm-2.18,4.6l-.13-.07,2.2-4.63,4.38-2.6-1.92,3.79c-.49.97-1.2,1.57-2.12,1.8-.11.03-.21.05-.31.07-.64.13-1.19.24-2.1,1.65"/><path class="g" d="m218.3,176.24l-.15-.04c.36-1.42.03-2.05-.51-2.87-.8-1.2-.23-2.7-.21-2.76l1.37-4,1.21,4.85-.15.04-1.09-4.35-1.2,3.51s-.56,1.49.19,2.62c.56.84.9,1.51.53,2.99"/><path class="g" d="m220.01,171.46l-1.43,3.99c.59-.88,1.07-1.03,1.59-1.19.1-.03.19-.06.3-.1.85-.3,1.46-.95,1.84-1.91l1.34-3.47-3.64,2.68Zm-1.72,4.79l-.14-.06,1.73-4.83h.02s4.08-3.03,4.08-3.03l-1.53,3.96c-.39,1.01-1.04,1.68-1.93,2-.1.04-.2.07-.3.1-.62.19-1.16.36-1.92,1.85"/><path class="g" d="m220.59,169.31l-.15-.02c.21-1.45-.17-2.05-.79-2.8-.91-1.12-.5-2.66-.48-2.73l.96-4.11,1.69,4.7-.14.05-1.52-4.22-.85,3.61s-.41,1.54.45,2.59c.64.78,1.04,1.41.82,2.92"/><path class="g" d="m221.82,164.39l-1.02,4.11c.5-.93.97-1.13,1.46-1.34.09-.04.19-.08.29-.13.81-.39,1.36-1.09,1.64-2.09l.99-3.59-3.35,3.03Zm-1.23,4.94l-.14-.05,1.24-4.98,3.77-3.42-1.13,4.09c-.29,1.04-.87,1.78-1.72,2.18-.1.05-.2.09-.29.13-.6.26-1.12.48-1.73,2.04"/><path class="g" d="m222.18,162.19h-.15c.07-1.47-.38-2.03-1.06-2.72-1.02-1.02-.76-2.6-.75-2.66l.55-4.19,2.15,4.51-.14.07-1.93-4.05-.48,3.68s-.26,1.57.71,2.53c.72.72,1.18,1.3,1.11,2.82"/><path class="g" d="m222.91,157.17l-.61,4.19c.4-.98.85-1.22,1.32-1.48.09-.05.18-.1.27-.15.77-.46,1.25-1.22,1.42-2.24l.63-3.67-3.03,3.35Zm-.73,5.04l-.15-.03.74-5.08,3.42-3.77-.72,4.18c-.18,1.07-.69,1.86-1.49,2.35-.09.05-.19.11-.28.16-.57.31-1.07.58-1.51,2.2"/><path class="g" d="m222.9,154.96c-.08-1.46-.58-1.97-1.33-2.59-1.12-.91-1.02-2.51-1.01-2.58l.13-4.22,2.59,4.28-.13.08-2.32-3.84-.11,3.71s-.1,1.59.96,2.45c.78.64,1.3,1.18,1.38,2.7h-.15Z"/><path class="g" d="m223.28,149.88l-.19,4.23c.3-1.01.72-1.3,1.16-1.6.08-.06.17-.12.26-.18.72-.54,1.12-1.34,1.19-2.37l.26-3.71-2.68,3.64Zm-.23,5.09l-.15-.02.23-5.12v-.02s3.02-4.08,3.02-4.08l-.3,4.23c-.08,1.08-.5,1.92-1.25,2.48-.09.07-.17.13-.26.18-.54.37-1.01.69-1.29,2.34"/><path class="g" d="m223.05,147.68c-.22-1.45-.77-1.91-1.58-2.45-1.2-.8-1.26-2.4-1.26-2.46l-.29-4.21,3,4-.12.09-2.69-3.59.26,3.7s.06,1.59,1.2,2.34c.84.56,1.41,1.04,1.65,2.55l-.15.02Z"/><path class="g" d="m222.93,142.59l.23,4.23c.2-1.04.59-1.37,1-1.71.08-.07.16-.13.24-.21.66-.61.98-1.44.95-2.48l-.11-3.72-2.31,3.89Zm.28,5.08h-.15s-.28-5.12-.28-5.12v-.02s2.6-4.36,2.6-4.36l.13,4.24c.03,1.08-.3,1.96-1,2.6-.08.07-.16.14-.24.21-.5.42-.93.78-1.05,2.45"/><path class="g" d="m222.48,140.42c-.36-1.42-.96-1.82-1.81-2.28-1.27-.67-1.49-2.26-1.5-2.33l-.71-4.16,3.38,3.68-.11.1-3.03-3.3.62,3.66s.22,1.58,1.42,2.21c.9.47,1.51.9,1.89,2.37l-.15.04Z"/><path class="g" d="m221.85,135.37l.65,4.18c.1-1.05.45-1.42.82-1.8.07-.07.14-.15.21-.23.6-.67.83-1.53.7-2.56l-.48-3.69-1.91,4.1Zm.63,5.05l-.79-5.07v-.02s2.15-4.59,2.15-4.59l.55,4.21c.14,1.07-.11,1.98-.74,2.68-.07.08-.15.16-.22.23-.45.47-.85.87-.8,2.55h-.15Z"/><path class="g" d="m221.18,133.26c-.5-1.37-1.13-1.72-2.03-2.08-1.33-.54-1.71-2.1-1.73-2.16l-1.12-4.07,3.73,3.32-.1.11-3.35-2.98.98,3.58s.37,1.55,1.64,2.06c.94.38,1.59.74,2.12,2.17l-.14.05Z"/><path class="g" d="m220.05,128.29l1.06,4.1c-.01-1.06.31-1.46.64-1.88.06-.08.13-.16.19-.25.53-.73.68-1.61.44-2.62l-.84-3.62-1.49,4.27Zm1.13,4.96l-1.29-4.96v-.02s1.68-4.78,1.68-4.78l.96,4.13c.24,1.05.09,1.98-.47,2.74-.06.09-.13.17-.19.25-.41.51-.76.95-.54,2.61l-.15.03Z"/><path class="g" d="m219.18,126.26c-.64-1.32-1.3-1.59-2.23-1.87-1.38-.41-1.91-1.92-1.93-1.98l-1.52-3.94,4.04,2.94-.09.12-3.63-2.63,1.34,3.46s.53,1.5,1.83,1.89c.97.29,1.66.58,2.32,1.95l-.14.07Z"/><path class="g" d="m217.56,121.43l1.47,3.97c-.12-1.05.16-1.48.45-1.93.06-.08.11-.17.17-.26.45-.78.51-1.67.18-2.65l-1.2-3.52-1.06,4.39Zm1.62,4.82l-1.78-4.81,1.2-4.95,1.37,4.01c.35,1.03.28,1.96-.19,2.78-.05.09-.11.18-.17.27-.35.55-.66,1.02-.28,2.65l-.15.04Z"/><path class="g" d="m216.5,119.49c-.77-1.25-1.45-1.46-2.4-1.64-1.42-.27-2.09-1.72-2.12-1.78l-1.9-3.77,4.32,2.52-.08.13-3.87-2.26,1.67,3.31s.67,1.44,2.01,1.7c1,.19,1.71.41,2.51,1.71l-.13.08Z"/><path class="g" d="m214.4,114.85l1.86,3.8c-.22-1.03.01-1.49.26-1.97.05-.09.09-.18.14-.28.37-.82.35-1.71-.08-2.65l-1.54-3.38-.62,4.48Zm2.09,4.63l-2.25-4.61v-.02s.7-5.02.7-5.02l1.76,3.86c.45.98.48,1.92.08,2.78-.05.1-.09.19-.14.29-.3.58-.56,1.08-.02,2.67l-.14.06Z"/><path class="g" d="m213.15,113.03c-.89-1.16-1.59-1.31-2.56-1.39-1.44-.13-2.25-1.5-2.29-1.56l-2.27-3.56,4.55,2.08-.06.14-4.08-1.86,1.99,3.13s.81,1.37,2.17,1.49c1.01.09,1.74.24,2.66,1.45l-.12.09Z"/><path class="g" d="m210.6,108.62l2.22,3.6c-.32-1.01-.14-1.48.06-1.98.04-.09.07-.19.11-.29.29-.85.17-1.74-.35-2.63l-1.87-3.21-.17,4.52Zm2.54,4.4l-2.69-4.36v-.02l.19-5.06,2.14,3.67c.55.93.67,1.86.36,2.76-.03.1-.07.2-.11.3-.24.61-.44,1.13.25,2.66l-.13.07Z"/><path class="g" d="m209.17,106.93c-1-1.07-1.71-1.14-2.68-1.13h-.03c-1.43,0-2.36-1.27-2.4-1.33l-2.61-3.32,4.73,1.61-.05.14-4.24-1.45,2.3,2.92s.93,1.27,2.28,1.27h.03c1.02-.02,1.75.06,2.79,1.18l-.11.1Z"/><path class="g" d="m206.2,102.79l2.57,3.36c-.42-.97-.28-1.46-.14-1.98.03-.1.05-.2.08-.3.2-.88,0-1.75-.61-2.58l-2.18-3.01.28,4.51Zm2.97,4.13l-3.12-4.07-.31-5.08,2.49,3.43c.64.88.85,1.79.63,2.71-.03.11-.05.21-.08.31-.18.63-.33,1.17.51,2.62l-.13.08Z"/><path class="g" d="m204.61,101.25c-1.1-.97-1.81-.97-2.78-.86-1.43.16-2.5-1.03-2.55-1.08l-2.93-3.04,4.87,1.14-.03.15-4.37-1.02,2.58,2.67s1.07,1.18,2.42,1.03c1.01-.11,1.75-.11,2.9.9l-.1.11Z"/><path class="g" d="m201.25,97.43l2.89,3.09c-.51-.92-.43-1.43-.33-1.95.02-.1.03-.2.05-.31h.08s-.08,0-.08,0c.12-.89-.17-1.74-.86-2.51l-2.47-2.78.73,4.46Zm3.36,3.81l-3.51-3.74-.82-5.02,2.82,3.17c.72.81,1.02,1.69.9,2.63-.01.11-.03.21-.05.31-.11.64-.21,1.2.77,2.55l-.12.1Z"/><path class="g" d="m199.51,96.06c-1.19-.85-1.9-.78-2.85-.58-1.41.3-2.59-.77-2.64-.82l-3.22-2.74,4.96.65-.02.15-4.45-.58,2.83,2.4s1.18,1.07,2.51.78c.99-.21,1.73-.29,2.97.6l-.09.12Z"/><path class="g" d="m195.78,92.59l3.19,2.79c-.61-.87-.57-1.38-.53-1.91,0-.1.02-.2.02-.31.03-.9-.35-1.71-1.11-2.41l-2.74-2.52,1.17,4.37Zm3.73,3.46l-3.86-3.38v-.02s-1.31-4.89-1.31-4.89l3.12,2.87c.8.73,1.19,1.58,1.16,2.53,0,.11-.01.21-.02.32-.05.65-.09,1.21,1.02,2.47l-.11.11Z"/><path class="g" d="m193.92,91.4c-1.27-.73-1.97-.59-2.9-.29-1.37.44-2.66-.51-2.71-.55l-3.47-2.4,5,.15v.15s-4.49-.13-4.49-.13l3.05,2.11s1.28.95,2.58.53c.96-.31,1.7-.46,3.02.3l-.08.13Z"/><path class="g" d="m189.86,88.32l3.45,2.45c-.69-.8-.7-1.31-.71-1.85,0-.1,0-.21-.01-.31-.06-.9-.51-1.67-1.34-2.29l-2.97-2.23,1.6,4.23Zm4.05,3.07l-4.18-2.98v-.02s-1.8-4.74-1.8-4.74l3.39,2.55c.87.65,1.34,1.46,1.4,2.4,0,.11,0,.21.01.32.02.65.03,1.22,1.26,2.35l-.1.12Z"/><path class="g" d="m183.96,87.52c-.93,0-1.7-.46-1.74-.48l-3.7-2.04,4.99-.35v.15s-4.46.31-4.46.31l3.25,1.8s1.37.81,2.62.27c.93-.4,1.64-.62,3.03,0l-.06.14c-1.33-.6-2.02-.39-2.91,0-.34.15-.69.2-1.01.2"/><path class="g" d="m183.54,84.66l3.67,2.1c-.77-.73-.83-1.24-.9-1.77-.01-.1-.03-.2-.04-.31-.15-.89-.68-1.61-1.57-2.15l-3.18-1.93,2.01,4.05Zm4.34,2.65l-4.45-2.55v-.02s-2.26-4.54-2.26-4.54l3.63,2.2c.93.56,1.48,1.32,1.63,2.25.02.11.03.21.05.32.08.65.15,1.21,1.49,2.21l-.08.13Z"/><path class="g" d="m177.3,84.47c-.8,0-1.44-.3-1.48-.32l-3.88-1.67,4.93-.84.03.15-4.42.76,3.41,1.46s1.44.67,2.63,0c.88-.49,1.57-.78,3.02-.3l-.05.14c-1.39-.46-2.05-.19-2.9.29-.43.24-.88.32-1.28.32"/><path class="g" d="m176.89,81.65l3.86,1.73c-.83-.65-.95-1.15-1.06-1.67-.02-.1-.05-.2-.07-.3-.24-.87-.83-1.53-1.77-1.98l-3.36-1.6,2.4,3.83Zm4.58,2.21l-4.68-2.09-2.7-4.31,3.83,1.83c.98.47,1.6,1.16,1.85,2.07.03.11.05.21.08.31.14.64.27,1.19,1.7,2.05l-.07.13Z"/><path class="g" d="m170.33,82.09c-.64,0-1.14-.18-1.18-.19l-4.03-1.27,4.82-1.33.04.15-4.32,1.19,3.54,1.12s1.5.53,2.62-.25c.83-.58,1.49-.94,2.97-.6l-.03.15c-1.43-.32-2.06.02-2.85.57-.51.36-1.09.46-1.58.46"/><path class="g" d="m169.98,79.31l4.02,1.33c-.89-.56-1.06-1.05-1.23-1.56-.03-.1-.07-.19-.1-.29-.32-.84-.98-1.44-1.96-1.79l-3.5-1.26,2.77,3.57Zm4.78,1.74l-4.87-1.61v-.02s-3.12-4-3.12-4l3.99,1.44c1.02.37,1.71,1,2.05,1.88.04.1.07.2.11.3.21.62.39,1.15,1.9,1.88l-.06.14Z"/><path class="g" d="m163.12,80.42c-.46,0-.79-.08-.82-.09l-4.13-.86,4.66-1.8.05.14-4.18,1.62,3.63.76s1.55.37,2.58-.51c.77-.66,1.39-1.08,2.9-.89l-.02.15c-1.45-.18-2.04.22-2.78.86-.6.51-1.34.63-1.89.63"/><path class="g" d="m162.86,77.67l4.13.93c-.95-.47-1.16-.94-1.38-1.43-.04-.09-.08-.19-.13-.28-.41-.8-1.12-1.34-2.13-1.59l-3.61-.9,3.11,3.28Zm4.93,1.26l-5-1.12-.02-.02-3.49-3.67,4.12,1.03c1.05.26,1.8.82,2.23,1.67.05.1.09.19.14.29.27.6.5,1.11,2.07,1.68l-.04.15Z"/><path class="g" d="m155.76,79.48c-.25,0-.41-.02-.43-.03l-4.2-.45,4.46-2.26.07.14-4,2.02,3.69.39s1.58.22,2.52-.77c.7-.73,1.26-1.21,2.8-1.17v.15c-1.46-.03-2.02.43-2.69,1.13-.69.72-1.66.84-2.22.84"/><path class="g" d="m155.62,76.75l4.2.51c-.99-.38-1.24-.82-1.51-1.28-.05-.09-.1-.18-.16-.27-.48-.76-1.25-1.22-2.27-1.37l-3.68-.54,3.42,2.95Zm5.03.76l-5.09-.62-3.85-3.32,4.2.62c1.07.16,1.87.64,2.38,1.44.06.09.11.18.16.27.33.57.61,1.05,2.23,1.46l-.03.15Z"/><path class="f" d="m241.71,131.08l-1.31,4.82c-.13.49-.78.6-1.07.18l-2.5-3.63.25-4.41c.03-.51.64-.75,1.01-.4l3.62,3.44Z"/><path class="f" d="m242.36,130.11l-4.1-3.89c-.47-.44-.71-1.06-.68-1.7l.54-9.38,5.39,7.82c.36.53.48,1.19.31,1.81l-1.46,5.35Z"/><path class="f" d="m243.46,130.79l1.28-4.72c.13-.49.78-.6,1.07-.18l2.45,3.55-.25,4.31c-.03.51-.64.75-1.01.4l-3.55-3.36Z"/><path class="f" d="m242.83,131.79l4.02,3.82c.47.44.71,1.06.68,1.7l-.54,9.48-5.33-7.74c-.36-.53-.48-1.19-.31-1.81l1.49-5.46Z"/><path class="f" d="m58.29,131.08l1.31,4.82c.13.49.78.6,1.07.18l2.5-3.63-.25-4.41c-.03-.51-.64-.75-1.01-.4l-3.62,3.44Z"/><path class="f" d="m57.64,130.11l4.1-3.89c.47-.44.71-1.06.68-1.7l-.54-9.38-5.39,7.82c-.36.53-.48,1.19-.31,1.81l1.46,5.35Z"/><path class="f" d="m56.54,130.79l-1.28-4.72c-.13-.49-.78-.6-1.07-.18l-2.45,3.55.25,4.31c.03.51.64.75,1.01.4l3.55-3.36Z"/><path class="f" d="m57.17,131.79l-4.02,3.82c-.47.44-.71,1.06-.68,1.7l.54,9.48,5.33-7.74c.36-.53.48-1.19.31-1.81l-1.49-5.46Z"/></g></svg>