<?xml version="1.0" encoding="UTF-8"?><svg id="b" xmlns="http://www.w3.org/2000/svg" width="237" height="422" viewBox="0 0 237 422"><defs><style>.d{fill:#fff;}.e{fill:#f37321;}.f{fill:#7b5aa6;}.g{fill:#f7b519;}.h{fill:#f7b519;}</style></defs><g id="c"><path class="h" d="M229.82,253.68c-4.6-12.69-11.27-24.44-19.83-34.92-1.23-1.51-3.06-2.43-5-2.53-.04,0-.27,0-.32,0-1.84,0-3.57.73-4.87,2.04l-.06.06c-.93-6.36-2.75-13.35-8.77-17.59-1.1-.77-1.45-1.28-1.53-1.42,0-.03-.02-.06-.03-.09-.62-1.78-.28-3.83,0-5.47.31-1.85.63-3.76-.97-4.87-.49-.34-1.02-.5-1.63-.5-1.29,0-2.82.76-4.88,1.99-.96.57-2.07,1.47-3.19,2.57.07-.34.1-.68.1-1.03,0-2.91-2.34-5.28-5.22-5.28-.34,0-.69.03-1.03.1.12-.17.22-.35.29-.55.39-1,.15-2.12-.62-2.87-.07-.07-1.75-1.75-.87-3.91,1.14-1.07,1.8-2.57,1.8-4.15s-.73-3.22-1.96-4.29c-.4-1.23.8-3.24,1.3-3.91.64-.82.75-1.95.26-2.87-.03-.06-.07-.12-.1-.18,2.63-.27,4.69-2.52,4.69-5.25,0-2.91-2.34-5.28-5.22-5.28-2.13,0-4.07,1.33-4.85,3.33-.66.52-1.25,1.14-1.75,1.87-.5-.63-.86-1.07-.94-1.16-.49-.58-1.21-.91-1.99-.91-.41,0-.81.09-1.17.27-.76-.99-1.37-1.71-1.37-1.71-.49-.58-1.21-.92-1.99-.92-.78,0-1.5.33-1.99.91-.07.08-.65.78-1.39,1.74-.37-.19-.78-.28-1.2-.28s-.81.09-1.16.26c-.77-1.01-1.15-1.5-1.37-1.72-.49-.58-1.21-.92-1.99-.92-.78,0-1.5.33-1.97.89-.03.03-.56.67-1.24,1.54-.21-.05-.42-.08-.64-.08-.25,0-.5.04-.74.1-1.1-2.19-2.17-4.55-3.19-7.01h1.3c1.64,2.75,4.76,3.74,6.97,3.74h.1c1.06-.01,2-.67,2.38-1.67.39-1,.14-2.12-.62-2.87-.07-.07-1.76-1.72-.87-3.9,1.15-1.07,1.8-2.58,1.8-4.15s-.73-3.22-1.96-4.29c-.38-1.19.7-3.14,1.3-3.92.64-.82.74-1.95.26-2.87-.04-.09-.09-.17-.15-.25.33-.7.5-1.48.5-2.26,0-2.91-2.34-5.28-5.22-5.28-2.13,0-4.07,1.33-4.85,3.33-.68.53-1.29,1.18-1.8,1.94-1-1.34-1.91-2.45-2.28-2.89-.48-.57-1.23-.91-2-.91-.19,0-.38.02-.57.06-.41-.52-.74-.91-.91-1.12-.48-.58-1.24-.92-2.01-.92-.04,0-.07,0-.11,0-.14-.59-.27-1.19-.41-1.79,1.06,1.14,2.83,2.25,5.76,2.48.07,0,.14,0,.21,0,.96,0,1.84-.54,2.29-1.4.49-.93.39-2.05-.25-2.86-.47-.61-1.23-2.05-1.06-2.9,1.08-.99,1.7-2.39,1.7-3.85s-.58-2.78-1.59-3.76c-.58-1.55.62-2.75.66-2.8.77-.74,1.03-1.86.64-2.86-.38-1.01-1.34-1.67-2.44-1.68-.62,0-3.77.13-5.77,2.59h-1.1c-1.06-1.67-2.53-3.48-3.06-4.12l-.17-1.1c1.55-1.11,2.47-2.8,2.47-4.55,0-.73,0-2.43-4.29-8.61-1.18-9.62-2.15-19.87-2.86-30.49,1.54-.67,2.56-2.21,2.56-3.93v-.68c0-1.92-1.28-3.6-3.08-4.11-.89-16.53-.96-29.69-.95-34.8,1.44-1.05,2.33-2.8,2.33-4.6,0-3.13-2.52-5.67-5.63-5.68-3.08.01-5.59,2.56-5.59,5.68,0,1.8.89,3.55,2.33,4.6.01,5.11-.06,18.27-.95,34.8-1.8.51-3.08,2.2-3.08,4.11v.68c0,1.71,1.02,3.26,2.56,3.93-.72,10.62-1.68,20.87-2.86,30.49-4.29,6.17-4.29,7.88-4.29,8.61,0,1.75.92,3.44,2.47,4.55-.06.37-.11.73-.17,1.1-.53.64-1.99,2.44-3.06,4.12h-1.1c-2-2.47-5.18-2.59-5.81-2.59-1.07.02-2.01.68-2.39,1.68-.39,1-.14,2.13.63,2.86.05.05,1.25,1.24.67,2.81-1.01.98-1.59,2.34-1.59,3.76s.62,2.86,1.7,3.85c.16.85-.6,2.28-1.06,2.89-.64.81-.75,1.94-.26,2.86.45.86,1.33,1.4,2.29,1.4.07,0,.14,0,.21,0,2.93-.23,4.7-1.33,5.77-2.48-.14.6-.27,1.2-.41,1.79-.04,0-.07,0-.11,0-.77,0-1.52.35-2.01.93-.17.21-.5.6-.91,1.12-.18-.04-.37-.06-.57-.06-.77,0-1.52.34-2.01.92-.29.34-1.24,1.5-2.28,2.89-.51-.76-1.11-1.41-1.8-1.94-.78-2-2.72-3.33-4.85-3.33-2.88,0-5.22,2.37-5.22,5.28,0,.78.17,1.56.5,2.26-.05.08-.1.16-.15.25-.49.92-.39,2.05.25,2.86.6.78,1.69,2.73,1.31,3.92-1.23,1.07-1.96,2.66-1.96,4.29s.65,3.09,1.8,4.16c.89,2.18-.79,3.83-.87,3.9-.77.74-1.01,1.87-.62,2.87.39,1,1.32,1.65,2.39,1.67h.1c2.21,0,5.33-.98,6.97-3.74h1.3c-1.02,2.46-2.09,4.82-3.19,7.01-.24-.07-.49-.1-.74-.1-.22,0-.43.03-.64.08-.67-.86-1.2-1.5-1.22-1.52-.49-.58-1.21-.91-1.99-.91-.76,0-1.5.34-1.95.88-.04.04-.66.79-1.41,1.76-.36-.17-.75-.26-1.16-.26s-.84.1-1.2.28c-.76-.99-1.36-1.71-1.39-1.74-.49-.58-1.21-.91-1.99-.91-.78,0-1.5.34-1.99.92,0,0-.6.71-1.37,1.71-.36-.18-.76-.27-1.17-.27-.78,0-1.5.33-1.98.9,0,0-.39.46-.95,1.17-.5-.72-1.09-1.35-1.75-1.87-.78-1.99-2.72-3.33-4.85-3.33-2.88,0-5.22,2.37-5.22,5.29,0,0,0,.1,0,.11-.01.08-.02.16-.02.25,0,1.22.48,2.34,1.34,3.13.87,1,2.08,1.62,3.37,1.75-.04.06-.07.12-.1.18-.49.92-.39,2.05.25,2.86.51.68,1.71,2.69,1.31,3.93-1.23,1.07-1.96,2.67-1.96,4.29s.65,3.09,1.8,4.15c.88,2.16-.8,3.83-.87,3.9-.77.74-1.01,1.87-.62,2.87.08.19.17.37.29.54-.34-.07-.68-.1-1.03-.1-2.88,0-5.22,2.37-5.22,5.28,0,.33.03.65.09.96-1.1-1.07-2.19-1.95-3.12-2.51-2.06-1.23-3.6-1.99-4.88-1.99-.61,0-1.15.16-1.63.5-1.6,1.11-1.28,3.02-.97,4.87.27,1.64.61,3.68-.01,5.48,0,.01,0,.03-.01.04-.06.1-.4.63-1.54,1.44-6.03,4.24-7.84,11.23-8.77,17.59l-.06-.06c-1.3-1.32-3.03-2.04-4.87-2.04-.05,0-.28,0-.33,0-1.94.09-3.75,1.01-4.99,2.52-8.55,10.48-15.23,22.23-19.83,34.92-4.77,13.14-7.18,26.95-7.18,41.04,0,53.43,35.52,100.77,86.37,115.13,2.91.82,5.68,2.55,8.61,4.38,5.85,3.64,12.47,7.78,23.26,7.78h.53c10.78,0,17.41-4.13,23.27-7.78,2.92-1.83,5.69-3.55,8.6-4.37,50.85-14.35,86.37-61.7,86.37-115.13,0-14.09-2.42-27.9-7.18-41.04ZM168.46,193.64c-.22-.02-.44-.03-.65-.04.07-.12.14-.24.21-.36.14.14.29.27.44.4ZM68.92,193.24c.07.12.14.24.21.36-.22.01-.44.03-.66.05.15-.13.3-.27.44-.41Z"/><path class="d" d="M173.34,188.35c-.94,0-1.82.37-2.49,1.04-.77-.99-1.08-2.35-1.21-3.24.32.03.53.03.55.03.37,0,.71-.24.85-.59.14-.35.05-.76-.22-1.02-.11-.11-2.71-2.69-1.14-6.04.02-.04.03-.08.05-.12.95-.75,1.51-1.88,1.51-3.12s-.62-2.47-1.64-3.21c0-.01-.01-.02-.02-.04-1.35-2.49,1.34-5.98,1.36-6.01.23-.29.26-.69.09-1.02-.17-.33-.51-.52-.88-.49-.61.05-1.18.14-1.73.27-.08-.03-.17-.06-.25-.07.11-.89.41-2.34,1.23-3.39.67.67,1.55,1.04,2.49,1.04,1.95,0,3.54-1.6,3.54-3.58s-1.59-3.58-3.54-3.58c-1.64,0-3.03,1.13-3.43,2.69-1.54,1.02-2.4,2.57-2.89,3.99-1.17-1.65-2.44-3.16-2.51-3.25-.35-.42-1.06-.42-1.41,0,0,0-.26.32-.66.82-1.16-1.62-2.39-3.1-2.46-3.18-.35-.42-1.06-.42-1.41,0-.06.08-1.32,1.57-2.48,3.21-.41-.52-.69-.85-.69-.85-.18-.21-.43-.33-.7-.33s-.53.12-.7.33c0,0-.26.32-.66.82-1.16-1.62-2.39-3.1-2.46-3.18-.35-.42-1.06-.42-1.41,0-.05.06-1.08,1.29-2.13,2.73-.19-.23-.31-.37-.31-.37-.18-.21-.43-.33-.7-.33s-.53.12-.7.33c0,0-.22.27-.57.7-1.8-3.41-3.53-7.21-5.14-11.33h4.83c1.18,2.98,4.35,3.76,6.01,3.74.37,0,.71-.24.84-.59.14-.35.05-.75-.22-1.02-.11-.11-2.71-2.69-1.14-6.04.02-.04.03-.08.05-.12.95-.75,1.51-1.88,1.51-3.12s-.62-2.47-1.64-3.21c0-.01-.01-.02-.02-.04-1.35-2.49,1.34-5.98,1.36-6.01.23-.29.26-.69.09-1.02-.17-.33-.51-.52-.88-.49-.12,0-.24.02-.36.03.85-.65,1.4-1.69,1.4-2.85,0-1.97-1.59-3.58-3.54-3.58-1.64,0-3.03,1.13-3.43,2.69-1.61,1.06-2.48,2.72-2.95,4.2-1.54-2.36-3.71-4.96-3.83-5.11-.18-.21-.43-.33-.7-.33h0c-.27,0-.53.12-.7.33,0,0-.09.11-.26.31-.98-1.28-1.78-2.24-1.82-2.29-.18-.21-.43-.33-.7-.33s-.53.12-.7.33c0,0-.2.24-.53.64-.55-2.26-1.08-4.58-1.58-6.95h2.61c.6,1.32,2.06,3,5.56,3.28.36.03.71-.16.89-.49.17-.33.14-.73-.09-1.02-.02-.03-2.24-2.94-1.15-4.96,0,0,0,0,0,0,.89-.66,1.42-1.71,1.42-2.83s-.48-2.07-1.3-2.74c-.01-.03-.02-.06-.04-.08-1.29-2.76.85-4.89.94-4.98.27-.26.36-.66.23-1.02-.14-.35-.47-.59-.85-.59-.16,0-3.41-.02-4.92,2.59h-2.92c-1.1-1.97-3.38-4.71-3.49-4.84-.06-.07-.12-.13-.2-.18-.15-.93-.29-1.86-.43-2.79,1.62-.75,2.63-2.13,2.63-3.67s-2.27-5.18-4.22-7.97c-1.27-10.21-2.28-21.13-3.02-32.47h.1c1.4,0,2.55-1.15,2.55-2.57v-.68c0-1.42-1.14-2.57-2.55-2.57h-.46c-1.02-18.18-1.05-32.44-1.03-37.32,1.4-.63,2.33-2.03,2.33-3.63,0-2.19-1.77-3.98-3.94-3.98s-3.93,1.78-3.93,3.98c0,1.78,1.14,3.28,2.76,3.78.02,4.96-.02,19.15-1.03,37.16h-.89c-1.4,0-2.55,1.15-2.55,2.57v.68c0,1.42,1.14,2.57,2.55,2.57h.54c-.72,11.09-1.71,21.77-2.94,31.79-.06.05-.11.1-.15.16-1.08,1.49-4.59,6.51-4.59,8.49,0,1.67,1.19,3.14,3.04,3.83-.13.85-.26,1.7-.4,2.55-.12-.05-.24-.08-.37-.08-.27,0-.53.12-.7.33-.11.13-2.39,2.86-3.49,4.84h-1.29c-.76-1.15-2.26-2.36-5.18-2.59-.36-.02-.71.16-.89.49-.17.33-.14.73.09,1.02.02.03,2.24,2.94,1.15,4.96h0c-.89.66-1.42,1.71-1.42,2.83s.48,2.07,1.3,2.74c.01.03.02.06.03.08,1.29,2.76-.85,4.89-.94,4.98-.27.26-.36.66-.23,1.02.14.35.47.59.85.59,1.44,0,4.22-.67,5.24-3.28h2.53c-.51,2.36-1.03,4.68-1.58,6.93-.32-.39-.51-.63-.51-.63-.18-.21-.43-.33-.7-.33s-.53.12-.7.33c-.04.05-.79.94-1.71,2.15-.09-.11-.14-.17-.14-.17-.18-.21-.43-.33-.7-.33s-.53.12-.7.33c-.12.15-2.3,2.75-3.84,5.12-.47-1.48-1.34-3.15-2.95-4.21-.39-1.56-1.79-2.69-3.43-2.69-1.95,0-3.54,1.6-3.54,3.58,0,1.14.53,2.16,1.35,2.81-.32.02-.6.2-.75.49-.17.33-.14.73.09,1.02.03.04,2.72,3.52,1.37,6.01,0,.01-.01.02-.02.04-1.02.74-1.64,1.94-1.64,3.21s.56,2.37,1.51,3.12c.01.04.03.08.05.12,1.57,3.35-1.03,5.93-1.14,6.04-.27.26-.36.66-.23,1.02.14.35.47.59.85.59,1.61.03,4.83-.75,6.01-3.74h4.16c-1.11,2.84-2.27,5.53-3.47,8.02-.12.06-.22.14-.31.24-.06.08-1.33,1.59-2.5,3.23-.42-.53-.71-.87-.71-.87-.35-.42-1.06-.42-1.41,0,0,0-.12.14-.32.39-1.06-1.45-2.09-2.69-2.15-2.75-.35-.42-1.06-.42-1.41,0-.06.08-1.33,1.59-2.49,3.23-.42-.53-.71-.87-.71-.87-.35-.42-1.06-.42-1.41,0,0,0-.17.2-.43.53-1.1-1.51-2.19-2.82-2.25-2.89-.35-.42-1.06-.42-1.41,0-.06.08-1.33,1.59-2.5,3.23-.42-.53-.71-.87-.71-.87-.18-.21-.43-.33-.7-.33s-.53.12-.7.33c-.07.08-1.45,1.74-2.67,3.48-.5-1.41-1.36-2.88-2.84-3.85-.39-1.56-1.79-2.69-3.43-2.69-1.95,0-3.54,1.61-3.54,3.58s1.59,3.58,3.54,3.58c.94,0,1.82-.37,2.49-1.03.74.96,1.06,2.27,1.19,3.14-.6-.16-1.23-.26-1.91-.31-.36-.03-.71.16-.88.49-.17.33-.14.73.09,1.02.03.04,2.71,3.52,1.36,6.01,0,.01-.01.03-.02.04-1.02.74-1.64,1.94-1.64,3.21s.56,2.37,1.51,3.12c.01.04.03.08.05.12,1.57,3.35-1.03,5.93-1.14,6.04-.27.26-.36.66-.22,1.02.14.35.47.59.85.59.03,0,.54,0,1.26-.13-.12.89-.42,2.31-1.22,3.34-.67-.67-1.55-1.04-2.49-1.04-1.95,0-3.54,1.61-3.54,3.58s1.59,3.58,3.54,3.58c1.64,0,3.03-1.13,3.43-2.69.94-.62,1.71-1.5,2.29-2.61,1.58,3.1,4.23,6.92,4.37,7.12.17.25.45.4.75.4s.58-.15.75-.4c.68-.97,3.34-4.85,4.72-7.83,1.38,2.98,4.04,6.86,4.72,7.83.34.49,1.16.49,1.51,0,.69-.99,3.45-5.01,4.8-8.01,1.35,3,4.11,7.02,4.8,8.01.35.49,1.16.49,1.51,0,.67-.97,3.3-4.8,4.69-7.77,1.38,2.97,4.01,6.81,4.69,7.77.34.49,1.16.49,1.51,0,.66-.94,3.18-4.62,4.59-7.57,1.44,3.24,4.46,7.64,5.21,8.72.17.25.45.39.75.39s.58-.15.75-.39c.75-1.07,3.74-5.43,5.19-8.66,1.41,2.93,3.91,6.58,4.57,7.51.34.49,1.16.49,1.51,0,.68-.97,3.34-4.85,4.72-7.83,1.38,2.98,4.04,6.86,4.72,7.83.34.49,1.16.49,1.51,0,.69-.99,3.45-5.01,4.8-8.01,1.35,3,4.11,7.02,4.8,8.01.34.49,1.16.49,1.51,0,.67-.97,3.3-4.8,4.69-7.77,1.38,2.97,4.01,6.81,4.69,7.77.35.49,1.16.49,1.51,0,.14-.21,2.85-4.1,4.42-7.22.59,1.15,1.38,2.07,2.35,2.71.39,1.56,1.79,2.69,3.43,2.69,1.95,0,3.54-1.61,3.54-3.58s-1.59-3.58-3.54-3.58M173.07,191.66c.07-.07.17-.11.27-.11.21,0,.38.17.38.38s-.17.38-.38.38-.38-.17-.38-.38c0-.1.04-.2.11-.27M143.09,132.84c.14-.87.46-2.1,1.18-3.02.52.52,1.16.85,1.86.98-1.3.55-2.14,1.31-2.68,2.04h-.36ZM146.49,127.55c-.07-.07-.11-.17-.11-.27,0-.21.17-.38.38-.38s.38.17.38.38c0,.31-.42.49-.64.27M91.23,130.74c.59-.16,1.13-.47,1.58-.92.67.87,1,2.02,1.15,2.88-.57-.72-1.42-1.45-2.73-1.97M90.59,127.55c-.22.22-.64.04-.64-.27,0-.21.17-.38.38-.38s.38.17.38.38c0,.1-.04.2-.11.27M171.61,159.05c-.07-.07-.11-.17-.11-.27,0-.21.17-.38.38-.38s.38.17.38.38c0,.31-.42.49-.64.27M63.86,158.77c.21,0,.38.17.38.38,0,.1-.04.2-.11.27-.22.22-.65.04-.65-.27,0-.21.17-.38.38-.38M63.13,191.55c.1,0,.19.04.27.11.07.07.11.17.11.27,0,.21-.17.38-.38.38s-.38-.17-.38-.38.17-.38.38-.38"/><rect class="g" x="71.69" y="180.98" width="93.63" height="3.99"/><path class="g" d="M167.83,165.29v1.4c-.36.16-.68.35-.94.54h-96.78c-.27-.2-.58-.38-.95-.54v-1.4h98.67Z"/><rect class="g" x="93.22" y="133.53" width="50.55" height="1.94"/><rect class="g" x="93.22" y="145.95" width="50.55" height="1.94"/><path class="h" d="M116.97,199.02c-.72-1.04-2.9-4.23-4.46-7.16-1.41,2.55-3.19,5.15-3.79,6.01-.33.48-.9.77-1.51.77h0c-.61,0-1.17-.29-1.51-.76-.64-.91-2.53-3.68-3.96-6.32-1.43,2.64-3.33,5.41-3.96,6.32-.33.48-.9.77-1.51.77s-1.17-.29-1.51-.77c-.66-.94-2.61-3.8-4.05-6.47-1.43,2.68-3.39,5.53-4.04,6.47-.33.48-.9.77-1.51.77s-1.17-.29-1.51-.76c-.63-.9-2.51-3.64-3.94-6.27-1.43,2.63-3.31,5.37-3.93,6.27-.33.48-.9.76-1.5.76h0c-.61,0-1.17-.29-1.51-.77-.25-.36-2.2-3.19-3.73-5.92-.44.57-.94,1.05-1.49,1.46-.61,1.81-2.3,3.04-4.22,3.04-2.46,0-4.46-2.02-4.46-4.51s2-4.51,4.46-4.51c.8,0,1.56.21,2.23.6.14-.3.26-.64.35-1.01-.51-.17-.94-.56-1.15-1.09-.28-.71-.1-1.5.44-2.03.09-.09,2.21-2.19.97-4.92-1.06-.93-1.67-2.26-1.67-3.69,0-1.48.68-2.9,1.83-3.82.87-1.91-1.32-4.84-1.34-4.86-.46-.58-.53-1.38-.18-2.03.34-.65,1.04-1.03,1.77-.98.27.02.52.05.78.08-.09-.32-.2-.66-.35-.98-.67.39-1.44.6-2.23.6-2.46,0-4.46-2.02-4.46-4.51s2-4.51,4.46-4.51c1.92,0,3.6,1.23,4.22,3.04.94.69,1.71,1.6,2.31,2.73.87-1.14,1.59-2,1.59-2.01.34-.41.85-.64,1.41-.64h0c.51,0,.99.2,1.33.55.95-1.27,1.79-2.27,1.79-2.27.34-.41.85-.64,1.41-.64h0c.55,0,1.07.23,1.41.64.01.01.86,1.02,1.82,2.3.69-.75,1.97-.77,2.68-.03.95-1.27,1.79-2.27,1.79-2.27.34-.41.85-.65,1.4-.65h0c.55,0,1.07.23,1.41.64,0,0,.7.84,1.54,1.94.6-.34,1.4-.3,1.97.11,1.38-2.71,2.71-5.65,3.98-8.78h-2.88c-1.53,2.99-4.84,3.76-6.61,3.74-.75,0-1.41-.47-1.69-1.18-.27-.71-.1-1.5.44-2.03.09-.09,2.21-2.19.97-4.91-1.06-.93-1.67-2.26-1.67-3.69,0-1.48.68-2.89,1.83-3.82.73-1.61-.71-4.04-1.34-4.86-.45-.58-.53-1.38-.18-2.03.1-.19.24-.37.39-.51-.43-.7-.66-1.51-.66-2.36,0-2.49,2-4.51,4.46-4.51,1.92,0,3.6,1.23,4.22,3.04.97.71,1.76,1.66,2.37,2.84,1.28-1.79,2.61-3.4,2.92-3.78.55-.65,1.52-.83,2.25-.45.56-.72,1.02-1.27,1.23-1.53.51-.61,1.4-.81,2.11-.52.33-1.39.65-2.81.97-4.25h-.91c-.84,1.45-2.56,3-6.04,3.27-.74.06-1.43-.33-1.77-.98-.34-.66-.27-1.46.18-2.03.46-.61,1.61-2.53,1.13-3.8-1.01-.84-1.6-2.1-1.6-3.42s.53-2.47,1.47-3.31c.92-2.11-.72-3.74-.78-3.81-.55-.52-.73-1.32-.45-2.03.27-.71.94-1.18,1.7-1.19.35,0,3.6.03,5.43,2.59h1.89c1.17-1.93,3.08-4.23,3.31-4.51.01-.02.03-.03.04-.05.09-.6.19-1.2.28-1.8-1.58-.96-2.54-2.51-2.54-4.18,0-.55,0-2.22,4.26-8.32,1.22-9.87,2.2-20.39,2.93-31.31-1.49-.39-2.59-1.76-2.59-3.39v-.68c0-1.79,1.33-3.27,3.05-3.48.93-16.97,1-30.33.98-35.84-1.43-.88-2.33-2.46-2.33-4.19,0-2.71,2.18-4.91,4.86-4.91v1.86c-1.66,0-3.01,1.37-3.01,3.05,0,1.2.7,2.29,1.78,2.77l.55.24v.6c.03,5.23-.02,19.34-1.03,37.37l-.05.88h-1.33c-.9,0-1.62.74-1.62,1.64v.68c0,.9.73,1.64,1.62,1.64h1.09l-.06.99c-.74,11.35-1.76,22.29-3.03,32.53l-.03.23-.13.19c-3.76,5.36-4.05,7.04-4.05,7.43,0,1.16.78,2.21,2.09,2.82l.63.29-.11.69c-.14.93-.28,1.86-.43,2.79l-.06.4-.34.23c-.1.11-2.34,2.81-3.39,4.69l-.26.48h-3.98s-.27-.46-.27-.46c-1.24-2.14-4-2.14-4.11-2.13.11.11,2.72,2.68,1.14,6.05l-.09.25-.2.16c-.61.49-.96,1.22-.96,2.01,0,.81.39,1.59,1.05,2.08l.38.28v.25c1.16,2.58-1.32,5.74-1.35,5.76,3.04-.24,4.28-1.62,4.79-2.74l.25-.54h4.34s-.24,1.13-.24,1.13c-.51,2.38-1.05,4.73-1.59,6.97l-.44,1.82-1.17-1.45c-.32-.39-.5-.63-.53-.61-.26.32-.96,1.17-1.78,2.24l-.7.92-.99-1.2c-.23.28-2.31,2.78-3.76,5.02l-1.06,1.63-1.34,1.04h-1.91s-.28-.37-.28-.37c-.55-.75-1.32-1.33-2.29-1.74l-1.11-.47-1.4-.14c-.11-.01-.22-.02-.33-.02.32.41,3.04,4.08,1.45,7.03l-.1.21-.19.14c-.79.57-1.25,1.49-1.25,2.46,0,.94.42,1.81,1.15,2.39l.23.2.09.26c1.85,3.97-1.21,6.99-1.34,7.11,1.31,0,4.14-.61,5.14-3.15l.23-.59h6.81s-.5,1.27-.5,1.27c-1.62,4.14-3.36,7.98-5.18,11.42l-.65,1.24-.87-1.09c-.34-.42-.56-.68-.56-.68h0s-.11.13-.29.36l-.75.93-.7-.96c-1.06-1.44-2.09-2.67-2.1-2.68-.01.01-1.24,1.48-2.41,3.11l-.71.99-.76-.95c-.39-.49-.65-.79-.65-.8,0,0-.27.33-.68.83l-.76.95-.71-.99c-1.16-1.64-2.42-3.14-2.44-3.15-.01.01-1.24,1.48-2.41,3.11l-.71.99-.76-.95c-.39-.49-.65-.79-.65-.8-.01.01-1.28,1.52-2.46,3.19l-1.04,1.47-.58-1.7c-.54-1.59-1.39-2.77-2.52-3.52l-.3-.2-.09-.35c-.3-1.17-1.34-1.99-2.53-1.99-1.44,0-2.62,1.19-2.62,2.65s1.17,2.65,2.62,2.65c.7,0,1.35-.27,1.84-.77l.73-.74.64.82c.93,1.19,1.28,2.75,1.42,3.85l.11.85-.83.18s-.09.02-.13.04l-.26.09-.27-.06c-.51-.12-1.03-.2-1.58-.23.31.41,2.99,4.07,1.46,6.99l-.08.22-.23.17c-.79.57-1.25,1.49-1.25,2.46s.42,1.81,1.15,2.38l.23.19.09.27c1.85,3.96-1.21,6.98-1.32,7.11.04,0,.21,0,.44-.03l1.16-.11-.17,1.17c-.15,1.05-.51,2.55-1.4,3.69l-.64.82-.74-.74c-.49-.49-1.15-.77-1.84-.77-1.44,0-2.62,1.19-2.62,2.65,0,1.46,1.17,2.65,2.62,2.65,1.2,0,2.24-.82,2.53-1.99l.09-.35.3-.2c.83-.55,1.52-1.34,2.04-2.36l.83-1.62.81,1.62c1.49,2.97,4.06,6.69,4.35,7.11.53-.75,3.23-4.67,4.61-7.63l.83-1.79.83,1.79c1.38,2.96,4.08,6.88,4.61,7.63.55-.79,3.38-4.89,4.71-7.86l.84-1.87.84,1.87c1.34,2.97,4.16,7.07,4.71,7.86.53-.76,3.27-4.73,4.63-7.69l.84-1.81.84,1.81c1.37,2.96,4.1,6.92,4.63,7.69.5-.72,3.08-4.45,4.49-7.38l.86-1.78.81,1.81c1.44,3.2,4.5,7.65,5.1,8.51,0,0,0,0,0,0v1.86c-.6,0-1.16-.29-1.51-.79ZM62.05,191.93c0-.72.58-1.31,1.3-1.31.35,0,.68.14.92.39h0c.24.25.38.58.38.93,0,.72-.58,1.31-1.3,1.31s-1.3-.59-1.3-1.31ZM63.61,191.66l.12-.12c-.1-.1-.23-.16-.39-.16-.3,0-.54.25-.54.55,0,.14.06.29.16.39h0c.1.1.24.16.39.16.3,0,.54-.25.54-.55,0-.15-.06-.29-.16-.39l-.12.12ZM64.31,159.98c-.49-.21-.81-.68-.81-1.2,0-.72.58-1.31,1.3-1.31s1.3.59,1.3,1.31c0,.35-.14.68-.38.93h0c-.24.24-.56.37-.89.37-.17,0-.35-.03-.51-.1ZM65.07,159.05l.12.12c.1-.1.16-.24.16-.39,0-.23-.13-.44-.33-.52-.19-.08-.44-.03-.6.13h0c-.1.1-.16.25-.16.39,0,.3.24.55.54.55.15,0,.29-.06.38-.16l-.12-.12Z"/><path class="h" d="M118.47,199.8v-1.86s0,0,0,0c.6-.86,3.66-5.31,5.1-8.51l.81-1.81.86,1.78c1.41,2.93,3.99,6.67,4.49,7.38.53-.76,3.27-4.73,4.63-7.69l.84-1.81.84,1.81c1.37,2.96,4.1,6.92,4.63,7.69.55-.79,3.38-4.89,4.71-7.86l.84-1.87.84,1.87c1.33,2.97,4.16,7.07,4.71,7.86.53-.76,3.23-4.67,4.61-7.63l.83-1.79.83,1.79c1.38,2.96,4.08,6.88,4.61,7.63.29-.41,2.86-4.14,4.35-7.11l.81-1.62.83,1.62c.52,1.02,1.2,1.81,2.04,2.36l.3.2.09.35c.3,1.17,1.34,1.99,2.53,1.99,1.44,0,2.62-1.19,2.62-2.65s-1.17-2.65-2.62-2.65c-.69,0-1.35.27-1.84.77l-.74.74-.64-.82c-.89-1.14-1.25-2.63-1.4-3.69l-.17-1.17,1.16.11c.23.02.4.02.44.03-.12-.13-3.18-3.15-1.32-7.11l.09-.27.23-.19c.73-.58,1.15-1.45,1.15-2.38s-.47-1.88-1.25-2.46l-.23-.17-.08-.22c-1.53-2.92,1.15-6.58,1.46-6.99-.55.03-1.07.11-1.58.23l-.27.06-.26-.09s-.09-.03-.13-.04l-.83-.18.11-.85c.14-1.1.49-2.66,1.42-3.85l.64-.82.73.74c.49.49,1.15.77,1.84.77,1.44,0,2.62-1.19,2.62-2.65s-1.17-2.65-2.62-2.65c-1.2,0-2.24.82-2.53,1.99l-.09.35-.3.2c-1.13.75-1.98,1.93-2.52,3.52l-.58,1.7-1.04-1.47c-1.18-1.66-2.45-3.17-2.46-3.19,0,0-.26.31-.65.8l-.76.95-.71-.99c-1.17-1.64-2.4-3.1-2.41-3.11-.02,0-1.27,1.51-2.44,3.15l-.71.99-.76-.95c-.4-.51-.67-.83-.68-.83,0,0-.26.31-.65.8l-.76.95-.71-.99c-1.17-1.64-2.4-3.1-2.41-3.11-.02,0-1.05,1.23-2.1,2.68l-.7.96-.75-.93c-.18-.22-.29-.35-.29-.36h0s-.23.26-.56.68l-.87,1.09-.65-1.24c-1.82-3.44-3.56-7.28-5.18-11.42l-.5-1.27h6.81l.23.59c1,2.54,3.83,3.16,5.14,3.15-.13-.13-3.19-3.15-1.34-7.11l.09-.26.23-.2c.73-.58,1.15-1.45,1.15-2.39s-.47-1.88-1.25-2.46l-.19-.14-.1-.21c-1.59-2.94,1.13-6.62,1.45-7.03-.11,0-.22.01-.33.02l-1.4.14-1.11.47c-.97.41-1.74.99-2.29,1.74l-.28.37h-1.91l-1.34-1.04-1.06-1.63c-1.46-2.24-3.53-4.74-3.76-5.02l-.99,1.2-.7-.92c-.82-1.07-1.52-1.93-1.78-2.24-.03-.01-.21.22-.53.61l-1.17,1.45-.44-1.82c-.54-2.24-1.08-4.59-1.59-6.97l-.24-1.13h4.34l.25.54c.51,1.12,1.76,2.5,4.79,2.74-.02-.03-2.5-3.19-1.35-5.76v-.25l.38-.28c.66-.49,1.05-1.27,1.05-2.08s-.35-1.52-.96-2.01l-.2-.16-.09-.25c-1.58-3.38,1.03-5.95,1.14-6.05-.11-.01-2.87-.01-4.11,2.13l-.27.46h-3.98l-.26-.48c-1.05-1.88-3.29-4.58-3.39-4.69l-.34-.23-.06-.4c-.15-.93-.29-1.86-.43-2.79l-.11-.69.63-.29c1.31-.61,2.09-1.66,2.09-2.82,0-.39-.29-2.08-4.05-7.43l-.13-.19-.03-.23c-1.27-10.23-2.29-21.18-3.03-32.53l-.06-.99h1.09c.9,0,1.62-.74,1.62-1.64v-.68c0-.9-.73-1.64-1.62-1.64h-1.33l-.05-.88c-1.01-18.04-1.06-32.14-1.03-37.37v-.6s.55-.24.55-.24c1.08-.48,1.78-1.57,1.78-2.77,0-1.68-1.35-3.05-3.01-3.05V.77c2.68,0,4.86,2.2,4.86,4.91,0,1.73-.9,3.31-2.33,4.19-.02,5.52.05,18.87.98,35.84,1.72.21,3.05,1.69,3.05,3.48v.68c0,1.63-1.1,3-2.59,3.39.72,10.91,1.71,21.44,2.93,31.31,4.26,6.1,4.26,7.77,4.26,8.32,0,1.67-.96,3.22-2.54,4.18.09.6.18,1.2.28,1.8.01.02.03.03.04.05.23.28,2.14,2.58,3.31,4.51h1.89c1.83-2.56,5.08-2.6,5.43-2.59.76.01,1.42.48,1.7,1.19.27.71.1,1.51-.45,2.03-.07.06-1.7,1.7-.78,3.81.94.84,1.47,2.04,1.47,3.31s-.59,2.58-1.6,3.42c-.48,1.27.66,3.19,1.13,3.8.45.57.53,1.37.18,2.03-.34.66-1.04,1.05-1.77.98-3.48-.27-5.2-1.83-6.04-3.27h-.91c.32,1.44.64,2.86.97,4.25.71-.3,1.6-.09,2.11.52.21.26.67.81,1.23,1.53.73-.38,1.71-.2,2.25.45.31.38,1.65,1.99,2.92,3.78.6-1.18,1.39-2.13,2.37-2.84.61-1.81,2.3-3.04,4.22-3.04,2.46,0,4.46,2.02,4.46,4.51,0,.85-.23,1.66-.66,2.36.16.14.29.31.39.51.34.65.27,1.45-.18,2.03-.63.82-2.07,3.25-1.34,4.86,1.15.93,1.83,2.34,1.83,3.82s-.61,2.76-1.67,3.69c-1.24,2.72.88,4.83.97,4.91.54.53.72,1.33.44,2.03-.28.71-.94,1.17-1.69,1.18-1.78.03-5.09-.74-6.61-3.74h-2.88c1.26,3.13,2.6,6.07,3.98,8.78.57-.41,1.37-.45,1.97-.11.84-1.1,1.53-1.93,1.54-1.94.34-.41.85-.64,1.41-.64h0c.55,0,1.06.24,1.4.65,0,0,.84,1,1.79,2.27.71-.74,1.99-.72,2.68.03.96-1.28,1.81-2.29,1.82-2.3.34-.41.85-.64,1.41-.64h0c.55,0,1.06.24,1.41.64,0,0,.84,1,1.79,2.27.34-.35.82-.55,1.33-.55h0c.55,0,1.06.23,1.41.64,0,0,.73.86,1.59,2.01.6-1.13,1.37-2.04,2.31-2.73.61-1.81,2.3-3.04,4.22-3.04,2.46,0,4.46,2.02,4.46,4.51s-2,4.51-4.46,4.51c-.8,0-1.56-.21-2.23-.6-.15.32-.26.66-.35.98.25-.04.51-.06.78-.08.73-.05,1.43.34,1.77.98.35.65.27,1.45-.18,2.03-.02.02-2.21,2.94-1.34,4.86,1.15.93,1.83,2.34,1.83,3.82s-.6,2.76-1.67,3.69c-1.24,2.73.88,4.83.97,4.92.54.53.72,1.32.44,2.03-.21.53-.63.92-1.15,1.09.1.37.22.7.35,1.01.67-.39,1.44-.6,2.23-.6,2.46,0,4.46,2.02,4.46,4.51s-2,4.51-4.46,4.51c-1.92,0-3.6-1.23-4.22-3.04-.55-.41-1.05-.89-1.49-1.46-1.53,2.74-3.48,5.56-3.73,5.92-.34.48-.9.77-1.51.77h0c-.61,0-1.17-.29-1.5-.76-.63-.9-2.51-3.64-3.93-6.27-1.43,2.63-3.31,5.37-3.94,6.27-.33.48-.9.76-1.51.76s-1.17-.29-1.51-.77c-.66-.94-2.61-3.8-4.04-6.47-1.43,2.68-3.39,5.53-4.05,6.47-.33.48-.9.77-1.51.77s-1.17-.29-1.51-.77c-.64-.91-2.53-3.68-3.96-6.32-1.43,2.64-3.33,5.41-3.96,6.32-.34.48-.9.76-1.51.76h0c-.61,0-1.17-.29-1.51-.77-.6-.85-2.38-3.45-3.79-6.01-1.55,2.93-3.73,6.12-4.46,7.16-.35.49-.91.79-1.51.79ZM173.6,193.24c-.72,0-1.3-.59-1.3-1.31,0-.35.13-.68.38-.93h0c.25-.25.57-.39.92-.39.72,0,1.3.59,1.3,1.31s-.58,1.31-1.3,1.31ZM173.22,191.54c-.1.1-.16.24-.16.39,0,.3.24.55.54.55.14,0,.29-.06.39-.16h0c.1-.1.16-.24.16-.39,0-.3-.24-.55-.54-.55-.15,0-.29.06-.39.16l.12.12-.12-.12ZM172.12,160.08c-.33,0-.65-.13-.89-.37h0c-.25-.25-.38-.58-.38-.93,0-.72.58-1.31,1.3-1.31s1.3.59,1.3,1.31c0,.52-.32.99-.81,1.2-.17.07-.34.1-.51.1ZM171.76,159.17c.1.1.23.16.38.16.3,0,.54-.25.54-.55,0-.15-.06-.29-.16-.39h0c-.16-.16-.4-.22-.6-.13-.2.08-.33.29-.33.52,0,.15.06.29.16.39l.12-.12-.12.12Z"/><path class="f" d="M205.77,294.72c0,41.38-28.09,76.12-66.04,85.8-6.88,1.76-10.34,8.56-21.49,8.56s-14.88-6.84-21.87-8.66c-37.76-9.82-65.66-44.46-65.66-85.7,0-17.72,5.15-34.23,14.03-48.06l4.36,4.49c15.16-12.25,17.13-19.32,17.13-33.92,0-8.32,6.25-15.67,6.72-16.22.03-.02.04-.03.04-.03-.02,0-.05-.02-.07-.02-1.2-.34-2.37-.45-3.51-.38.54-1.17,3.76-2.21,4.03-3.13.05-.16.09-.81.12-1.73.45.66.74,1.07.74,1.07,0,0,4.46-6.4,5.26-9.28h.53c.8,2.88,5.26,9.28,5.26,9.28,0,0,4.46-6.4,5.26-9.28h.53c.8,2.88,5.26,9.28,5.26,9.28,0,0,4.46-6.4,5.26-9.28h.53c.8,2.88,5.26,9.28,5.26,9.28,0,0,4.46-6.4,5.26-9.28h.02c.5,2.88,5.78,10.43,5.78,10.43,0,0,5.27-7.55,5.77-10.43h.02c.8,2.88,5.26,9.28,5.26,9.28,0,0,4.46-6.4,5.26-9.28h.53c.8,2.88,5.26,9.28,5.26,9.28,0,0,4.46-6.4,5.26-9.28h.53c.8,2.88,5.26,9.28,5.26,9.28,0,0,4.46-6.4,5.26-9.28h.53c.8,2.88,5.26,9.28,5.26,9.28,0,0,.71-1.01,1.6-2.41.03.43.06.71.07.74.33,1.38,3.29,3.22,3.9,5.47-1.29-.12-2.63-.02-4,.38,0,0,6.76,7.6,6.76,16.25,0,14.6,1.99,21.67,17.13,33.92l3.89-4c8.68,13.73,13.72,30.05,13.72,47.57Z"/><path class="d" d="M95.53,282.95v-13.16c0-6.17-7.96-11.99-7.96-11.99,0,0,7.88-15.16,30.76-15.16,2.96,0,5.58.18,7.89.5,0-2.38,0-4.48,0-6.21-2.36-.34-4.91-.54-7.68-.54-27.13,0-38.89,21.33-38.89,21.33,8.51,5.27,9.15,11.69,9.15,11.69v9.45c.49.24.99.52,1.47.84l5.26,3.26Z"/><path class="g" d="M118.1,365.39s-1.44,4.38-5.63,2.39c0,0,1,2.92,3.31,2.86,0,0-1.33,1.7,2.29,4.74,0,0,2.58-1.96,2.25-4.72,0,0,2.27.56,3.68-2.22,0,0-4.29,1.15-5.9-3.05"/><path class="e" d="M130.93,297.14l-4.72,2.93c0,.43,0,.87,0,1.3,2.38.7,4.9.77,7.3.19v-6.02l-2.58,1.6Z"/><path class="e" d="M126.21,309.6c0,14,0,24.23,0,24.23,0,0-.76,4.56-6.23,4.56s-6.93-4.11-6.93-5.07v-25.1l-.35.22c-1.98,1.23-4.21,1.84-6.44,1.84-.11,0-.21,0-.32,0v21.5c0,1.22.25,2.63-1.84,5.27-2.1,2.63-5.66.58-5.66.58,1.02-2.63-1.78-3.02-2.29-1.99-.51,1.03-1.02,3.34,3.18,4.82,4.19,1.48,9.09-2.44,9.09-2.44,1.72,3.15,6.23,4.88,11.56,4.88s9.85-3.98,9.85-3.98c7.37,4.85,11.06,1.03,11.88-1.29.67-1.87-1.02-3.31-2.06-2.22-1.16,1.21.41,2.09.41,2.09-.51,1.03-1.84,1.22-1.84,1.22-4.58,0-4.7-4.69-4.7-4.69v-24.2c-1.07.3-2.18.45-3.29.45-1.36,0-2.71-.23-4.01-.68"/><path class="g" d="M117.19,287.07c3.12,0,6.13.23,9.02.65,0-2.3,0-4.61,0-6.92-2.77-.31-5.65-.48-8.64-.48-1.54,0-3.05.05-4.52.13v6.75c1.36-.09,2.74-.14,4.14-.14"/><path class="g" d="M95.48,290.91l.05.03v-.05s-.03.01-.05.02"/><path class="e" d="M120.67,262.08c-3.69-2.76-7.18,2.06-7.18,2.06,0,0-4.51-6.1-9.98-7.13-5.46-1.03-7.82,3.98-6.86,6.23.95,2.25,4,1.74,4.45.51.44-1.22-.51-2.25-.51-2.25,3.3-3.41,5.34,2.31,5.34,4.24v15.47h0v16.17h0v4.56c1.92.04,3.86-.3,5.67-1.04h0c.49-.2.97-.43,1.44-.69v-6.4h0s0-6.6,0-6.6h0v-6.75h0v-11.69s0-4.43,4.77-4.24c-.32,2.06,1.53,2.42,2.42,2.31,1.08-.13,3.09-2.77.44-4.75Z"/><path class="g" d="M177.85,281.74c1.94.4,3.62-1.01,3.71-2.51,0,0-1.74,1.07-3.96-.22-3.43-1.51-3.84,2.03-8.45,2.08-.53-.07-1.1-.16-1.69-.28-3.69-.72-8.15-2.23-9.56-2.72-.29-.1-.45-.16-.45-.16,0,0-3.18-.99-7.02-.07v7.66c2.19-.69,5.18-1.08,7.97.07.06.03.13.05.19.08.1.04.2.09.3.13,3.81,1.66,8.7,3.24,12.69,2.48.24-.04.47-.1.7-.16.06-.02.12-.03.18-.05.12-.04.24-.07.36-.11.12-.04.24-.08.35-.13.11-.04.23-.09.34-.14,0,0,0,0,0,0,.11-.05.22-.1.33-.16.28-.14.55-.29.81-.47.08-.05.16-.11.24-.17.07-.05.14-.1.22-.16.02-.01,2.6-1.87,4.7-1.94-2.16-1.29-4.58-.07-5.02-1.36-.1-.3-.13-.58-.07-.82.17-.85,1.25-1.29,3.13-.9"/><path class="d" d="M102.17,324.91c-.56-.3-1.2-.34-1.77.08-.02.01-.04.03-.06.04-.74.39-1.25,1.17-1.25,2.07,0,.07,0,.14.01.21-.07,0-.15.01-.22.01-3.6,0-3.35-7.27-3.35-7.27v-14.27h0v-7.98h0s0-6.87,0-6.87l-.05-.03c-.06.02-.11.04-.16.06-2.04.75-4,1.6-5.87,2.51-.17.08-.33.17-.5.25h0s0,0,0,0c-.05.03-.1.05-.16.08v7.81h0v18.15s-.13,5.4-4.58,5.4c-3.11,0-4.11-1.5-4.42-2.41.73-.56,1.21-1.45,1.21-2.45,0-1.7-1.37-3.08-3.05-3.08-1.43,0-2.63,1-2.96,2.34-.58,2.02.41,5.42,5.2,7.87,8.64,4.41,12.2-1.54,12.2-1.54,2.71,4.62,7.93,5.32,10.17,3.51.46-.37.75-.8.89-1.25.16-.31.25-.67.25-1.04,0-1.01-.64-1.87-1.53-2.19Z"/><path class="g" d="M160.35,293.84c-.62-.44-1.25-.87-1.9-1.3-1.41-.93-2.9-1.85-4.46-2.74-.42-.24-.85-.47-1.28-.71-.74-.4-1.5-.79-2.27-1.18v12l2.72-1.68.06-.04s.04.02.06.04c10.47,6.85,17.85,15.3,21.9,20.64-5.62,7.42-17.72,20.88-35.57,27.66v2.9c-4.71,1.7-9.81,2.92-15.29,3.45-1.96.19-3.98.29-6.04.29s-4.25-.11-6.29-.31c-5.15-.51-9.92-1.62-14.32-3.14v-2.14c-19.83-6.47-32.27-21.47-37.34-28.71,3.59-5.13,10.9-14.17,21.93-21.31l1.08.67,5.47,3.39v-8.11l.16.22c.17-.08.33-.17.5-.25,1.87-.91,3.83-1.76,5.87-2.51.06-.02.11-.04.16-.06h0s0,0,0,0c.02,0,.03-.01.05-.02v.05l10.01,6.21.39.24v-7.98l-1.64-1.01s.06-.01.08-.02c.51-.11,1.03-.21,1.55-.3v-6.86c-3.39.52-6.58,1.26-9.59,2.17-.03,0-.05.01-.08.02l-.04-.02-.7-.43-5.26-3.26c-.49-.32-.98-.6-1.47-.84-4.95-2.41-9.77-.91-9.77-.91,0,0-.16.06-.45.16-1.41.49-5.86,2-9.56,2.72-.59.11-1.15.21-1.69.28-4.62-.05-5.02-3.59-8.45-2.08-2.22,1.29-3.96.22-3.96.22.08,1.5,1.77,2.91,3.71,2.51,1.88-.39,2.96.06,3.13.9.05.24.03.52-.07.82-.45,1.29-2.86.07-5.02,1.36,2.1.07,4.69,1.92,4.7,1.94.07.06.14.11.22.16.08.06.16.12.25.17.26.17.53.33.81.47.11.06.22.1.33.16,0,0,0,0,0,0,.11.05.23.1.34.14.12.04.23.09.35.13.12.04.24.08.36.11.06.02.12.03.18.05.23.06.46.11.7.16,3.99.75,8.88-.82,12.69-2.48.1-.04.2-.09.3-.13.06-.03.13-.05.19-.08,3.84-1.58,8.04-.25,10.03.77l-.03.1s-.02,0-.02,0c-1.62.73-3.18,1.5-4.67,2.3-2.04,1.1-3.95,2.26-5.73,3.46-13.58,9.1-19.93,20.08-19.93,20.08v10.6h0s0,2.5,0,2.5c0,0,9.97,17.21,31.6,26.39l-.73,1.71c6.57,3.01,14.28,5.3,23.18,6.09.42.44,3.02,3.31.28,3.82,0,0,2.45-2.59-1.91-2.6,0,0-2.09.22-4.38,1.64,0,0,1.87.15,2.81,1.5,0,0,4.52,6.77,9.64-.23,0,0,5.71,7.85,10.45.09,0,0,1.04-1.48,2.11-1.48,0,0-1.46-1.15-3.38-1.34,0,0-5.5-1.22-2.36,2.55,0,0-3.03.23-.55-3.87,8.91-.66,16.73-2.81,23.46-5.71l-1.07-2.51c21.5-9.25,31.94-26.06,31.94-26.06v-1.35h0s0-11.75,0-11.75c0,0-6.05-9.74-18.42-18.48Z"/><path class="g" d="M88.79,293.81c.05-.03.1-.05.16-.08l-.16-.1v.18Z"/><path class="g" d="M140.25,283.38l-.44.27c-2.02-.63-4.12-1.19-6.3-1.66v5.56l-1.3.81-.62.38-5.38,3.33-7.98,4.94-5.19-3.22v6.4c-.47.26-.95.49-1.44.69-1.82.74-3.75,1.09-5.67,1.04-2.49-.06-4.96-.76-7.16-2.13l-3.24-2.01v7.98l4.28,2.65c1.88,1.17,4,1.78,6.12,1.83.11,0,.21,0,.32,0,2.23,0,4.47-.61,6.44-1.84l.35-.22,5.19-3.22,5.54,3.43c.78.48,1.59.86,2.43,1.16,1.3.45,2.66.68,4.01.68,1.11,0,2.21-.15,3.29-.45,1.1-.31,2.16-.77,3.16-1.39l6.82-4.22v-7.98l-5.78,3.58c-1.32.82-2.74,1.4-4.2,1.75-2.4.57-4.92.51-7.3-.19-.45-.13-.9-.29-1.34-.47l1.34-.83,4.72-2.92,2.58-1.6,6.64-4.12c.05.02.11.04.16.06,1.08.42,2.13.87,3.17,1.34v-11.45l-3.23,2Z"/><path class="e" d="M139.04,220.13c-5.4-.83-7.5,3.92-7.5,3.92-2.29-5.01-12.71-8.03-27.39-4.5-12.74,3.07-13.27-3.59-13.19-5.4.21.11.45.17.71.17.88,0,1.59-.72,1.59-1.61s-.71-1.61-1.59-1.61c-.56,0-1.05.29-1.33.73l-.03-.09s-2.76,4.86,2.16,10.31c4.7,5.2,17.35.19,24.02,1.35,5.93,1.03,9.69,3.05,9.72,8.22,0,.61,0,40.05,0,42.87,0,0,0,0,0,0,0,6.11,0,12.1,0,13.22h0c0,1.46,0,2.91,0,4.36l5.38-3.33s0,0,0,0l.62-.38,1.3-.81v-11.36h0v-46.23c0-1.8.89-6.81,3.75-7,2.86-.19,3.11,1.86,3.11,1.86-.38.39-.51,1.8,1.08,1.93,1.59.13,2.99-5.78-2.41-6.62Z"/><path class="d" d="M118.76,419.83c10.18,0,16.53-3.96,22.14-7.46,3.06-1.91,5.95-3.71,9.15-4.62,49.93-14.09,84.8-60.58,84.8-113.04,0-13.84-2.37-27.4-7.05-40.3-4.52-12.46-11.07-24-19.47-34.29-.85-1.04-2.1-1.68-3.44-1.74-.03,0-.19,0-.23,0-1.27,0-2.46.5-3.36,1.41l-2.08,2.1c-.9-1.03-1.44-2.01-1.56-2.88-.85-6-2.45-12.66-7.93-16.51-1.72-1.21-2.26-2.15-2.36-2.56-2.05-5.91,3.79-12.57-4.38-7.7-2.35,1.4-5.46,5-6.21,6.52-3.22-2.01-6.49-3.02-9.76-3.02-1.46,0-5.66.2-6.92.97-4.11,2.51-1.42,5.69.37,7.48.04.04,5.54,6.44,5.54,13.04,0,7.86.56,13.93,3.34,19.89,2.72,5.83,7.38,11.15,15.58,17.78.84.68,1.89,1.05,2.97,1.05,1.29,0,2.49-.51,3.39-1.44l.05-.05c6.68,12.28,10.2,26.14,10.2,40.25,0,38.21-25.53,71.54-62.09,81.05-3.4.88-6.08,2.64-8.46,4.2-3.53,2.31-6.57,4.31-12.24,4.31h-.53c-5.66,0-8.71-2-12.24-4.31-2.37-1.56-5.06-3.32-8.46-4.2-36.56-9.51-62.09-42.84-62.09-81.05,0-14.11,3.52-27.97,10.2-40.25l.05.05c.9.93,2.11,1.44,3.39,1.44,1.07,0,2.13-.37,2.97-1.05,8.2-6.63,12.86-11.95,15.58-17.78,2.78-5.96,3.34-12.03,3.34-19.89,0-6.6,5.49-12.99,5.54-13.04,1.79-1.79,4.48-4.97.37-7.48-1.25-.77-5.46-.97-6.92-.97-3.27,0-6.54,1.01-9.76,3.02-.74-1.52-3.85-5.11-6.21-6.52-8.17-4.87-2.33,1.79-4.38,7.7-.1.41-.64,1.35-2.36,2.56-5.48,3.85-7.08,10.51-7.93,16.51-.12.87-.66,1.85-1.56,2.88l-2.08-2.1c-.9-.91-2.09-1.41-3.36-1.41-.03,0-.2,0-.23,0-1.33.07-2.59.7-3.44,1.74-8.4,10.29-14.95,21.83-19.47,34.29-4.68,12.9-7.05,26.46-7.05,40.3,0,52.46,34.87,98.95,84.8,113.04,3.2.9,6.09,2.71,9.15,4.62,5.61,3.49,11.96,7.46,22.14,7.46h.53Z"/><path class="h" d="M118.76,421.23h-.53c-10.57,0-17.1-4.07-22.86-7.66-2.98-1.86-5.79-3.61-8.8-4.46C36.05,394.85.76,347.81.76,294.72c0-14,2.4-27.72,7.14-40.78,4.57-12.61,11.2-24.28,19.7-34.7,1.1-1.34,2.72-2.16,4.44-2.25.04,0,.25,0,.29,0,1.64,0,3.18.65,4.34,1.82l.94.95c.19-.34.31-.66.35-.94.89-6.3,2.6-13.3,8.51-17.46,1.56-1.09,1.81-1.78,1.82-1.78.01-.04.01-.06.03-.09.68-1.97.32-4.12.04-5.85-.29-1.76-.55-3.28.65-4.11,1.23-.86,2.89-.16,5.7,1.52,2.1,1.25,4.61,3.93,5.96,5.84,3.06-1.68,6.18-2.54,9.3-2.54.23,0,5.75.01,7.63,1.17,1.69,1.03,2.63,2.31,2.8,3.81.27,2.36-1.5,4.45-2.88,5.83-.35.42-5.16,6.28-5.16,12.08,0,8.05-.58,14.29-3.47,20.49-2.82,6.04-7.59,11.51-15.97,18.28-1.09.88-2.45,1.36-3.83,1.36-1.07,0-2.09-.27-2.99-.78-6.07,11.71-9.27,24.86-9.27,38.15,0,37.57,25.11,70.35,61.05,79.69,3.62.94,6.41,2.77,8.87,4.38,3.49,2.29,6.24,4.09,11.48,4.09h.53c5.25,0,7.99-1.8,11.47-4.08,2.47-1.62,5.26-3.45,8.88-4.39,35.95-9.35,61.05-42.12,61.05-79.69,0-13.29-3.2-26.44-9.27-38.15-.9.51-1.92.78-2.99.78-1.38,0-2.74-.48-3.83-1.36-8.38-6.78-13.15-12.24-15.97-18.28-2.89-6.2-3.47-12.43-3.47-20.49,0-5.8-4.81-11.66-5.16-12.08-1.38-1.38-3.16-3.48-2.88-5.83.17-1.49,1.12-2.77,2.8-3.8,1.89-1.16,7.4-1.17,7.63-1.17,3.12,0,6.24.85,9.3,2.54,1.35-1.9,3.86-4.58,5.96-5.84,2.81-1.68,4.47-2.37,5.7-1.52,1.2.83.95,2.35.65,4.11-.29,1.73-.65,3.88.04,5.85.01.04.03.08.04.12h0s.27.68,1.81,1.76c5.91,4.16,7.62,11.16,8.51,17.46.04.28.16.59.35.94l.94-.95c1.16-1.17,2.7-1.82,4.34-1.82.04,0,.25,0,.29,0,1.72.08,3.34.9,4.44,2.25,8.5,10.42,15.13,22.09,19.7,34.7,4.74,13.06,7.14,26.78,7.14,40.78,0,53.09-35.29,100.12-85.82,114.39-3.01.85-5.82,2.6-8.8,4.46-5.77,3.59-12.3,7.66-22.87,7.66ZM32.33,219.79h-.17c-.93.05-1.82.5-2.43,1.24-8.3,10.17-14.77,21.57-19.24,33.88-4.62,12.75-6.97,26.14-6.97,39.82,0,51.84,34.46,97.77,83.79,111.69,3.39.96,6.36,2.81,9.5,4.77,5.45,3.4,11.63,7.25,21.41,7.25h.53c9.78,0,15.96-3.85,21.41-7.25,3.15-1.96,6.12-3.82,9.51-4.78,49.34-13.93,83.79-59.86,83.79-111.69,0-13.67-2.34-27.07-6.97-39.82-4.46-12.31-10.94-23.71-19.24-33.88-.6-.74-1.49-1.19-2.44-1.23h-.16c-.9,0-1.74.35-2.38,1l-2.08,2.1c-.27.27-.65.41-1.02.41-.38-.01-.74-.18-.99-.47-1.09-1.25-1.73-2.46-1.89-3.61-.81-5.71-2.31-12.02-7.35-15.56-2.1-1.47-2.71-2.67-2.89-3.29-.9-2.63-.46-5.26-.14-7.19.05-.31.11-.67.15-.99-.47.2-1.21.57-2.38,1.27-2.14,1.28-5.08,4.72-5.67,5.93-.17.35-.48.62-.86.72-.38.11-.78.05-1.11-.15-2.99-1.87-6.03-2.81-9.03-2.81-2.29,0-5.5.33-6.2.76-.92.56-1.42,1.15-1.49,1.74-.15,1.29,1.56,2.99,2.12,3.55.07.07,5.95,6.86,5.95,14.03,0,7.67.54,13.57,3.21,19.29,2.62,5.63,7.17,10.8,15.19,17.29.6.48,1.34.74,2.1.74.91,0,1.77-.36,2.41-1.02.31-.32.77-.5,1.2-.43.43.06.84.3,1.05.69,6.78,12.48,10.37,26.63,10.37,40.93,0,38.85-25.96,72.73-63.13,82.4-3.18.83-5.77,2.52-8.05,4.02-3.57,2.34-6.92,4.54-12.99,4.54h-.53c-6.06,0-9.42-2.2-12.98-4.53-2.29-1.5-4.88-3.2-8.06-4.02-37.17-9.67-63.13-43.55-63.13-82.4,0-14.3,3.59-28.45,10.37-40.93.21-.39.59-.65,1.03-.71.43-.06.87.1,1.18.42.68.7,1.53,1.06,2.44,1.06.76,0,1.51-.26,2.11-.75,8.02-6.49,12.57-11.66,15.19-17.29,2.67-5.73,3.21-11.63,3.21-19.29,0-7.17,5.88-13.97,5.94-14.03.57-.57,2.27-2.26,2.12-3.56-.07-.59-.57-1.18-1.49-1.74-.7-.43-3.91-.76-6.2-.76-3,0-6.04.95-9.03,2.81-.33.21-.73.26-1.11.15-.37-.11-.69-.37-.86-.72-.59-1.22-3.53-4.66-5.67-5.93-1.17-.7-1.91-1.07-2.38-1.27.04.32.1.68.15.99.32,1.92.76,4.56-.14,7.19-.18.62-.79,1.82-2.89,3.29-5.04,3.54-6.54,9.86-7.35,15.56-.16,1.15-.8,2.36-1.89,3.61-.25.29-.61.46-.99.47-.38,0-.75-.14-1.02-.41l-2.08-2.1c-.64-.64-1.48-1-2.38-1Z"/><path class="h" d="M118.24,416.05c-9.13,0-14.74-3.5-20.18-6.89-3.3-2.06-6.41-3.99-10.11-5.04-48.32-13.64-82.07-58.63-82.07-109.4,0-26.27,9.12-51.9,25.67-72.18.18-.22.45-.36.73-.37.33,0,.58.11.77.3l4.58,4.63c2.29-1.76,4.96-4.43,5.4-7.55.73-5.2,2.06-10.92,6.36-13.94,5.22-3.67,3.86-6.78,3.8-6.91-.21-.45-.07-.98.33-1.27.4-.29.94-.25,1.29.09.03.03,3.27,3.23,3.15,7.76,3.24-3.16,8.87-7.16,15.3-5.3.34.1.6.36.69.7.1.34.02.7-.22.97-.26.3-6.5,7.51-6.5,15.57,0,15.43-2.53,22.61-17.52,34.72-.41.33-.99.3-1.35-.08l-3.47-3.57c-8.63,13.9-13.19,29.94-13.19,46.43,0,39.94,26.69,74.77,64.9,84.71,2.81.73,5.02,2.18,7.36,3.71,3.69,2.42,7.5,4.91,14.26,4.91s10.35-2.47,13.96-4.85c2.32-1.53,4.5-2.97,7.29-3.68,38.44-9.81,65.28-44.68,65.28-84.81,0-16.28-4.45-32.15-12.88-45.93l-2.98,3.08c-.37.38-.95.41-1.36.08-14.98-12.12-17.52-19.3-17.52-34.72,0-8.09-6.43-15.49-6.5-15.57-.23-.26-.32-.63-.22-.97.09-.33.35-.6.69-.7,6.44-1.87,12.06,2.14,15.3,5.3-.12-4.52,3.12-7.73,3.16-7.76.35-.34.9-.38,1.29-.08.39.29.53.83.31,1.27-.06.13-1.42,3.23,3.8,6.9,4.3,3.02,5.63,8.74,6.36,13.94.35,2.45,2.05,4.9,5.05,7.28l4.22-4.27c.19-.19.46-.3.74-.3.31.02.57.15.75.37h0c16.5,20.26,25.59,45.86,25.59,72.08,0,50.64-33.63,95.59-81.79,109.32-3.72,1.06-6.84,3-10.14,5.05-5.5,3.42-11.19,6.96-20.42,6.96ZM32.29,223.11c-16.45,20.14-25.49,45.57-25.49,71.62,0,50.36,33.47,94.97,81.39,108.5,3.83,1.08,6.99,3.05,10.34,5.14,5.33,3.33,10.84,6.76,19.7,6.76s14.55-3.47,19.94-6.82c3.37-2.09,6.54-4.06,10.38-5.16,47.76-13.62,81.11-58.2,81.11-108.42,0-26-9.01-51.39-25.38-71.49h0s-.04-.03-.07-.03c-.02,0-.06.02-.07.03l-4.51,4.56c-.16.16-.42.18-.6.04-3.41-2.61-5.33-5.35-5.73-8.14-.71-5-1.97-10.49-5.98-13.31-5.86-4.12-4.18-7.91-4.11-8.06.02-.04,0-.09-.03-.12-.04-.03-.08-.02-.11,0-.04.04-3.58,3.54-2.75,8.27.04.2-.06.4-.25.5-.18.09-.4.05-.54-.1-2.87-3.06-8.67-7.9-15.3-5.98-.03,0-.05.03-.06.06,0,.03,0,.06.02.09.28.31,6.73,7.75,6.73,16.19,0,15.09,2.48,22.12,17.17,33.99.04.03.09.03.12,0l3.39-3.5c.1-.1.24-.16.38-.14.14.01.27.09.34.22,8.72,14.05,13.34,30.28,13.34,46.93,0,40.56-27.13,75.8-65.98,85.71-2.63.67-4.76,2.07-7.01,3.56-3.72,2.46-7.58,5-14.46,5s-10.96-2.57-14.76-5.06c-2.28-1.49-4.43-2.9-7.09-3.6-38.62-10.05-65.59-45.25-65.59-85.61,0-16.86,4.72-33.26,13.64-47.42.08-.12.2-.2.34-.21.14-.02.28.04.38.14l3.87,3.99s.08.04.12,0c14.69-11.88,17.17-18.9,17.17-33.99,0-8.4,6.46-15.87,6.73-16.19.02-.03.03-.06.02-.09,0-.03-.03-.06-.06-.07-6.63-1.92-12.43,2.92-15.3,5.98-.14.15-.36.19-.54.1-.18-.09-.28-.29-.25-.5.83-4.73-2.71-8.23-2.75-8.27-.03-.03-.08-.03-.11,0-.03.02-.05.07-.03.12.07.16,1.74,3.95-4.11,8.07-4.01,2.82-5.27,8.31-5.98,13.31-.51,3.59-3.59,6.55-6.08,8.41-.18.14-.44.12-.6-.05l-4.87-4.92s-.08-.03-.1-.03Z"/><path class="f" d="M29.2,253.49c-1.59,0-2.89-1.31-2.89-2.92s1.3-2.92,2.89-2.92,2.89,1.31,2.89,2.92-1.3,2.92-2.89,2.92M29.2,248.76c-.99,0-1.79.81-1.79,1.81s.8,1.81,1.79,1.81,1.79-.81,1.79-1.81-.8-1.81-1.79-1.81"/><path class="f" d="M24.34,254.5c-1.72,0-2.88-3.12-3.09-3.75l-.06-.18.06-.18c.21-.63,1.36-3.75,3.09-3.75s3.12,1.76,3.12,3.93-1.4,3.93-3.12,3.93M22.36,250.56c.45,1.24,1.35,2.82,1.98,2.82,1.11,0,2.02-1.26,2.02-2.82s-.91-2.82-2.02-2.82c-.64,0-1.53,1.58-1.98,2.82"/><path class="f" d="M34.01,254.5c-1.72,0-3.12-1.76-3.12-3.93s1.4-3.93,3.12-3.93,2.88,3.12,3.09,3.75l.06.18-.06.18c-.21.63-1.37,3.75-3.09,3.75M34.01,247.75c-1.11,0-2.02,1.26-2.02,2.82s.9,2.82,2.02,2.82c.64,0,1.53-1.58,1.98-2.82-.45-1.24-1.35-2.82-1.98-2.82"/><path class="f" d="M29.2,248.72c-2.14,0-3.89-1.41-3.89-3.15s3.09-2.91,3.71-3.12l.18-.06.18.06c.62.22,3.71,1.38,3.71,3.12s-1.75,3.15-3.89,3.15M29.2,243.57c-1.22.46-2.79,1.36-2.79,2,0,1.12,1.25,2.04,2.79,2.04s2.78-.92,2.78-2.04c0-.64-1.56-1.55-2.78-2"/><path class="f" d="M37.31,250.31c-.31-.92-1.48-3.9-3.31-3.9-.3,0-.59.05-.87.15.12-.31.18-.64.18-.98,0-1.9-3.22-3.12-3.86-3.34l-.18-.06s-.05-.01-.08-.01-.05,0-.08.01l-.18.06c-.64.22-3.86,1.44-3.86,3.34,0,.35.06.68.18,1-.29-.1-.6-.16-.92-.16-1.83,0-2.99,2.99-3.3,3.9l-.06.18s-.02.1,0,.15l.06.18c.31.92,1.47,3.91,3.3,3.91.31,0,.62-.06.91-.16-.11.3-.17.62-.17.95,0,1.91,3.22,3.12,3.86,3.34l.18.06s.05.01.07.01.05,0,.07-.01l.18-.06c.91-.31,3.86-1.49,3.86-3.34,0-.32-.06-.63-.16-.93.27.09.56.14.86.14,1.83,0,2.99-2.99,3.31-3.9l.06-.18s.02-.1,0-.15l-.06-.18ZM29.2,252.13s-.05,0-.07,0c-.71-.03-1.3-.55-1.45-1.23,0-.11.01-.22.01-.34s0-.23-.01-.34c.15-.71.78-1.24,1.52-1.24.7,0,1.29.47,1.48,1.11-.01.15-.02.3-.02.46s0,.31.02.46c-.19.62-.74,1.08-1.41,1.11-.02,0-.05,0-.07,0ZM29.2,243.81c1.35.52,2.56,1.35,2.56,1.76,0,1-1.15,1.81-2.56,1.81s-2.56-.81-2.56-1.81c0-.41,1.21-1.24,2.56-1.76ZM22.6,250.57c.51-1.36,1.33-2.59,1.74-2.59.91,0,1.66,1,1.77,2.28-.01.1-.03.2-.03.31s.02.21.03.31c-.11,1.28-.85,2.28-1.77,2.28-.41,0-1.22-1.22-1.74-2.59ZM29.2,257.27c-1.35-.52-2.56-1.35-2.56-1.76,0-.98,1.12-1.78,2.5-1.8.02,0,.04,0,.06,0s.04,0,.06,0c1.38.02,2.5.82,2.5,1.8,0,.41-1.21,1.24-2.56,1.76ZM34.01,253.15c-.86,0-1.57-.88-1.75-2.04.03-.18.05-.36.05-.55s-.02-.37-.05-.55c.17-1.16.89-2.04,1.75-2.04.41,0,1.22,1.22,1.74,2.59-.52,1.36-1.33,2.59-1.74,2.59Z"/><path class="f" d="M29.2,258.7l-.18-.06c-.62-.22-3.71-1.38-3.71-3.12s1.75-3.15,3.89-3.15,3.89,1.41,3.89,3.15-3.09,2.91-3.71,3.12l-.18.06ZM29.2,253.48c-1.54,0-2.79.92-2.79,2.04,0,.64,1.56,1.55,2.79,2.01,1.22-.46,2.78-1.36,2.78-2.01,0-1.12-1.25-2.04-2.78-2.04"/><path class="f" d="M207.63,253.49c-1.59,0-2.89-1.31-2.89-2.92s1.3-2.92,2.89-2.92,2.89,1.31,2.89,2.92-1.3,2.92-2.89,2.92M207.63,248.76c-.99,0-1.79.81-1.79,1.81s.8,1.81,1.79,1.81,1.79-.81,1.79-1.81-.8-1.81-1.79-1.81"/><path class="f" d="M202.77,254.5c-1.72,0-2.88-3.12-3.09-3.75l-.06-.18.06-.18c.21-.63,1.37-3.75,3.09-3.75s3.12,1.76,3.12,3.93-1.4,3.93-3.12,3.93M200.79,250.57c.45,1.24,1.35,2.82,1.98,2.82,1.11,0,2.02-1.26,2.02-2.82s-.91-2.82-2.02-2.82c-.64,0-1.53,1.58-1.98,2.82"/><path class="f" d="M212.44,254.5c-1.72,0-3.12-1.76-3.12-3.93s1.4-3.93,3.12-3.93,2.88,3.12,3.09,3.75l.06.18-.06.18c-.21.63-1.37,3.75-3.09,3.75M212.44,247.75c-1.11,0-2.02,1.26-2.02,2.82s.9,2.82,2.02,2.82c.64,0,1.53-1.58,1.98-2.82-.45-1.24-1.35-2.82-1.98-2.82"/><path class="f" d="M207.63,248.72c-2.14,0-3.89-1.41-3.89-3.15s3.09-2.91,3.71-3.12l.18-.06.18.06c.62.22,3.71,1.38,3.71,3.12s-1.74,3.15-3.89,3.15M207.63,243.57c-1.22.46-2.79,1.36-2.79,2,0,1.12,1.25,2.04,2.79,2.04s2.78-.92,2.78-2.04c0-.64-1.56-1.55-2.78-2"/><path class="f" d="M215.74,250.31c-.31-.92-1.47-3.9-3.31-3.9-.3,0-.59.05-.87.15.12-.31.18-.64.18-.98,0-1.9-3.22-3.12-3.86-3.34l-.18-.06s-.05-.01-.08-.01-.05,0-.08.01l-.18.06c-.65.22-3.86,1.44-3.86,3.34,0,.35.06.68.18,1-.29-.1-.6-.16-.92-.16-1.84,0-2.99,2.99-3.31,3.9l-.06.18s-.02.1,0,.15l.06.18c.22.65,1.42,3.91,3.31,3.91.31,0,.62-.06.91-.16-.11.3-.17.62-.17.95,0,1.86,2.96,3.03,3.86,3.34l.18.06s.05.01.07.01.05,0,.07-.01l.18-.06c.65-.22,3.86-1.44,3.86-3.34,0-.32-.06-.64-.16-.93.27.09.56.14.86.14,1.83,0,2.99-2.99,3.31-3.9l.06-.18s.02-.1,0-.15l-.06-.18ZM207.63,252.13s-.05,0-.07,0c-.71-.03-1.3-.55-1.45-1.23,0-.11.01-.22.01-.34s0-.23-.01-.34c.15-.71.78-1.24,1.52-1.24.7,0,1.29.47,1.48,1.12-.01.15-.02.3-.02.46s0,.31.02.46c-.19.62-.74,1.08-1.41,1.11-.02,0-.05,0-.07,0ZM207.63,243.81c1.35.52,2.56,1.35,2.56,1.76,0,1-1.15,1.81-2.56,1.81s-2.56-.81-2.56-1.81c0-.41,1.21-1.24,2.56-1.76ZM201.04,250.57c.52-1.36,1.33-2.59,1.74-2.59.91,0,1.66.99,1.77,2.27-.01.11-.03.21-.03.32s.02.21.03.32c-.11,1.28-.86,2.27-1.77,2.27-.41,0-1.22-1.22-1.74-2.58ZM207.63,257.27c-1.35-.52-2.56-1.35-2.56-1.76,0-.98,1.12-1.78,2.5-1.8.02,0,.04,0,.06,0s.04,0,.06,0c1.38.02,2.5.82,2.5,1.8,0,.41-1.21,1.24-2.56,1.76ZM212.44,253.15c-.86,0-1.57-.88-1.75-2.04.03-.18.05-.36.05-.55s-.02-.37-.05-.55c.17-1.16.89-2.04,1.75-2.04.41,0,1.22,1.22,1.74,2.59-.52,1.36-1.33,2.59-1.74,2.59Z"/><path class="f" d="M207.63,258.7l-.18-.06c-.62-.22-3.71-1.38-3.71-3.12s1.74-3.15,3.89-3.15,3.89,1.41,3.89,3.15-3.09,2.91-3.71,3.12l-.18.06ZM207.63,253.48c-1.54,0-2.79.92-2.79,2.04,0,.64,1.56,1.55,2.79,2.01,1.22-.46,2.78-1.36,2.78-2.01,0-1.12-1.25-2.04-2.78-2.04"/><path class="h" d="M163.48,158.77l-.43-.52s-.07-.06-.12-.06-.09.02-.12.06l-.63.76c-.16.2-.38.46-.63.77-1.07-1.54-2.26-2.96-2.6-3.37l-.44-.52s-.07-.05-.12-.05h0s-.09.02-.12.06l-.43.52c-.15.18-1.46,1.73-2.62,3.4-.38-.48-.68-.85-.85-1.04l-.43-.52s-.07-.05-.12-.06h0s-.09.02-.12.05l-.44.52-.19.24c-.16.2-.38.46-.63.77-1.07-1.54-2.26-2.96-2.6-3.37l-.43-.52s-.07-.06-.12-.06-.09.02-.12.06l-.43.52c-.34.4-1.33,1.6-2.28,2.93-.18-.23-.9-1.09-.9-1.09-.03-.03-.07-.06-.12-.06s-.09.02-.12.06l-.63.76c-.16.2-.38.46-.63.77-1.06-1.52-2.25-2.96-2.6-3.37l-.43-.52s-.07-.05-.12-.06h0s-.09.02-.12.05l-.44.52c-.61.73-1.5,1.83-2.34,2.99l-.95-1.15s-.07-.06-.12-.06-.09.02-.12.06l-.63.76c-.16.2-.38.46-.63.77-1.07-1.54-2.26-2.96-2.6-3.37l-.44-.52s-.07-.05-.12-.05h0s-.09.02-.12.06l-.43.52c-.48.56-1.52,1.84-2.44,3.14-.21-.26-.39-.48-.52-.64l-.55-.66s-.07-.06-.12-.06-.09.02-.12.06l-.61.73c-.17.2-.39.47-.65.8-1.07-1.54-2.26-2.96-2.6-3.37l-.43-.52s-.07-.05-.12-.06h0s-.09.02-.12.05l-.44.52c-.13.15-1.23,1.46-2.3,2.96-.69-.89-1.27-1.59-1.54-1.91l-.44-.51s-.07-.05-.11-.05h0s-.09.02-.11.05l-.45.53c-.3.36-.99,1.19-1.77,2.22-1.04-1.49-2.2-2.88-2.54-3.28l-.43-.52s-.07-.06-.12-.06-.09.02-.12.06l-.43.52c-.15.18-1.46,1.74-2.64,3.43-.39-.49-.71-.87-.88-1.07l-.43-.52s-.07-.06-.12-.06-.09.02-.12.06l-.43.52c-.16.19-.45.53-.81.99-1.07-1.53-2.24-2.94-2.58-3.35l-.43-.52s-.07-.05-.12-.06h0s-.09.02-.12.05l-.44.52c-.15.18-1.46,1.74-2.64,3.43-.29-.37-.54-.67-.72-.88l-.59-.71s-.07-.06-.12-.06-.09.02-.12.06l-.43.52c-.1.11-.25.29-.43.52-1.02-1.42-2.04-2.64-2.24-2.88l-.43-.52s-.07-.06-.12-.06-.09.02-.12.06l-.43.52c-.15.18-1.47,1.75-2.64,3.43-.29-.37-.55-.68-.72-.89l-.59-.7s-.07-.05-.12-.05h0s-.09.02-.12.06l-.43.52c-.11.13-.27.32-.48.58-.65-.9-1.42-1.89-2.3-2.94l-.43-.52s-.07-.06-.12-.06-.09.02-.12.06l-.43.52c-.15.18-1.47,1.74-2.64,3.43-.29-.37-.54-.67-.72-.88l-.6-.71s-.07-.05-.12-.05h0s-.09.02-.12.06l-.43.52c-.13.15-.33.4-.59.72-.97-1.35-2-2.59-2.4-3.08l-.43-.52s-.07-.06-.12-.06-.09.02-.12.06l-.43.52c-.15.18-1.46,1.74-2.64,3.43-.29-.37-.55-.68-.72-.89l-.58-.7s-.07-.05-.12-.06h0s-.09.02-.12.05l-.44.52c-.75.89-4.49,5.42-4.49,7.17,0,.04.02.08.04.11.03.03.07.04.11.04h1.14c.08,0,.15-.07.15-.15,0-.73,1.79-3.32,3.61-5.57.21.26.43.54.65.83.19.24.37.48.56.73l.18.23c1.39,1.88,2.22,3.29,2.22,3.78,0,.08.13.15.21.15h1.14c.08,0,.15-.07.15-.15,0-.52.96-2.11,2.5-4.16.24-.33.49-.65.73-.96.12-.15.24-.31.36-.45.21.26.44.54.66.83.25.32.49.64.73.97,1.11,1.5,1.85,2.68,2.11,3.36-.04.16-.06.29-.06.41,0,.08.07.15.15.15h1.3c.08,0,.15-.07.15-.15,0-.12-.02-.26-.05-.42.3-.76,1.21-2.18,2.52-3.9.22-.3.45-.6.68-.88,0,0,.26-.33.29-.37.21.26.44.54.65.83.25.32.49.64.73.97,1,1.35,1.73,2.48,2.05,3.19-.07.23-.1.41-.1.57,0,.08.07.15.15.15h1.4c.08,0,.15-.07.15-.15,0-.16-.03-.35-.1-.57.36-.81,1.27-2.2,2.51-3.82.22-.3.44-.58.66-.86l.26-.32c.21.26.43.54.65.83.19.24.38.49.56.74l.17.22c1.39,1.88,2.22,3.29,2.22,3.78,0,.08.07.15.15.15h1.6c.08,0,.15-.07.15-.15,0-.5.85-1.94,2.28-3.87.24-.33.48-.65.73-.96.19-.25.39-.5.58-.73.21.26.44.54.65.83.25.32.49.64.73.97,1.41,1.91,2.22,3.28,2.22,3.77,0,.08.07.15.15.15h1.68c.08,0,.15-.07.15-.15,0-.53.79-1.95,2.17-3.89.23-.33.48-.66.73-.99.47-.63,1-1.32,1.54-1.99.42.52.86,1.07,1.29,1.65.24.32.48.64.72.97,1.51,2.07,2.4,3.61,2.43,4.25,0,.08.08.15.16.15h1.14c.08,0,.15-.11.15-.19h0c.05-.54.87-1.92,2.25-3.8l.17-.23c.19-.25.37-.5.57-.74.2-.26.4-.52.6-.76.13.17.27.34.41.52.25.31.5.63.74.95,1.52,2.01,2.46,3.58,2.46,4.1,0,.08.13.15.21.15h1.14c.08,0,.15-.07.15-.15,0-.49.82-1.89,2.26-3.84.23-.32.48-.65.73-.96.2-.26.4-.52.6-.76.09.12.19.23.29.36.25.31.5.63.74.95,1.29,1.71,2.19,3.1,2.47,3.85-.04.16-.05.29-.05.4,0,.08.07.15.15.15h1.29c.08,0,.15-.07.15-.15,0-.12-.02-.25-.05-.4.27-.68,1.05-1.93,2.17-3.43.23-.32.48-.65.73-.96.2-.26.4-.52.6-.76l.23.28s.03.04.04.06c.23.29.46.59.69.9,1.21,1.58,2.11,2.94,2.46,3.75-.07.22-.1.41-.1.57,0,.08.07.15.15.15h1.4c.08,0,.15-.07.15-.15,0-.16-.03-.35-.1-.57.31-.71,1.05-1.86,2.09-3.25l.16-.21c.19-.25.38-.51.58-.76.2-.26.41-.52.61-.77.21.26.42.53.62.8.25.32.5.64.73.97,1.4,1.9,2.24,3.32,2.24,3.8,0,.08.07.15.15.15h1.59c.08,0,.15-.07.15-.15,0-.49.85-1.92,2.27-3.84.23-.32.48-.65.73-.96.2-.26.4-.52.6-.76,1.81,2.24,3.6,4.83,3.6,5.57,0,.08.07.15.15.15h1.14c.08,0,.15-.07.15-.15,0-1.75-3.74-6.28-4.49-7.17ZM160.63,160.98c-.74.98-1.69,2.31-2.25,3.43-.44-.87-1.19-2.01-2.21-3.39.62-.92,1.43-2,2.23-3,.78.96,1.58,2.03,2.23,2.96ZM151.52,160.98c-.8,1.06-1.43,1.98-1.88,2.76-.65-1.12-1.55-2.34-2.24-3.22.61-.86,1.28-1.73,1.9-2.5.75.93,1.55,2,2.22,2.97ZM143.15,160.98c-.85,1.14-1.49,2.08-1.94,2.86-.5-.88-1.25-1.97-2.23-3.25.57-.82,1.26-1.72,1.95-2.58.74.92,1.54,1.99,2.22,2.97ZM134.66,160.98c-.64.84-1.47,2.01-2.05,3.05-.62-1.11-1.53-2.38-2.23-3.3.58-.84,1.31-1.79,2.05-2.72.78.96,1.58,2.03,2.23,2.96ZM125.95,160.98c-.87,1.15-1.53,2.14-1.98,2.95-.49-.92-1.22-2.04-2.18-3.35.59-.83,1.28-1.74,1.94-2.56.75.93,1.55,1.99,2.22,2.97ZM115.53,160.92c-.74,1.02-1.67,2.41-2.21,3.55-.43-.88-1.18-2.03-2.22-3.42.77-1.15,1.7-2.34,2.26-3.03.78.96,1.56,2.01,2.17,2.9ZM106.45,160.96c-.75,1-1.7,2.35-2.26,3.46-.44-.87-1.18-2-2.2-3.37.64-.94,1.46-2.03,2.26-3.02.83,1.04,1.6,2.07,2.2,2.94ZM97.74,160.46c-.7.9-1.62,2.16-2.28,3.28-.57-.95-1.29-1.97-1.84-2.7.66-.97,1.48-2.06,2.26-3.02.61.75,1.26,1.61,1.86,2.45ZM89.3,160.53c-.7.91-1.62,2.17-2.27,3.3-.45-.78-1.09-1.72-1.89-2.8.67-.97,1.48-2.06,2.26-3.02.64.8,1.31,1.68,1.91,2.52ZM80.7,160.68c-1.02,1.34-1.78,2.46-2.27,3.36-.45-.82-1.12-1.82-2-3,.63-.93,1.44-2.02,2.26-3.02.72.89,1.43,1.83,2.01,2.66Z"/><path class="h" d="M123.86,84.6l-.46-.64-.46.64c-.27.38-.96,1.34-1.72,2.5-1.02-1.79-2.03-3.35-2.24-3.68l-.48-.73-.48.73c-.21.33-1.22,1.9-2.24,3.68-.76-1.16-1.44-2.12-1.72-2.5l-.46-.64-.46.64c-.75,1.04-4.52,6.36-4.52,8.29,0,2.15,2.24,3.89,4.99,3.89.91,0,1.76-.19,2.5-.53.71.34,1.53.53,2.4.53s1.68-.19,2.4-.53c.74.34,1.59.53,2.5.53,2.75,0,4.99-1.74,4.99-3.89,0-1.93-3.77-7.24-4.52-8.29ZM113.6,95.63c-2.13,0-3.85-1.23-3.85-2.74,0-1.1,2.2-4.6,3.85-6.96.49.71,1.03,1.51,1.55,2.33-.89,1.67-1.64,3.35-1.64,4.27,0,1.14.53,2.17,1.39,2.94-.4.11-.84.16-1.3.16ZM118.5,95.63c-.42,0-.82-.05-1.19-.15-.44-.12-.84-.29-1.19-.52-.9-.56-1.46-1.44-1.46-2.42,0-.58.49-1.77,1.2-3.14h0c.2-.38.41-.78.63-1.18.65-1.17,1.37-2.39,2.02-3.41.65,1.03,1.37,2.24,2.02,3.41.22.4.43.8.63,1.17h0c.71,1.37,1.2,2.56,1.2,3.15,0,.98-.57,1.86-1.46,2.42-.35.23-.75.41-1.19.52-.37.1-.77.15-1.19.15ZM123.4,95.63c-.46,0-.9-.05-1.3-.16.86-.77,1.39-1.8,1.39-2.94,0-.92-.75-2.6-1.64-4.27.52-.81,1.06-1.63,1.55-2.32,1.65,2.36,3.85,5.86,3.85,6.96,0,1.51-1.73,2.74-3.85,2.74Z"/><path class="g" d="M134.15,105.29c-.18.36-.33.78-.39,1.29l-.05.36-.27.09h-29.9l-.27-.09-.05-.36c-.06-.51-.2-.93-.39-1.29h31.3Z"/><path class="g" d="M133.49,116.27h-29.98c.17-.5.18-.88.18-.92v-.43l.4-.13s.23-.08.49-.26h27.83c.27.18.46.25.49.26l.4.13v.43s0,.42.18.92Z"/><path class="g" d="M103.79,175.26c0,2.29-1.83,4.14-4.1,4.14s-4.1-1.85-4.1-4.14,1.84-4.14,4.1-4.14,4.1,1.85,4.1,4.14"/><path class="g" d="M87.18,175.26c0,2.29-1.83,4.14-4.1,4.14s-4.1-1.85-4.1-4.14,1.84-4.14,4.1-4.14,4.1,1.85,4.1,4.14"/><path class="g" d="M156.81,175.26c0,2.29-1.84,4.14-4.1,4.14s-4.1-1.85-4.1-4.14,1.84-4.14,4.1-4.14,4.1,1.85,4.1,4.14"/><path class="g" d="M140.2,175.26c0,2.29-1.83,4.14-4.1,4.14s-4.1-1.85-4.1-4.14,1.84-4.14,4.1-4.14,4.1,1.85,4.1,4.14"/><path class="d" d="M141.27,133.78h1.32s.04-3.88,2.34-5.59c.13.27.3.52.52.74.49.5,1.15.77,1.85.77,1.44,0,2.62-1.19,2.62-2.65s-1.17-2.65-2.62-2.65c-1.34,0-2.45,1.03-2.6,2.34-3.38,1.89-3.42,6.8-3.42,7.02M146.37,128c-.25-.25-.38-.58-.38-.93,0-.72.58-1.31,1.3-1.31s1.3.59,1.3,1.31-.58,1.31-1.3,1.31c-.35,0-.67-.14-.92-.38"/><path class="d" d="M95.68,133.78c0-.22-.05-5.13-3.42-7.02-.15-1.31-1.26-2.34-2.6-2.34-1.44,0-2.62,1.19-2.62,2.65,0,1.46,1.17,2.65,2.62,2.65.7,0,1.36-.27,1.85-.77.22-.22.39-.47.52-.74,2.3,1.71,2.34,5.55,2.34,5.59h.66s.66,0,.66,0M90.58,128c-.25.25-.57.38-.92.38-.72,0-1.3-.59-1.3-1.31,0-.72.58-1.31,1.3-1.31s1.3.59,1.3,1.31c0,.35-.13.68-.38.93"/><path class="g" d="M137.16,113.83l.07-.12v-.18c.89-.41,1.5-1.3,1.5-2.35s-.59-1.9-1.44-2.32v-.22s-.05-.12-.05-.12c-1.4-3,.92-5.29,1.02-5.39l1.02-.97-1.4-.02c-1.45,0-4.05.65-4.96,3.17-.09.25-.17.51-.22.8-.41.19-.9.51-1.35.94-.85.83-1.61,2.13-1.61,4,0,1.65.48,2.76,1.04,3.5.5.66,1.07,1.02,1.43,1.2.02.15.05.33.11.54.34,1.3,1.52,3.54,5.53,3.85l1.31.1-.81-1.03s-2.41-3.1-1.18-5.36ZM133.49,116.27c-.17-.5-.18-.88-.18-.92v-.43l-.4-.13s-.23-.08-.49-.26c-.6-.41-1.54-1.38-1.54-3.5,0-3.08,2.41-3.94,2.51-3.97l.07-.02.27-.09.05-.36c.06-.51.2-.93.39-1.29.57-1.1,1.59-1.61,2.42-1.83-.68,1.13-1.35,2.98-.52,5.13-1.36.07-2.44,1.19-2.44,2.59s1.04,2.46,2.36,2.57c-.71,1.84.08,3.84.76,5.05-2.13-.48-2.93-1.67-3.23-2.52Z"/><path class="g" d="M105.66,107.03c-.46-.44-.94-.75-1.35-.94-.05-.28-.13-.55-.22-.8-.9-2.52-3.51-3.18-4.96-3.17l-1.4.02,1.02.97c.1.09,2.42,2.39,1.02,5.39l-.06.12v.22c-.84.42-1.43,1.3-1.43,2.32s.61,1.94,1.5,2.35v.18l.07.12c1.22,2.26-1.15,5.33-1.18,5.36l-.81,1.03,1.31-.1c4.01-.31,5.18-2.55,5.53-3.85.06-.21.09-.39.11-.54.36-.18.93-.54,1.43-1.2.56-.74,1.04-1.85,1.04-3.5,0-1.86-.76-3.17-1.61-4ZM104.09,114.79l-.4.13v.43s0,.42-.18.92c-.3.85-1.1,2.05-3.23,2.52.68-1.2,1.46-3.21.76-5.05,1.32-.11,2.36-1.21,2.36-2.57s-1.09-2.52-2.44-2.59c.83-2.16.16-4.01-.52-5.13.83.22,1.85.73,2.42,1.83.18.36.33.78.39,1.29l.05.36.27.09.07.02c.11.03,2.51.9,2.51,3.97,0,2.12-.94,3.09-1.54,3.5-.27.18-.46.25-.49.26Z"/><path class="g" d="M72.97,170c-.08-.58-.33-1.71-1.21-2.76-.57-.68-1.4-1.34-2.6-1.79-.76-.28-1.66-.49-2.74-.58l-1.3-.1.81,1.04s2.86,3.7,1.4,6.4l-.07.13v.73c-.6.55-.97,1.34-.97,2.22s.35,1.63.9,2.18v.8s.05.12.05.12c1.69,3.6-1.1,6.34-1.21,6.45l-1.01.97,1.39.02h.08c1.84,0,5.27-.97,5.92-4.64.93-.44,3.47-1.99,3.47-5.72s-2.03-5.04-2.9-5.46ZM71.71,180.23l-.34.12-.05.36c-.33,2.61-2.27,3.51-3.61,3.81.85-1.31,1.81-3.62.68-6.34.29.09.59.15.9.15,1.67,0,3.02-1.36,3.02-3.05s-1.35-3.05-3.02-3.05c-.27,0-.53.05-.78.12.96-2.26-.14-4.77-.96-6.18.62.12,1.15.29,1.6.51.36.16.68.35.95.54,1.74,1.27,1.75,3.05,1.75,3.15v.43s.41.13.41.13c.02,0,2.46.8,2.46,4.5s-2.9,4.73-3.02,4.77Z"/><path class="g" d="M170.97,184.83c-.11-.12-2.9-2.85-1.21-6.45l.05-.12v-.27c.98-.5,1.66-1.52,1.66-2.71s-.71-2.26-1.73-2.75v-.2s-.08-.13-.08-.13c-1.46-2.7,1.37-6.36,1.4-6.4l.81-1.04-1.3.1c-1.08.08-1.98.29-2.74.58-1.21.45-2.03,1.1-2.6,1.79-.87,1.05-1.13,2.18-1.21,2.76-.86.41-2.9,1.79-2.9,5.46s2.54,5.28,3.47,5.72c.65,3.68,4.08,4.64,5.92,4.64h.08l1.39-.02-1.01-.97ZM165.67,180.7l-.05-.36-.34-.12c-.12-.04-3.02-1.07-3.02-4.77s2.37-4.47,2.47-4.5l.4-.13v-.43c0-.11.02-1.9,1.76-3.15.27-.2.58-.38.94-.54.46-.21.99-.38,1.61-.51-.81,1.38-1.88,3.83-1.02,6.06-1.65,0-2.98,1.37-2.98,3.04s1.34,3.05,3.01,3.05c.03,0,.05,0,.08,0-1.03,2.65-.08,4.9.74,6.19-1.34-.31-3.28-1.2-3.61-3.81Z"/><path class="g" d="M105.6,140.48c0,1.68-1.35,3.05-3.01,3.05s-3.01-1.36-3.01-3.05,1.35-3.05,3.01-3.05,3.01,1.36,3.01,3.05"/><path class="g" d="M136.72,140.48c0,1.68-1.35,3.05-3.01,3.05s-3.01-1.36-3.01-3.05,1.35-3.05,3.01-3.05,3.01,1.36,3.01,3.05"/><path class="d" d="M112.68,187.11c0-2.5,2.6-4.53,5.82-4.53s5.82,2.03,5.82,4.53-5.82,10.83-5.82,10.83c0,0-5.82-8.33-5.82-10.83h0Z"/><path class="d" d="M102.07,186.77c0-2.31,2.41-4.19,5.38-4.19s5.38,1.88,5.38,4.19-5.38,10.02-5.38,10.02c0,0-5.38-7.71-5.38-10.02h0Z"/><path class="d" d="M91.01,186.77c0-2.31,2.41-4.19,5.38-4.19s5.38,1.88,5.38,4.19-5.38,10.02-5.38,10.02c0,0-5.38-7.71-5.38-10.02h0Z"/><path class="d" d="M79.96,186.77c0-2.31,2.41-4.19,5.38-4.19s5.38,1.88,5.38,4.19-5.38,10.02-5.38,10.02c0,0-5.38-7.71-5.38-10.02h0Z"/><path class="d" d="M68.91,186.77c0-2.31,2.41-4.19,5.38-4.19s5.38,1.88,5.38,4.19-5.38,10.02-5.38,10.02c0,0-5.38-7.71-5.38-10.02h0Z"/><path class="d" d="M157.32,186.77c0-2.31,2.41-4.19,5.38-4.19s5.38,1.88,5.38,4.19-5.38,10.02-5.38,10.02c0,0-5.38-7.71-5.38-10.02h0Z"/><path class="d" d="M146.27,186.77c0-2.31,2.41-4.19,5.38-4.19s5.38,1.88,5.38,4.19-5.38,10.02-5.38,10.02c0,0-5.38-7.71-5.38-10.02h0Z"/><path class="d" d="M135.22,186.77c0-2.31,2.41-4.19,5.38-4.19s5.38,1.88,5.38,4.19-5.38,10.02-5.38,10.02c0,0-5.38-7.71-5.38-10.02h0Z"/><path class="d" d="M124.17,186.77c0-2.31,2.41-4.19,5.38-4.19s5.38,1.88,5.38,4.19-5.38,10.02-5.38,10.02c0,0-5.38-7.71-5.38-10.02h0Z"/><path class="h" d="M118.5,198.94l-.47-.67c-.61-.87-5.92-8.56-5.92-11.17,0-2.81,2.87-5.1,6.39-5.1s6.39,2.29,6.39,5.1c0,2.61-5.32,10.3-5.92,11.17l-.47.67ZM118.5,183.16c-2.89,0-5.25,1.77-5.25,3.95,0,1.59,2.98,6.51,5.25,9.83,2.27-3.32,5.25-8.24,5.25-9.83,0-2.18-2.35-3.95-5.25-3.95Z"/><path class="h" d="M107.45,197.79l-.47-.67c-.56-.8-5.49-7.93-5.49-10.36,0-2.63,2.67-4.76,5.95-4.76s5.95,2.14,5.95,4.76c0,2.43-4.93,9.55-5.49,10.36l-.47.67ZM107.45,183.16c-2.65,0-4.81,1.62-4.81,3.61,0,1.44,2.78,6.03,4.81,9.02,2.03-2.99,4.81-7.58,4.81-9.02,0-1.99-2.16-3.61-4.81-3.61Z"/><path class="h" d="M96.4,197.79l-.47-.67c-.56-.8-5.49-7.93-5.49-10.36,0-2.63,2.67-4.76,5.95-4.76s5.95,2.14,5.95,4.76c0,2.43-4.93,9.55-5.49,10.36l-.47.67ZM96.4,183.16c-2.65,0-4.81,1.62-4.81,3.61,0,1.44,2.78,6.03,4.81,9.02,2.03-2.99,4.81-7.58,4.81-9.02,0-1.99-2.16-3.61-4.81-3.61Z"/><path class="h" d="M85.35,197.79l-.47-.67c-.56-.8-5.49-7.93-5.49-10.36,0-2.63,2.67-4.76,5.95-4.76s5.95,2.14,5.95,4.76c0,2.43-4.93,9.55-5.49,10.36l-.47.67ZM85.35,183.16c-2.65,0-4.81,1.62-4.81,3.61,0,1.44,2.78,6.03,4.81,9.02,2.03-2.99,4.81-7.58,4.81-9.02,0-1.99-2.16-3.61-4.81-3.61Z"/><path class="h" d="M74.3,197.79l-.47-.67c-.56-.8-5.49-7.93-5.49-10.36,0-2.63,2.67-4.76,5.95-4.76s5.95,2.14,5.95,4.76c0,2.43-4.93,9.55-5.49,10.36l-.47.67ZM74.3,183.16c-2.65,0-4.81,1.62-4.81,3.61,0,1.44,2.78,6.03,4.81,9.02,2.03-2.99,4.81-7.58,4.81-9.02,0-1.99-2.16-3.61-4.81-3.61Z"/><path class="h" d="M162.7,197.79l-.47-.67c-.56-.8-5.49-7.93-5.49-10.36,0-2.63,2.67-4.76,5.95-4.76s5.95,2.14,5.95,4.76c0,2.43-4.93,9.55-5.49,10.36l-.47.67ZM162.7,183.16c-2.65,0-4.81,1.62-4.81,3.61,0,1.44,2.78,6.03,4.81,9.02,2.03-2.99,4.81-7.58,4.81-9.02,0-1.99-2.16-3.61-4.81-3.61Z"/><path class="h" d="M151.65,197.79l-.47-.67c-.56-.8-5.49-7.93-5.49-10.36,0-2.63,2.67-4.76,5.95-4.76s5.95,2.14,5.95,4.76c0,2.43-4.93,9.55-5.49,10.36l-.47.67ZM151.65,183.16c-2.65,0-4.81,1.62-4.81,3.61,0,1.44,2.78,6.03,4.81,9.02,2.03-2.99,4.81-7.58,4.81-9.02,0-1.99-2.16-3.61-4.81-3.61Z"/><path class="h" d="M140.6,197.79l-.47-.67c-.56-.8-5.49-7.93-5.49-10.36,0-2.63,2.67-4.76,5.95-4.76s5.95,2.14,5.95,4.76c0,2.43-4.93,9.55-5.49,10.36l-.47.67ZM140.6,183.16c-2.65,0-4.81,1.62-4.81,3.61,0,1.44,2.78,6.03,4.81,9.02,2.03-2.99,4.81-7.58,4.81-9.02,0-1.99-2.16-3.61-4.81-3.61Z"/><path class="h" d="M129.55,197.79l-.47-.67c-.56-.8-5.49-7.93-5.49-10.36,0-2.63,2.67-4.76,5.95-4.76s5.95,2.14,5.95,4.76c0,2.43-4.93,9.55-5.49,10.36l-.47.67ZM129.55,183.16c-2.65,0-4.81,1.62-4.81,3.61,0,1.44,2.78,6.03,4.81,9.02,2.03-2.99,4.81-7.58,4.81-9.02,0-1.99-2.16-3.61-4.81-3.61Z"/><path class="h" d="M121.3,52.28h-6.18c-1.31,0-2.38-1.08-2.38-2.41v-.68c0-1.33,1.07-2.41,2.38-2.41h6.18c1.31,0,2.38,1.08,2.38,2.41v.68c0,1.33-1.07,2.41-2.38,2.41ZM115.12,48.32c-.48,0-.87.39-.87.87v.68c0,.48.39.87.87.87h6.18c.48,0,.86-.39.86-.87v-.68c0-.48-.39-.87-.86-.87h-6.18Z"/><path class="g" d="M112.53,170.94c1.83,0,3.31,1.95,3.31,4.35s-1.48,4.35-3.31,4.35-3.31-4.35-3.31-4.35c0,0,1.48-4.35,3.31-4.35"/><path class="d" d="M112.53,180.05c-2.06,0-3.54-4.16-3.7-4.63l-.05-.14.05-.14c.16-.47,1.64-4.63,3.7-4.63s3.72,2.14,3.72,4.77-1.67,4.77-3.72,4.77ZM109.66,175.29c.56,1.58,1.79,3.93,2.87,3.93,1.6,0,2.9-1.76,2.9-3.93s-1.3-3.93-2.9-3.93c-1.08,0-2.31,2.35-2.87,3.93Z"/><path class="g" d="M123.88,179.63c-1.83,0-3.31-1.95-3.31-4.35s1.48-4.35,3.31-4.35,3.31,4.35,3.31,4.35c0,0-1.48,4.35-3.31,4.35"/><path class="d" d="M123.88,180.05c-2.05,0-3.72-2.14-3.72-4.77s1.67-4.77,3.72-4.77,3.54,4.16,3.7,4.63l.05.14-.05.14c-.16.47-1.64,4.63-3.7,4.63ZM123.88,171.36c-1.6,0-2.9,1.76-2.9,3.93s1.3,3.93,2.9,3.93c1.08,0,2.31-2.35,2.87-3.93-.56-1.58-1.79-3.93-2.87-3.93Z"/><path class="g" d="M122.54,169.41c0,1.85-1.92,3.35-4.3,3.35s-4.3-1.5-4.3-3.35,4.3-3.35,4.3-3.35c0,0,4.3,1.5,4.3,3.35"/><path class="d" d="M118.24,173.17c-2.6,0-4.71-1.69-4.71-3.77s4.11-3.58,4.58-3.74l.13-.05.13.05c.47.16,4.58,1.66,4.58,3.74s-2.11,3.77-4.71,3.77ZM118.24,166.5c-1.56.57-3.89,1.81-3.89,2.9,0,1.62,1.74,2.93,3.89,2.93s3.89-1.31,3.89-2.93c0-1.1-2.33-2.34-3.89-2.9Z"/><path class="g" d="M113.93,181.11c0-1.85,1.93-3.35,4.3-3.35s4.3,1.5,4.3,3.35-4.3,3.35-4.3,3.35c0,0-4.3-1.5-4.3-3.35"/><path class="d" d="M118.24,184.9l-.13-.05c-.47-.16-4.58-1.66-4.58-3.74s2.11-3.76,4.71-3.76,4.71,1.69,4.71,3.76-4.11,3.58-4.58,3.74l-.13.05ZM118.24,178.18c-2.14,0-3.89,1.31-3.89,2.93,0,1.1,2.33,2.34,3.89,2.9,1.56-.57,3.89-1.81,3.89-2.9,0-1.62-1.74-2.93-3.89-2.93Z"/><path class="g" d="M121.25,175.29c0,1.68-1.35,3.05-3.01,3.05s-3.01-1.36-3.01-3.05,1.35-3.05,3.01-3.05,3.01,1.36,3.01,3.05"/><path class="d" d="M118.24,178.75c-1.89,0-3.43-1.55-3.43-3.46s1.54-3.46,3.43-3.46,3.43,1.55,3.43,3.46-1.54,3.46-3.43,3.46ZM118.24,172.66c-1.43,0-2.6,1.18-2.6,2.63s1.17,2.63,2.6,2.63,2.6-1.18,2.6-2.63-1.17-2.63-2.6-2.63Z"/><path class="f" d="M14.93,271.47c.42-.31.92-.41,1.49-.31.51.09.92.33,1.23.72.31.39.44.84.4,1.35l2.87.52c.01.27.09.52.23.75l.08-.06c-.14-.28-.18-.61-.11-1,.09-.48.33-.86.73-1.14.4-.28.84-.37,1.32-.29.56.1.98.37,1.26.81.28.44.37.96.26,1.56-.12.64-.39,1.11-.82,1.4-.43.29-.98.38-1.64.26l-4.86-.89-2.3,3.29,7.17,1.31c.46.08.79.32.97.7.18.38.22.89.1,1.54l-8.95-1.63c-.48-.09-.83-.3-1.05-.63-.22-.33-.29-.74-.2-1.24l2.36-3.37c-.49-.15-.86-.44-1.11-.87-.25-.43-.33-.91-.24-1.43.11-.6.37-1.05.79-1.36M15.32,273.73c.14.2.33.32.57.37.25.05.48,0,.68-.14.2-.14.32-.33.37-.58.04-.25,0-.47-.14-.68-.14-.21-.33-.33-.59-.38-.24-.04-.47,0-.66.14-.2.14-.32.34-.37.6-.05.25,0,.47.14.67M22.11,274.54c.13.19.31.3.54.34.24.04.46,0,.64-.13.18-.13.3-.31.34-.55.04-.25,0-.46-.13-.65-.13-.19-.32-.3-.56-.35-.23-.04-.44,0-.63.13-.18.13-.3.32-.34.56-.04.23,0,.45.13.63"/><path class="f" d="M12.38,298.41c.23-.34.59-.53,1.06-.56l5.35-.31c.07.26.2.48.39.67l.07-.07c-.2-.24-.32-.56-.34-.95-.03-.49.12-.92.45-1.28.33-.37.73-.56,1.21-.59.57-.03,1.04.13,1.41.49.38.36.58.84.62,1.45.04.65-.12,1.17-.46,1.54-.34.37-.86.58-1.54.62l-4.65.27-1.25-.48-.06.15,4.16,1.81c.4.18.71.49.94.93.13-.17.31-.33.53-.46.22-.13.44-.21.65-.22.57-.03,1.04.13,1.41.49.38.36.58.84.61,1.45.04.61-.11,1.1-.43,1.49-.32.39-.77.6-1.35.63-.28.02-.54-.04-.79-.16-.24-.12-.44-.29-.58-.51-.28.44-.7.67-1.25.7l-4.66.27c-.48.03-.86-.12-1.12-.44-.27-.32-.42-.81-.46-1.46l6.08-.36c.14,0,.25-.05.33-.12.08-.07.11-.16.11-.28,0-.13-.05-.23-.12-.31-.07-.07-.21-.16-.41-.25l-6.22-2.77c-.03-.59.07-1.06.3-1.41M20.14,298c.17.15.37.22.6.21.25-.01.45-.11.6-.28.15-.17.22-.37.2-.61-.01-.25-.11-.45-.27-.6-.17-.15-.38-.22-.62-.21-.24.02-.43.11-.58.28-.15.17-.22.38-.2.63.01.24.11.43.27.58M20.5,304.09c.17.15.37.22.61.21.24-.01.43-.11.58-.28.15-.17.22-.37.2-.61-.01-.24-.1-.43-.27-.58-.17-.15-.37-.22-.61-.21-.24.01-.43.11-.58.28-.15.17-.22.37-.2.61.01.24.11.43.27.58"/><path class="f" d="M23.31,324.82c.68-.2,1.14-.49,1.38-.88.24-.38.27-.87.1-1.47-.37-1.26-1.2-1.7-2.49-1.31-.26.08-.45.16-.57.25-.19-.6-.21-1.11-.06-1.52.15-.41.46-.69.92-.82.53-.16,1.05-.14,1.57.06.51.19.97.54,1.37,1.05.4.5.71,1.11.92,1.81.35,1.19.3,2.19-.14,3.01-.44.82-1.24,1.4-2.4,1.75l-5.19,1.55c-.46.14-.86.08-1.2-.18-.34-.26-.59-.71-.78-1.33l6.57-1.96Z"/><path class="f" d="M25.77,346.71c.13-.5.44-.89.94-1.17.43-.24.89-.3,1.37-.16.48.13.83.41,1.07.84.07.14.12.29.15.48.03.18.03.36.01.52l.11.02c.06-.23.06-.49,0-.79l2.71-1.52c.6-.33.96-.72,1.09-1.14.13-.43.04-.93-.28-1.5-.32-.58-.73-.94-1.23-1.07-.5-.13-1.04-.03-1.64.31-.24.13-.4.25-.49.36-.32-.54-.45-1.03-.39-1.47.06-.44.31-.78.75-1.02.48-.27,1.01-.36,1.58-.28.57.09,1.11.33,1.63.74.52.41.96.94,1.31,1.59.61,1.12.8,2.12.57,3.02-.23.9-.86,1.64-1.89,2.21l-4.18,2.34c-.6.34-1.16.44-1.69.3-.53-.14-.94-.48-1.24-1.03-.3-.54-.38-1.07-.25-1.57M27.45,348.17c.22.06.43.03.65-.09.21-.12.34-.28.4-.5.06-.22.04-.43-.08-.64-.13-.23-.29-.38-.5-.44-.21-.06-.42-.03-.64.09-.22.12-.36.29-.42.51-.06.22-.03.44.09.66.11.21.28.34.5.41"/><path class="f" d="M34.91,339.17c-.6-.98-1.35-1.97-2.25-2.95.67-.47,1.36-.71,2.07-.72.71,0,1.38.2,2.02.62.64.42,1.19,1.02,1.67,1.81.51.83.79,1.65.85,2.45.06.8-.11,1.55-.5,2.23-.4.68-1.02,1.26-1.87,1.73-.33-1.81-.99-3.53-1.99-5.17M37.91,340.44c-.02-.6-.22-1.2-.59-1.81-.31-.51-.69-.92-1.13-1.25-.45-.32-.88-.45-1.3-.37.48.58.92,1.21,1.33,1.88.66,1.08,1.09,2.07,1.29,2.98.29-.36.42-.84.4-1.44"/><path class="f" d="M37.97,364.65c-.02-.45.18-.86.58-1.23l3.82-3.49c.22.15.46.25.73.28v-.1c-.3-.06-.58-.23-.85-.52-.32-.36-.47-.79-.44-1.28.03-.49.22-.9.58-1.23.42-.38.89-.56,1.4-.52.51.04.97.28,1.36.72.42.47.61.96.57,1.47-.04.51-.31,1-.81,1.45l-2.86,2.61-1.55.67.07.13,6.97-2.75c.42-.16.79-.04,1.14.34.63.7.92,1.4.9,2.1-.03.7-.38,1.36-1.06,1.98l-4.66,4.26c-.38.34-.77.48-1.17.42-.41-.06-.81-.32-1.23-.78l5.88-5.37c.27-.25.42-.48.46-.69.03-.21-.04-.42-.22-.62l-8.93,3.53c-.42-.47-.64-.93-.65-1.38M43.69,359.42c.22.01.42-.06.6-.22.19-.17.28-.37.29-.59.01-.23-.06-.43-.22-.61-.17-.19-.36-.28-.59-.3-.23-.01-.43.07-.61.23-.18.16-.27.35-.28.58-.01.23.06.43.23.62.16.18.35.27.58.28"/><path class="f" d="M56.54,381.98c-.41-.57-.64-1.14-.69-1.71-.05-.57.09-1.09.41-1.58.57-.85,1.57-1.09,2.98-.73l.05-.1c-.12-.05-.32-.11-.59-.17-.26-.42-.36-.92-.32-1.49.04-.57.23-1.1.56-1.59.5-.74,1.11-1.18,1.83-1.34.72-.15,1.42,0,2.11.49.52.36.83.78.94,1.27.11.49,0,.97-.32,1.46-.29.43-.68.69-1.16.76-.48.07-.94-.04-1.39-.35-.54-.37-.78-.92-.73-1.64h-.08c-.05.17-.07.37-.06.58-.22.32-.27.67-.16,1.05.11.37.38.71.8,1l.91.63c.22.15.36.34.4.54.05.21,0,.42-.15.63-.15.22-.32.34-.53.38-.21.03-.43-.03-.65-.18l-.67-.47c-.38-.26-.74-.37-1.09-.33-.34.04-.63.23-.86.57-.26.38-.29.79-.1,1.21.19.42.6.85,1.24,1.29.66.46,1.28.67,1.85.63.57-.04,1.03-.32,1.38-.84l3.09-4.56c.27-.39.61-.6,1.03-.61s.9.17,1.44.54l-3.91,5.77c-.41.6-.93,1.03-1.56,1.28-.64.25-1.33.32-2.08.19-.75-.13-1.49-.44-2.22-.95-.72-.5-1.29-1.03-1.7-1.61M62.01,376.18c.22-.04.4-.16.53-.36.13-.2.18-.41.14-.63-.04-.22-.16-.4-.36-.54-.2-.14-.4-.18-.63-.14-.22.04-.4.16-.53.36-.13.2-.18.41-.14.63.04.22.16.4.35.54.19.13.4.18.62.14"/><path class="f" d="M83.46,389.17c.26-.67.31-1.21.16-1.64-.15-.43-.51-.75-1.08-.98-1.21-.48-2.06-.09-2.55,1.18-.1.26-.15.46-.16.61-.59-.22-.99-.52-1.22-.89-.23-.37-.25-.79-.08-1.24.2-.52.54-.93,1.01-1.21.47-.29,1.02-.44,1.66-.45.64-.01,1.3.11,1.98.38,1.14.46,1.9,1.11,2.27,1.96.37.85.33,1.85-.11,2.99l-1.98,5.09c-.18.45-.47.74-.88.84-.41.11-.92.04-1.52-.2l2.51-6.44Z"/><path class="f" d="M98.89,403.9c-.33-.45-.44-.97-.35-1.57l.19-1.27c.1-.68.35-1.26.74-1.73.39-.47.9-.81,1.51-1.01.61-.2,1.3-.24,2.06-.13.68.1,1.22.3,1.64.59.41.29.82.75,1.22,1.38l.08-.04c-.06-.15-.2-.4-.43-.74l.13-.85c.11-.72,0-1.28-.33-1.69-.33-.41-.87-.67-1.65-.79-.74-.11-1.37-.07-1.87.14-.5.21-.79.53-.85.98-.03.2-.03.38,0,.52-.21,0-.37-.02-.46-.03-.48-.07-.84-.23-1.08-.47-.24-.24-.34-.55-.28-.91.07-.47.33-.88.79-1.21.46-.33,1.04-.56,1.75-.69.71-.12,1.47-.13,2.27,0,1.32.2,2.3.69,2.96,1.47.65.78.89,1.75.71,2.93l-.81,5.38c-.07.47-.3.82-.68,1.04-.39.22-.88.28-1.49.19l.4-2.63c.13-.84,0-1.53-.4-2.07-.39-.54-1-.88-1.83-1.01-.58-.09-1.08-.04-1.48.15-.41.19-.64.49-.7.89l-.03.18c-.29.1-.52.23-.7.38l.04.08c.38-.24.77-.33,1.15-.28.49.08.87.3,1.14.69.27.39.37.83.29,1.34-.08.55-.34.98-.77,1.28-.43.3-.93.41-1.5.32-.59-.09-1.06-.36-1.38-.81M101.05,403.5c.18-.14.29-.33.33-.56.04-.24-.01-.45-.15-.63-.13-.18-.32-.29-.55-.33-.23-.04-.44.01-.62.15-.18.13-.29.32-.32.56-.04.24.01.45.15.64.13.19.32.3.55.34.23.04.44-.02.62-.16"/><path class="f" d="M103.2,393.35c-.56-.32-1-.72-1.31-1.19-.32-.48-.45-.97-.4-1.48.06-.59.29-1.05.68-1.36.4-.31.87-.44,1.42-.39.56.06,1,.27,1.31.63.31.37.44.81.39,1.33-.04.41-.21.74-.52.96-.31.23-.7.36-1.19.41l.03.09c.06,0,.16-.01.3-.02.14-.01.25-.02.33-.04.2.1.53.18.99.23.79.08,1.45-.13,2-.63.55-.5.87-1.25.97-2.26.56.06.98.2,1.25.43.27.23.38.57.33,1.02-.05.56-.3,1.07-.73,1.54-.43.47-1,.82-1.7,1.06-.7.24-1.47.32-2.32.24-.66-.07-1.27-.26-1.83-.58M103.9,391.32c.16-.13.25-.3.27-.51.02-.23-.04-.42-.18-.58-.14-.16-.32-.26-.54-.28-.21-.02-.4.04-.56.17-.16.13-.25.31-.27.54-.02.22.04.41.18.57.14.15.32.24.54.26.21.02.4-.03.56-.16"/><path class="f" d="M124.38,405.79c-.68-.19-1.21-.48-1.6-.9-.39-.41-.61-.91-.65-1.49-.08-1.02.54-1.84,1.87-2.46l-.03-.1c-.13.03-.32.11-.57.24-.46-.17-.85-.49-1.17-.96-.32-.47-.5-1-.55-1.6-.07-.89.13-1.62.59-2.2.46-.57,1.12-.89,1.95-.96.62-.05,1.13.08,1.52.39.39.31.61.76.65,1.34.04.52-.1.96-.43,1.33-.33.36-.76.56-1.3.6-.65.05-1.18-.22-1.59-.81l-.07.04c.07.17.18.34.32.5.03.39.2.7.52.92.32.22.73.31,1.24.27l1.09-.09c.27-.02.49.03.65.16.16.13.26.33.28.59.02.26-.04.47-.18.63-.14.16-.35.25-.62.27l-.81.06c-.46.04-.81.18-1.05.43-.24.25-.35.58-.31.98.04.46.26.8.67,1.01.41.21,1,.28,1.76.22.8-.06,1.41-.29,1.83-.68.42-.39.6-.9.56-1.53l-.42-5.51c-.04-.48.1-.85.42-1.13.32-.28.8-.44,1.46-.49l.53,6.97c.06.72-.09,1.39-.42,1.99-.34.6-.84,1.09-1.5,1.46-.66.37-1.44.6-2.32.67-.87.07-1.64,0-2.32-.18M125.04,397.8c.15-.17.21-.38.19-.62-.02-.24-.11-.43-.28-.58-.17-.15-.37-.21-.62-.19-.24.02-.43.11-.57.29-.15.17-.21.38-.19.62.02.24.11.43.28.58.17.15.37.21.61.19.24-.02.43-.11.57-.29"/><path class="f" d="M150.45,397.05c-.46-.23-.77-.62-.94-1.16-.15-.48-.11-.94.12-1.39.23-.45.57-.74,1.03-.89.14-.05.31-.06.49-.05.18.01.35.04.5.09l.04-.11c-.21-.11-.46-.16-.77-.15l-.93-2.99c-.2-.66-.5-1.1-.89-1.31-.39-.21-.89-.22-1.51-.03-.63.2-1.06.53-1.29,1-.23.47-.24,1.03-.03,1.69.08.26.16.45.25.56-.59.21-1.09.24-1.5.09-.41-.15-.69-.47-.84-.94-.17-.54-.15-1.07.05-1.62.2-.54.55-1.03,1.05-1.47.5-.43,1.1-.76,1.8-.98,1.2-.38,2.22-.37,3.04.04.83.41,1.41,1.18,1.77,2.32l1.43,4.61c.2.66.19,1.24-.05,1.73-.24.49-.65.84-1.25,1.03-.59.18-1.11.16-1.57-.07M152.2,395.68c.1-.2.12-.42.05-.66-.07-.23-.21-.39-.41-.5-.2-.11-.41-.12-.64-.05-.25.08-.42.22-.52.41-.1.19-.11.41-.04.65.07.24.21.41.41.52.2.1.42.12.65.04.22-.07.39-.21.49-.41"/><path class="f" d="M168.82,389.23c-.53-.14-.95-.47-1.25-1l-.64-1.11c-.35-.6-.51-1.2-.5-1.82.01-.62.2-1.2.55-1.74.35-.55.86-1.02,1.52-1.41.59-.35,1.14-.54,1.64-.58.51-.04,1.11.06,1.8.3l.04-.08c-.14-.08-.41-.18-.79-.3l-.43-.74c-.36-.63-.8-1-1.3-1.11-.51-.11-1.1.04-1.77.43-.65.38-1.11.82-1.37,1.3-.26.48-.28.92-.05,1.31.1.18.21.31.32.41-.17.13-.3.22-.38.27-.42.25-.8.35-1.14.32-.34-.03-.6-.21-.79-.53-.24-.41-.28-.89-.14-1.44.15-.55.46-1.1.93-1.65.47-.55,1.06-1.03,1.77-1.45,1.15-.68,2.22-.93,3.21-.74.99.19,1.78.8,2.38,1.83l2.71,4.69c.24.41.28.83.11,1.24-.16.41-.51.78-1.04,1.09l-1.33-2.3c-.42-.73-.95-1.18-1.59-1.36-.64-.17-1.32-.05-2.05.38-.51.3-.86.66-1.06,1.06-.2.41-.19.78,0,1.13l.09.15c-.16.26-.27.51-.31.74l.08.03c.14-.43.39-.75.72-.95.43-.25.87-.31,1.32-.19.45.13.8.41,1.06.86.28.48.35.98.2,1.49-.15.51-.47.91-.97,1.2-.52.31-1.05.39-1.58.25M170.24,387.53c.06-.22.02-.44-.1-.65-.12-.21-.29-.34-.51-.4-.22-.06-.43-.03-.63.09-.2.12-.33.29-.39.51-.06.22-.02.43.09.64.12.21.29.34.51.4.22.06.43.04.64-.08.2-.12.33-.29.39-.52"/><path class="f" d="M165.6,378.28c-.63.11-1.22.08-1.76-.09-.54-.17-.95-.47-1.23-.9-.32-.5-.43-1-.31-1.49.11-.5.4-.9.87-1.21.47-.31.94-.43,1.41-.34.47.09.84.35,1.13.79.23.35.29.71.19,1.08-.1.37-.32.73-.67,1.08l.08.06s.11-.11.21-.21c.1-.1.18-.18.24-.24.22-.05.53-.2.91-.46.66-.44,1.05-1.02,1.17-1.76.12-.73-.1-1.52-.65-2.37.47-.31.89-.47,1.24-.46.35.01.65.2.9.58.31.47.44,1.02.39,1.66-.05.64-.27,1.27-.66,1.9-.39.63-.95,1.18-1.66,1.65-.55.37-1.15.6-1.78.71M164.89,376.25c.05-.2.01-.39-.11-.57-.12-.19-.29-.3-.5-.34-.21-.04-.41,0-.59.13-.18.12-.29.28-.33.49-.04.21,0,.4.12.59.12.19.29.3.49.33.2.03.4-.02.58-.14.18-.12.29-.28.33-.48"/><path class="f" d="M189.83,374.47c-.64.29-1.24.39-1.8.32-.56-.07-1.04-.32-1.44-.74-.7-.74-.72-1.78-.08-3.1l-.09-.06c-.08.11-.17.29-.29.55-.46.16-.97.16-1.51,0-.54-.16-1.02-.46-1.42-.89-.61-.65-.91-1.34-.91-2.09,0-.74.31-1.4.92-1.99.45-.43.93-.66,1.43-.66.5,0,.94.2,1.34.62.36.38.52.82.49,1.3-.03.49-.24.92-.64,1.3-.47.45-1.05.58-1.74.38l-.03.08c.16.09.35.15.56.18.27.29.59.41.98.38.39-.03.76-.22,1.13-.58l.8-.76c.2-.19.4-.29.61-.29.21,0,.4.09.58.28.18.19.26.39.25.61,0,.22-.11.42-.31.61l-.59.57c-.34.32-.52.66-.55,1-.03.35.09.67.37.97.32.34.7.46,1.15.35.45-.1.95-.42,1.51-.95.58-.56.91-1.12,1-1.7.08-.57-.09-1.09-.52-1.55l-3.76-4.01c-.33-.35-.45-.73-.38-1.14.07-.42.35-.85.83-1.31l4.76,5.08c.5.53.8,1.13.91,1.81.11.68.03,1.38-.26,2.09-.28.71-.74,1.38-1.39,1.99-.63.61-1.27,1.05-1.91,1.34M185.37,367.85c0-.23-.07-.43-.24-.6-.16-.17-.35-.26-.58-.27-.22-.01-.42.07-.6.24-.17.16-.26.36-.27.59,0,.23.07.43.23.6.16.17.36.26.58.27.22,0,.42-.07.6-.24.17-.16.26-.36.27-.59"/><path class="f" d="M205.16,356.74c-.54.11-1.06,0-1.56-.33l-1.06-.71c-.57-.38-.99-.85-1.24-1.41-.26-.56-.35-1.16-.27-1.81.08-.65.33-1.3.75-1.94.38-.58.78-1,1.22-1.25.44-.26,1.02-.44,1.75-.54v-.09c-.17,0-.45.02-.84.08l-.71-.47c-.6-.4-1.15-.54-1.65-.41-.5.13-.97.52-1.4,1.18-.41.64-.64,1.23-.66,1.78-.02.55.15.95.52,1.2.17.11.32.19.47.22-.1.19-.17.33-.22.41-.27.41-.56.67-.88.79-.32.12-.63.08-.94-.12-.39-.26-.65-.67-.75-1.23-.11-.56-.07-1.19.11-1.9.18-.71.5-1.4.95-2.09.73-1.13,1.59-1.83,2.56-2.1.97-.27,1.95-.08,2.93.57l4.49,2.99c.39.26.61.62.64,1.06.03.44-.12.93-.45,1.44l-2.2-1.47c-.7-.47-1.37-.63-2.02-.5-.65.13-1.21.55-1.67,1.26-.32.5-.48.97-.48,1.42,0,.45.17.79.5,1.01l.15.1c-.03.31-.02.58.05.8h.09c-.06-.46.02-.85.23-1.18.27-.42.64-.67,1.1-.76.46-.09.9.01,1.32.29.46.31.74.72.83,1.24.09.52-.02,1.02-.34,1.51-.33.51-.77.82-1.31.93M205.7,354.58c-.05-.23-.17-.4-.37-.54-.2-.13-.41-.17-.63-.13-.22.05-.4.17-.53.37-.13.2-.17.41-.13.63.05.22.17.4.36.53.2.13.41.18.63.13.23-.04.4-.16.53-.36.13-.2.17-.41.12-.64"/><path class="f" d="M197.48,348.39c-.52.38-1.06.62-1.62.71-.56.09-1.06,0-1.49-.25-.51-.3-.82-.7-.94-1.2-.11-.5-.03-.99.25-1.47.29-.49.66-.8,1.12-.93.46-.13.91-.06,1.36.21.35.21.57.51.65.88.08.38.03.8-.13,1.27h.09s.05-.14.1-.27c.05-.13.08-.24.1-.32.18-.14.39-.41.62-.82.4-.69.49-1.39.27-2.1-.22-.71-.76-1.32-1.62-1.83.28-.49.59-.82.91-.96.32-.15.67-.11,1.06.12.48.29.84.72,1.07,1.31.24.59.32,1.26.25,2-.08.74-.33,1.48-.76,2.23-.33.58-.76,1.05-1.29,1.44M195.95,346.89c-.05-.2-.16-.36-.35-.46-.19-.11-.39-.14-.6-.08-.2.06-.36.18-.48.38-.11.19-.13.38-.08.58.05.2.18.36.37.48.19.12.39.14.58.08.2-.06.35-.19.46-.39.11-.19.14-.38.09-.58"/><path class="f" d="M217.31,334.61c-.36.24-.76.27-1.2.11l-3.36-1.24-1.9.31c-.21.03-.37.02-.48-.03-.08-.03-.15-.07-.21-.14-.82-.7-1.35-1.54-1.6-2.53-.25-.99-.19-1.99.18-3.01.3-.82.71-1.48,1.25-1.99.54-.51,1.15-.83,1.84-.96.69-.13,1.4-.06,2.15.21l4.89,1.81c.46.17.74.46.85.87.11.41.06.93-.16,1.54l-6.31-2.34c-.67-.25-1.26-.25-1.74,0-.49.25-.86.73-1.12,1.46-.22.59-.26,1.17-.13,1.74.13.57.41,1.04.86,1.4l1.76-.28c.23-.04.46-.02.69.06l4.64,1.72c-.22.62-.51,1.04-.87,1.28"/><path class="f" d="M223.9,308.12c-.4.61-.91,1.06-1.54,1.35-.63.29-1.33.39-2.11.3l-2.87-.32c-.03-.27-.12-.51-.28-.73l-.08.06c.16.27.22.6.18.99-.05.49-.27.88-.66,1.19-.38.31-.82.43-1.3.38-.56-.06-1-.3-1.31-.72-.31-.42-.43-.93-.37-1.53.07-.64.31-1.11.71-1.42.4-.31.94-.43,1.62-.35l4.63.52c.65.07,1.19-.08,1.64-.47.44-.38.71-.92.78-1.61.07-.69-.05-1.27-.36-1.75-.32-.48-.76-.75-1.33-.81l-.62-.07c-.15-.25-.38-.47-.67-.69l-.06.08c.37.31.63.64.78,1.01.15.37.2.82.14,1.35-.05.45-.2.86-.44,1.22-.25.36-.56.64-.94.82-.38.19-.77.26-1.18.21-.52-.06-.91-.26-1.19-.6-.28-.34-.39-.77-.33-1.28.06-.52.25-.92.57-1.18.32-.26.73-.37,1.22-.31.35.04.63.19.84.46.21.27.32.63.33,1.07h.09c.02-.16.01-.34-.01-.53.06-.2.09-.33.1-.4.05-.43-.08-.78-.38-1.05-.3-.27-.75-.44-1.33-.51l-2.39-.27c-.96-.11-1.37-.8-1.23-2.08l6.66.75c.77.09,1.44.34,1.99.76.55.42.96.98,1.22,1.67.26.69.34,1.46.25,2.31-.09.84-.34,1.57-.74,2.18M216.13,308.76c-.14-.18-.33-.28-.56-.31-.25-.03-.46.03-.63.17-.18.14-.28.33-.3.57-.03.25.03.46.17.64.14.18.33.28.58.31.23.03.44-.03.62-.17.17-.14.28-.34.3-.59.02-.24-.03-.44-.17-.62M218.9,305.01c-.11-.14-.27-.23-.45-.25-.2-.02-.37.03-.51.14-.14.12-.22.27-.25.46-.02.2.02.37.14.52.11.14.27.23.47.25.19.02.35-.03.5-.15.14-.12.23-.28.25-.47.02-.19-.03-.36-.14-.5"/><path class="f" d="M224.23,283.92c-.33.43-.84.7-1.51.81l-2.8.44-1.52,1.2c-.17.12-.31.19-.41.21-.09.01-.18.01-.27-.01-1.05-.22-1.92-.69-2.61-1.4-.69-.71-1.11-1.59-1.27-2.63-.2-1.27,0-2.34.59-3.19.59-.85,1.49-1.37,2.71-1.56l4.55-.71-2.45-2.42c-.18-.18-.33-.29-.45-.35-.12-.05-.25-.07-.4-.04l-4.23.66c-.48.08-.87-.04-1.16-.34-.3-.3-.5-.78-.6-1.43l5.86-.92c.47-.07.84.04,1.13.35.23-.76.74-1.2,1.53-1.33.54-.08,1.02.05,1.46.4.44.35.7.83.79,1.41.08.54,0,1.03-.25,1.45-.25.42-.61.69-1.07.78l1.51,1.32c.17.14.28.28.35.42.07.13.12.33.16.59.05.33-.01.61-.19.83-.17.23-.44.37-.8.42l-5.49.86c-1.45.23-2.06,1.07-1.83,2.51.09.59.33,1.09.7,1.5.38.41.85.67,1.42.77l1.41-1.11c.18-.15.39-.24.64-.28l1.08-.17c.12.26.28.46.47.59l.08-.08c-.11-.11-.22-.25-.31-.41-.09-.16-.15-.32-.17-.47-.08-.51.02-.95.31-1.32.28-.38.68-.6,1.19-.68.56-.09,1.05.03,1.46.36.41.33.66.79.76,1.37.1.62-.02,1.15-.36,1.59M221.76,272.59c-.2-.14-.41-.2-.66-.16-.25.04-.44.16-.59.36-.15.2-.2.42-.17.67.04.25.16.44.36.59.2.14.42.2.67.16.25-.04.44-.16.58-.35.14-.2.2-.42.16-.67-.04-.25-.15-.44-.35-.59M223.21,281.92c-.18-.14-.4-.18-.64-.14-.23.04-.42.15-.55.33-.13.18-.18.4-.14.65.04.23.14.42.33.55.18.14.39.18.62.15.25-.04.43-.15.57-.33.13-.18.18-.39.14-.63-.04-.25-.15-.44-.33-.57"/><path class="f" d="M211.88,276.94c-.25.42-.62.68-1.11.8-1.06.25-1.92-.05-2.59-.89-.4-.51-.73-.85-.99-1.03-.25-.18-.57-.27-.96-.25.01-.34.09-.6.21-.8.13-.2.33-.33.6-.39.27-.06.55,0,.83.21.28.21.55.51.8.92.37.63.75,1.04,1.15,1.23l.06-.08c-.27-.19-.45-.46-.53-.81-.08-.36-.03-.69.15-.99.19-.29.46-.48.82-.57.41-.1.77-.03,1.1.21.32.24.54.6.65,1.07.11.48.04.93-.21,1.35M211.04,275.38c-.14-.1-.29-.12-.46-.09-.18.04-.31.14-.4.28-.09.15-.11.31-.07.48.04.18.13.31.28.4.14.09.3.11.48.07.17-.04.29-.13.37-.27.08-.14.1-.3.07-.48-.04-.17-.13-.3-.27-.4"/><path class="h" d="M126.68,99.75l-.43-.52-.43.52c-.69.82-2.49,3.03-3.44,4.76-.95-1.73-2.75-3.94-3.44-4.76l-.43-.52-.43.52c-.69.82-2.49,3.03-3.44,4.76-.95-1.73-2.75-3.94-3.44-4.76l-.43-.52-.43.52c-.95,1.13-4.05,4.94-4.05,6.44h1.14c0-.68,1.66-3.1,3.34-5.17,1.54,1.89,3.04,4.06,3.29,4.94-.01.08-.03.16-.03.23h1.22c0-.07-.01-.15-.03-.23.25-.88,1.75-3.05,3.29-4.94,1.54,1.89,3.04,4.06,3.29,4.94-.01.08-.03.16-.03.23h1.22c0-.07-.01-.15-.03-.23.25-.88,1.75-3.05,3.29-4.94,1.68,2.07,3.34,4.49,3.34,5.17h1.14c0-1.49-3.1-5.31-4.05-6.44Z"/><path class="g" d="M114.2,107.3c1.43,0,2.58,1.52,2.58,3.39s-1.16,3.39-2.58,3.39-2.58-3.39-2.58-3.39c0,0,1.16-3.39,2.58-3.39"/><path class="d" d="M114.2,114.5c-1.67,0-2.85-3.3-2.98-3.67l-.05-.14.05-.14c.13-.38,1.3-3.68,2.98-3.68s3,1.71,3,3.81-1.34,3.81-3,3.81ZM112.05,110.69c.46,1.28,1.39,2.97,2.15,2.97,1.2,0,2.17-1.33,2.17-2.97s-.97-2.98-2.17-2.98c-.75,0-1.69,1.7-2.15,2.98Z"/><path class="g" d="M122.8,114.08c-1.43,0-2.58-1.52-2.58-3.39s1.16-3.39,2.58-3.39,2.58,3.39,2.58,3.39c0,0-1.16,3.39-2.58,3.39"/><path class="d" d="M122.8,114.5c-1.65,0-3-1.71-3-3.81s1.35-3.81,3-3.81,2.85,3.3,2.98,3.67l.05.14-.05.14c-.13.38-1.3,3.68-2.98,3.68ZM122.8,107.71c-1.2,0-2.17,1.33-2.17,2.97s.97,2.98,2.17,2.98c.75,0,1.69-1.7,2.15-2.98-.46-1.28-1.39-2.97-2.15-2.97Z"/><path class="g" d="M121.88,106.23c0,1.44-1.5,2.61-3.36,2.61s-3.36-1.17-3.36-2.61,3.36-2.61,3.36-2.61c0,0,3.36,1.17,3.36,2.61"/><path class="g" d="M115.17,115.11c0-1.44,1.5-2.61,3.36-2.61s3.36,1.17,3.36,2.61-3.36,2.61-3.36,2.61c0,0-3.36-1.17-3.36-2.61"/><path class="d" d="M118.52,118.16l-.13-.05c-.37-.13-3.64-1.32-3.64-3.01s1.69-3.03,3.77-3.03,3.77,1.36,3.77,3.03-3.26,2.88-3.64,3.01l-.13.05ZM118.52,112.91c-1.62,0-2.94.98-2.94,2.19,0,.76,1.68,1.7,2.94,2.17,1.27-.47,2.94-1.41,2.94-2.17,0-1.21-1.32-2.19-2.94-2.19Z"/><path class="d" d="M118.52,113.48c-1.52,0-2.77-1.25-2.77-2.8s1.24-2.8,2.77-2.8,2.77,1.25,2.77,2.8-1.24,2.8-2.77,2.8ZM118.52,108.73c-1.07,0-1.94.88-1.94,1.96s.87,1.96,1.94,1.96,1.94-.88,1.94-1.96-.87-1.96-1.94-1.96Z"/><path class="d" d="M118.52,109.26c-2.08,0-3.77-1.36-3.77-3.03s3.03-2.8,3.63-3.01l.13-.05.13.05c.61.21,3.64,1.35,3.64,3.01s-1.69,3.03-3.77,3.03ZM118.52,104.06c-1.27.47-2.94,1.41-2.94,2.17,0,1.21,1.32,2.19,2.94,2.19s2.94-.98,2.94-2.19c0-.76-1.68-1.7-2.94-2.17Z"/><path class="g" d="M120.31,110.69c0,1-.8,1.81-1.79,1.81s-1.79-.81-1.79-1.81.8-1.81,1.79-1.81,1.79.81,1.79,1.81"/><path class="h" d="M137.49,125.61l-.44-.51s-.07-.05-.11-.05h0s-.09.02-.11.05l-.51.6c-.24.29-.64.78-1.13,1.39-1.17-1.61-2.36-3.05-2.71-3.46l-.43-.52s-.07-.06-.12-.06-.09.02-.12.06l-.43.52c-.47.56-1.39,1.68-2.33,2.94-.35-.43-.63-.77-.79-.96l-.43-.51s-.07-.05-.11-.05h0s-.09.02-.11.05l-.44.52c-.23.27-.68.82-1.23,1.52-1.11-1.54-2.28-2.95-2.74-3.5l-.43-.52s-.07-.06-.12-.06-.09.02-.12.06l-.43.52c-.46.55-1.36,1.65-2.3,2.9-.33-.41-.6-.74-.76-.92l-.43-.51s-.07-.05-.12-.05-.09.02-.12.05l-.43.51c-.23.26-.69.82-1.27,1.57-1.12-1.56-2.29-2.97-2.77-3.54l-.43-.52s-.07-.05-.12-.06h0s-.09.02-.12.05l-.55.65c-.42.51-1.26,1.53-2.15,2.73-.17-.21-.73-.89-.73-.89l-.43-.51s-.07-.05-.12-.05-.09.02-.12.05l-.43.51c-.23.28-.72.86-1.31,1.61-1.17-1.64-2.38-3.1-2.79-3.59l-.44-.52s-.07-.05-.12-.05h0s-.09.02-.12.06l-.43.52c-.39.46-1.29,1.55-2.24,2.82-.3-.37-.54-.66-.68-.84l-.44-.51s-.07-.05-.11-.05h0s-.09.02-.11.05l-.43.51c-.89,1.06-5.33,6.46-5.33,8.48,0,.08.07.15.15.15h1.14c.08,0,.15-.07.15-.15,0-.91,2.21-4.12,4.44-6.87.14.18.28.36.43.55.25.31.5.63.74.95,1.09,1.42,2.05,2.81,2.64,3.82-.31.65-.47,1.17-.47,1.56,0,.08.07.15.15.15h2.25c.08,0,.15-.07.15-.15,0-.39-.15-.9-.47-1.55.46-.8,1.16-1.84,2.01-3.01l.73-.97c.35-.47.71-.92,1.06-1.35.16.19.31.39.47.59.22.27.44.55.66.83l.08.11c1.12,1.47,2.04,2.81,2.6,3.78-.31.64-.47,1.17-.47,1.56,0,.08.07.15.15.15h2.25c.08,0,.15-.07.15-.15,0-.39-.16-.92-.47-1.57.48-.84,1.21-1.91,2.05-3.04.24-.33.48-.65.73-.97.35-.45.69-.88,1.02-1.3.16.2.33.41.49.63.24.31.49.63.73.95,1.09,1.43,2,2.75,2.57,3.73-.31.65-.47,1.17-.47,1.56,0,.08.07.15.15.15h2.25c.08,0,.15-.07.15-.15,0-.39-.16-.91-.47-1.56.46-.8,1.16-1.84,2.08-3.09.15-.21.31-.42.47-.62l.27-.35c.33-.43.67-.85.99-1.25l.53.67c.22.27.43.56.65.85l.08.11c.78,1.03,1.84,2.5,2.53,3.7-.31.66-.47,1.16-.47,1.55,0,.08.07.15.15.15h2.25c.08,0,.15-.07.15-.15,0-.39-.16-.91-.47-1.56.49-.85,1.24-1.96,2.11-3.13.24-.33.48-.65.73-.97.32-.42.64-.82.95-1.21,2.23,2.75,4.45,5.95,4.45,6.87,0,.08.07.15.15.15h1.14c.08,0,.15-.07.15-.15,0-1.86-3.73-6.55-5.33-8.48ZM134.26,128.3c-.55.73-1.3,1.76-1.93,2.77-.59-.94-1.37-2.05-2.34-3.31.6-.83,1.28-1.72,1.94-2.53.83,1.03,1.65,2.1,2.33,3.06ZM125,128.35c-.78,1.05-1.41,1.95-1.89,2.73-.75-1.2-1.68-2.46-2.37-3.36.61-.83,1.26-1.68,1.91-2.48.82,1.02,1.65,2.11,2.35,3.11ZM115.75,128.39c-.77,1.03-1.38,1.91-1.86,2.68-.76-1.21-1.71-2.49-2.4-3.39.61-.83,1.27-1.68,1.88-2.44.85,1.05,1.69,2.16,2.38,3.15ZM106.5,128.43c-.52.7-1.23,1.68-1.83,2.64-.59-.95-1.39-2.08-2.44-3.44.63-.86,1.27-1.69,1.84-2.4.87,1.08,1.72,2.21,2.42,3.19Z"/><path class="g" d="M112.82,136.51c1.83,0,3.31,1.95,3.31,4.35s-1.48,4.35-3.31,4.35-3.31-4.35-3.31-4.35c0,0,1.48-4.35,3.31-4.35"/><path class="d" d="M112.82,145.62c-2.06,0-3.54-4.16-3.7-4.63l-.05-.14.05-.14c.16-.47,1.64-4.63,3.7-4.63s3.72,2.14,3.72,4.77-1.67,4.77-3.72,4.77ZM109.95,140.86c.56,1.58,1.79,3.93,2.87,3.93,1.6,0,2.9-1.76,2.9-3.93s-1.3-3.93-2.9-3.93c-1.08,0-2.31,2.35-2.87,3.93Z"/><path class="g" d="M124.18,145.2c-1.83,0-3.31-1.95-3.31-4.35s1.48-4.35,3.31-4.35,3.31,4.35,3.31,4.35c0,0-1.48,4.35-3.31,4.35"/><path class="d" d="M124.18,145.62c-2.05,0-3.72-2.14-3.72-4.77s1.67-4.77,3.72-4.77,3.54,4.16,3.7,4.63l.05.14-.05.14c-.16.47-1.64,4.63-3.7,4.63ZM124.18,136.93c-1.6,0-2.9,1.76-2.9,3.93s1.3,3.93,2.9,3.93c1.08,0,2.31-2.35,2.87-3.93-.56-1.58-1.79-3.93-2.87-3.93Z"/><path class="g" d="M122.83,134.98c0,1.85-1.92,3.35-4.3,3.35s-4.3-1.5-4.3-3.35,4.3-3.35,4.3-3.35c0,0,4.3,1.5,4.3,3.35"/><path class="g" d="M114.23,146.68c0-1.85,1.93-3.35,4.3-3.35s4.3,1.5,4.3,3.35-4.3,3.35-4.3,3.35c0,0-4.3-1.5-4.3-3.35"/><path class="d" d="M118.53,150.47l-.13-.05c-.47-.16-4.58-1.66-4.58-3.74s2.11-3.77,4.71-3.77,4.71,1.69,4.71,3.77-4.11,3.58-4.58,3.74l-.13.05ZM118.53,143.75c-2.14,0-3.89,1.31-3.89,2.93,0,1.1,2.33,2.34,3.89,2.9,1.56-.57,3.89-1.81,3.89-2.9,0-1.62-1.74-2.93-3.89-2.93Z"/><path class="d" d="M118.53,138.74c-2.6,0-4.71-1.69-4.71-3.77s4.11-3.58,4.58-3.74l.13-.05.13.05c.47.16,4.58,1.66,4.58,3.74s-2.11,3.77-4.71,3.77ZM118.53,132.07c-1.56.57-3.89,1.81-3.89,2.9,0,1.62,1.74,2.93,3.89,2.93s3.89-1.31,3.89-2.93c0-1.1-2.33-2.34-3.89-2.9Z"/><path class="g" d="M121.54,140.86c0,1.68-1.35,3.05-3.01,3.05s-3.01-1.36-3.01-3.05,1.35-3.05,3.01-3.05,3.01,1.36,3.01,3.05"/><path class="d" d="M118.53,144.32c-1.89,0-3.43-1.55-3.43-3.46s1.54-3.46,3.43-3.46,3.43,1.55,3.43,3.46-1.54,3.46-3.43,3.46ZM118.53,138.23c-1.43,0-2.6,1.18-2.6,2.63s1.17,2.63,2.6,2.63,2.6-1.18,2.6-2.63-1.17-2.63-2.6-2.63Z"/><path class="g" d="M149.87,150.4c-.12-.12-2.9-2.85-1.22-6.45l.06-.12v-.26c.98-.5,1.66-1.52,1.66-2.71s-.71-2.26-1.73-2.75v-.2s-.07-.13-.07-.13c-1.47-2.7,1.37-6.37,1.4-6.4l.81-1.03-1.3.1c-5.47.43-6.39,3.92-6.55,5.12-.86.42-2.9,1.79-2.9,5.46s2.54,5.28,3.46,5.72c.66,3.67,4.09,4.64,5.92,4.64.03,0,.05,0,.08,0l1.39-.02-1.01-.97ZM144.56,146.27l-.05-.36-.34-.12c-.12-.04-3.02-1.08-3.02-4.77s2.37-4.48,2.46-4.51l.41-.13v-.43c0-.15.03-3.36,4.31-4.2-.81,1.38-1.88,3.82-1.01,6.06-1.65.01-2.99,1.37-2.99,3.04s1.35,3.05,3.01,3.05c.03,0,.06,0,.09,0-1.04,2.65-.09,4.9.74,6.19-1.34-.31-3.28-1.2-3.61-3.81Z"/><path class="g" d="M86.12,151.37l1.39.02s.05,0,.08,0c1.84,0,5.27-.97,5.92-4.64.93-.44,3.46-1.99,3.46-5.72s-2.04-5.04-2.9-5.46c-.16-1.21-1.08-4.7-6.55-5.12l-1.3-.1.81,1.03s2.86,3.7,1.4,6.4l-.07.13v.2c-1.02.49-1.73,1.53-1.73,2.75s.68,2.21,1.66,2.71v.26s.05.12.05.12c1.68,3.59-1.1,6.33-1.22,6.45l-1.01.97ZM88.82,150.09c.83-1.28,1.78-3.53.74-6.19.03,0,.06,0,.09,0,1.66,0,3.01-1.36,3.01-3.05s-1.34-3.03-2.99-3.04c.87-2.23-.2-4.68-1.01-6.06,4.27.85,4.31,4.06,4.31,4.2v.43s.4.13.4.13c.1.03,2.46.84,2.46,4.51s-2.9,4.73-3.02,4.77l-.34.12-.05.36c-.33,2.61-2.27,3.51-3.61,3.81Z"/><path class="d" d="M157.83,322.69c-.85,1.42.39,2.09.39,2.09,0,0,.42,2.1-3.52,2.1s-4.28-4.32-4.28-4.32v-26.09h0s0,0,0,0v-4.53h0v-4.01h0v-28.75c0-4.2,4.32-7.54,6.44-4.62,2.12,2.91,5.59-.32,1.44-2.8-4.15-2.48-7.12.06-7.12.06,0,0-4.63-8.91-17.68-13.18v6.23c8.82,3.16,9.97,8.58,9.97,8.58v27.95h0v3.53s0,0,0,0v4.45h0s0,6.87,0,6.87h0v7.98h0s0,0,0,0v19.96c0,4.1-3.32,3.91-3.32,3.91.51-1.93-1.33-2.45-2.36-1.94-1.26.62-1.71,3.51.93,4.57,4.17,1.68,8.05-3.63,8.05-3.63,5.93,6.94,14.19,2.5,14.8-1.73.49-3.43-2.73-4.37-3.75-2.67Z"/></g></svg>